<svg width="1243" height="674" viewBox="0 0 1243 674" fill="none" xmlns="http://www.w3.org/2000/svg">
<rect width="1243" height="674" fill="white"/>
<rect x="91" y="204" width="413" height="283" fill="#D9D9D9"/>
<rect x="219.5" y="118.5" width="298" height="57" rx="9.5" fill="white" stroke="#2F57BE"/>
<path d="M237.685 152V141.818H241.125C241.924 141.818 242.577 141.962 243.084 142.251C243.595 142.536 243.973 142.922 244.218 143.409C244.463 143.896 244.586 144.44 244.586 145.04C244.586 145.64 244.463 146.185 244.218 146.675C243.976 147.166 243.601 147.557 243.094 147.849C242.587 148.137 241.937 148.281 241.145 148.281H238.679V147.188H241.106C241.652 147.188 242.092 147.093 242.423 146.904C242.754 146.715 242.995 146.46 243.144 146.138C243.296 145.814 243.373 145.447 243.373 145.04C243.373 144.632 243.296 144.268 243.144 143.946C242.995 143.625 242.753 143.373 242.418 143.19C242.083 143.005 241.639 142.912 241.086 142.912H238.918V152H237.685ZM247.586 141.818V152H246.413V141.818H247.586ZM251.982 152.179C251.498 152.179 251.059 152.088 250.665 151.906C250.27 151.72 249.957 151.453 249.725 151.105C249.493 150.754 249.377 150.33 249.377 149.832C249.377 149.395 249.463 149.04 249.636 148.768C249.808 148.493 250.038 148.278 250.327 148.122C250.615 147.966 250.933 147.85 251.281 147.774C251.632 147.695 251.985 147.632 252.34 147.585C252.804 147.526 253.18 147.481 253.469 147.451C253.76 147.418 253.972 147.363 254.105 147.287C254.241 147.211 254.309 147.078 254.309 146.889V146.849C254.309 146.359 254.175 145.978 253.906 145.706C253.641 145.434 253.238 145.298 252.698 145.298C252.138 145.298 251.699 145.421 251.381 145.666C251.062 145.911 250.839 146.173 250.709 146.452L249.596 146.054C249.795 145.59 250.06 145.229 250.391 144.97C250.726 144.708 251.091 144.526 251.485 144.423C251.883 144.317 252.274 144.264 252.658 144.264C252.904 144.264 253.185 144.294 253.503 144.354C253.825 144.41 254.135 144.528 254.433 144.707C254.735 144.886 254.985 145.156 255.184 145.517C255.383 145.878 255.482 146.362 255.482 146.969V152H254.309V150.966H254.249C254.17 151.132 254.037 151.309 253.851 151.498C253.666 151.687 253.419 151.848 253.111 151.98C252.802 152.113 252.426 152.179 251.982 152.179ZM252.161 151.125C252.625 151.125 253.016 151.034 253.334 150.852C253.656 150.669 253.898 150.434 254.06 150.146C254.226 149.857 254.309 149.554 254.309 149.236V148.162C254.259 148.222 254.15 148.276 253.981 148.326C253.815 148.372 253.623 148.414 253.404 148.45C253.189 148.483 252.978 148.513 252.773 148.54C252.57 148.563 252.406 148.583 252.28 148.599C251.976 148.639 251.69 148.704 251.425 148.793C251.164 148.879 250.951 149.01 250.789 149.186C250.63 149.358 250.55 149.594 250.55 149.892C250.55 150.3 250.701 150.608 251.003 150.817C251.308 151.022 251.694 151.125 252.161 151.125ZM260.726 152.159C260.01 152.159 259.394 151.99 258.877 151.652C258.359 151.314 257.962 150.848 257.683 150.255C257.405 149.662 257.266 148.984 257.266 148.222C257.266 147.446 257.408 146.762 257.693 146.168C257.982 145.572 258.383 145.106 258.896 144.771C259.413 144.433 260.017 144.264 260.706 144.264C261.243 144.264 261.727 144.364 262.158 144.562C262.589 144.761 262.942 145.04 263.217 145.398C263.492 145.756 263.662 146.173 263.729 146.651H262.555C262.466 146.303 262.267 145.994 261.959 145.726C261.654 145.454 261.243 145.318 260.726 145.318C260.269 145.318 259.868 145.437 259.523 145.676C259.181 145.911 258.915 146.245 258.722 146.675C258.533 147.103 258.439 147.605 258.439 148.182C258.439 148.772 258.532 149.286 258.717 149.723C258.906 150.161 259.171 150.5 259.513 150.742C259.858 150.984 260.262 151.105 260.726 151.105C261.031 151.105 261.308 151.052 261.556 150.946C261.805 150.84 262.015 150.688 262.188 150.489C262.36 150.29 262.483 150.051 262.555 149.773H263.729C263.662 150.223 263.498 150.629 263.237 150.991C262.978 151.349 262.635 151.634 262.207 151.846C261.783 152.055 261.289 152.159 260.726 152.159ZM268.646 152.159C267.91 152.159 267.275 151.997 266.742 151.672C266.211 151.344 265.802 150.886 265.514 150.3C265.229 149.71 265.086 149.024 265.086 148.241C265.086 147.459 265.229 146.77 265.514 146.173C265.802 145.573 266.203 145.106 266.717 144.771C267.234 144.433 267.837 144.264 268.526 144.264C268.924 144.264 269.317 144.33 269.705 144.463C270.092 144.596 270.445 144.811 270.764 145.109C271.082 145.404 271.335 145.795 271.524 146.283C271.713 146.77 271.808 147.37 271.808 148.082V148.58H265.921V147.565H270.614C270.614 147.134 270.528 146.75 270.356 146.412C270.187 146.074 269.945 145.807 269.63 145.612C269.319 145.416 268.951 145.318 268.526 145.318C268.059 145.318 267.655 145.434 267.313 145.666C266.975 145.895 266.715 146.193 266.533 146.561C266.35 146.929 266.259 147.323 266.259 147.744V148.42C266.259 148.997 266.359 149.486 266.558 149.887C266.76 150.285 267.04 150.588 267.398 150.797C267.756 151.002 268.172 151.105 268.646 151.105C268.954 151.105 269.232 151.062 269.481 150.976C269.733 150.886 269.95 150.754 270.132 150.578C270.314 150.399 270.455 150.177 270.555 149.912L271.688 150.23C271.569 150.615 271.368 150.953 271.087 151.244C270.805 151.533 270.457 151.758 270.043 151.92C269.628 152.08 269.163 152.159 268.646 152.159ZM277.689 152V141.818H278.922V146.352H284.351V141.818H285.584V152H284.351V147.446H278.922V152H277.689ZM290.995 152.159C290.306 152.159 289.701 151.995 289.181 151.667C288.664 151.339 288.259 150.88 287.968 150.29C287.679 149.7 287.535 149.01 287.535 148.222C287.535 147.426 287.679 146.732 287.968 146.138C288.259 145.545 288.664 145.085 289.181 144.756C289.701 144.428 290.306 144.264 290.995 144.264C291.685 144.264 292.288 144.428 292.805 144.756C293.325 145.085 293.73 145.545 294.018 146.138C294.31 146.732 294.456 147.426 294.456 148.222C294.456 149.01 294.31 149.7 294.018 150.29C293.73 150.88 293.325 151.339 292.805 151.667C292.288 151.995 291.685 152.159 290.995 152.159ZM290.995 151.105C291.519 151.105 291.95 150.971 292.288 150.702C292.626 150.434 292.876 150.081 293.039 149.643C293.201 149.206 293.282 148.732 293.282 148.222C293.282 147.711 293.201 147.236 293.039 146.795C292.876 146.354 292.626 145.998 292.288 145.726C291.95 145.454 291.519 145.318 290.995 145.318C290.472 145.318 290.041 145.454 289.703 145.726C289.365 145.998 289.115 146.354 288.952 146.795C288.79 147.236 288.709 147.711 288.709 148.222C288.709 148.732 288.79 149.206 288.952 149.643C289.115 150.081 289.365 150.434 289.703 150.702C290.041 150.971 290.472 151.105 290.995 151.105ZM297.42 141.818V152H296.247V141.818H297.42ZM302.453 152.159C301.816 152.159 301.254 151.998 300.767 151.677C300.28 151.352 299.899 150.895 299.624 150.305C299.349 149.711 299.211 149.01 299.211 148.202C299.211 147.4 299.349 146.704 299.624 146.114C299.899 145.524 300.282 145.068 300.772 144.746C301.263 144.425 301.829 144.264 302.472 144.264C302.97 144.264 303.362 144.347 303.651 144.513C303.942 144.675 304.164 144.861 304.317 145.07C304.473 145.275 304.594 145.444 304.68 145.577H304.779V141.818H305.953V152H304.819V150.827H304.68C304.594 150.966 304.471 151.142 304.312 151.354C304.153 151.562 303.926 151.75 303.631 151.915C303.336 152.078 302.943 152.159 302.453 152.159ZM302.612 151.105C303.082 151.105 303.48 150.982 303.805 150.737C304.13 150.489 304.377 150.146 304.546 149.708C304.715 149.267 304.799 148.759 304.799 148.182C304.799 147.612 304.716 147.113 304.551 146.685C304.385 146.254 304.14 145.92 303.815 145.681C303.49 145.439 303.089 145.318 302.612 145.318C302.114 145.318 301.7 145.446 301.369 145.701C301.041 145.953 300.794 146.296 300.628 146.73C300.466 147.161 300.384 147.645 300.384 148.182C300.384 148.725 300.467 149.219 300.633 149.663C300.802 150.104 301.051 150.455 301.379 150.717C301.71 150.976 302.121 151.105 302.612 151.105ZM311.466 152.159C310.73 152.159 310.095 151.997 309.562 151.672C309.032 151.344 308.622 150.886 308.334 150.3C308.049 149.71 307.906 149.024 307.906 148.241C307.906 147.459 308.049 146.77 308.334 146.173C308.622 145.573 309.023 145.106 309.537 144.771C310.054 144.433 310.657 144.264 311.347 144.264C311.744 144.264 312.137 144.33 312.525 144.463C312.913 144.596 313.266 144.811 313.584 145.109C313.902 145.404 314.156 145.795 314.345 146.283C314.533 146.77 314.628 147.37 314.628 148.082V148.58H308.742V147.565H313.435C313.435 147.134 313.349 146.75 313.176 146.412C313.007 146.074 312.765 145.807 312.45 145.612C312.139 145.416 311.771 145.318 311.347 145.318C310.879 145.318 310.475 145.434 310.134 145.666C309.796 145.895 309.535 146.193 309.353 146.561C309.171 146.929 309.08 147.323 309.08 147.744V148.42C309.08 148.997 309.179 149.486 309.378 149.887C309.58 150.285 309.86 150.588 310.218 150.797C310.576 151.002 310.992 151.105 311.466 151.105C311.774 151.105 312.053 151.062 312.301 150.976C312.553 150.886 312.77 150.754 312.953 150.578C313.135 150.399 313.276 150.177 313.375 149.912L314.509 150.23C314.389 150.615 314.189 150.953 313.907 151.244C313.625 151.533 313.277 151.758 312.863 151.92C312.449 152.08 311.983 152.159 311.466 152.159ZM316.413 152V144.364H317.546V145.517H317.626C317.765 145.139 318.017 144.833 318.381 144.597C318.746 144.362 319.157 144.244 319.614 144.244C319.701 144.244 319.808 144.246 319.938 144.249C320.067 144.253 320.165 144.258 320.231 144.264V145.457C320.191 145.447 320.1 145.433 319.957 145.413C319.818 145.389 319.671 145.378 319.515 145.378C319.144 145.378 318.812 145.456 318.521 145.612C318.232 145.764 318.004 145.976 317.835 146.248C317.669 146.516 317.586 146.823 317.586 147.168V152H316.413Z" fill="#C2C3C4"/>
<path d="M149.768 152V141.818H151.001V150.906H155.734V152H149.768ZM159.731 152.179C159.247 152.179 158.808 152.088 158.414 151.906C158.019 151.72 157.706 151.453 157.474 151.105C157.242 150.754 157.126 150.33 157.126 149.832C157.126 149.395 157.212 149.04 157.385 148.768C157.557 148.493 157.787 148.278 158.076 148.122C158.364 147.966 158.682 147.85 159.03 147.774C159.382 147.695 159.734 147.632 160.089 147.585C160.553 147.526 160.929 147.481 161.218 147.451C161.509 147.418 161.721 147.363 161.854 147.287C161.99 147.211 162.058 147.078 162.058 146.889V146.849C162.058 146.359 161.924 145.978 161.655 145.706C161.39 145.434 160.987 145.298 160.447 145.298C159.887 145.298 159.448 145.421 159.13 145.666C158.811 145.911 158.588 146.173 158.458 146.452L157.345 146.054C157.544 145.59 157.809 145.229 158.14 144.97C158.475 144.708 158.84 144.526 159.234 144.423C159.632 144.317 160.023 144.264 160.407 144.264C160.653 144.264 160.934 144.294 161.252 144.354C161.574 144.41 161.884 144.528 162.182 144.707C162.484 144.886 162.734 145.156 162.933 145.517C163.132 145.878 163.231 146.362 163.231 146.969V152H162.058V150.966H161.998C161.919 151.132 161.786 151.309 161.6 151.498C161.415 151.687 161.168 151.848 160.86 151.98C160.551 152.113 160.175 152.179 159.731 152.179ZM159.91 151.125C160.374 151.125 160.765 151.034 161.083 150.852C161.405 150.669 161.647 150.434 161.809 150.146C161.975 149.857 162.058 149.554 162.058 149.236V148.162C162.008 148.222 161.899 148.276 161.73 148.326C161.564 148.372 161.372 148.414 161.153 148.45C160.938 148.483 160.727 148.513 160.522 148.54C160.319 148.563 160.155 148.583 160.029 148.599C159.725 148.639 159.44 148.704 159.174 148.793C158.913 148.879 158.7 149.01 158.538 149.186C158.379 149.358 158.299 149.594 158.299 149.892C158.299 150.3 158.45 150.608 158.752 150.817C159.057 151.022 159.443 151.125 159.91 151.125ZM165.532 152V141.818H166.705V145.577H166.805C166.891 145.444 167.01 145.275 167.162 145.07C167.318 144.861 167.54 144.675 167.829 144.513C168.12 144.347 168.515 144.264 169.012 144.264C169.655 144.264 170.222 144.425 170.712 144.746C171.203 145.068 171.586 145.524 171.861 146.114C172.136 146.704 172.273 147.4 172.273 148.202C172.273 149.01 172.136 149.711 171.861 150.305C171.586 150.895 171.204 151.352 170.717 151.677C170.23 151.998 169.668 152.159 169.032 152.159C168.541 152.159 168.148 152.078 167.854 151.915C167.559 151.75 167.331 151.562 167.172 151.354C167.013 151.142 166.891 150.966 166.805 150.827H166.665V152H165.532ZM166.685 148.182C166.685 148.759 166.77 149.267 166.939 149.708C167.108 150.146 167.355 150.489 167.68 150.737C168.004 150.982 168.402 151.105 168.873 151.105C169.363 151.105 169.773 150.976 170.101 150.717C170.432 150.455 170.681 150.104 170.846 149.663C171.015 149.219 171.1 148.725 171.1 148.182C171.1 147.645 171.017 147.161 170.851 146.73C170.689 146.296 170.442 145.953 170.111 145.701C169.782 145.446 169.37 145.318 168.873 145.318C168.395 145.318 167.994 145.439 167.67 145.681C167.345 145.92 167.099 146.254 166.934 146.685C166.768 147.113 166.685 147.612 166.685 148.182ZM177.27 152.159C176.534 152.159 175.899 151.997 175.366 151.672C174.835 151.344 174.426 150.886 174.138 150.3C173.853 149.71 173.71 149.024 173.71 148.241C173.71 147.459 173.853 146.77 174.138 146.173C174.426 145.573 174.827 145.106 175.341 144.771C175.858 144.433 176.461 144.264 177.15 144.264C177.548 144.264 177.941 144.33 178.329 144.463C178.716 144.596 179.069 144.811 179.388 145.109C179.706 145.404 179.959 145.795 180.148 146.283C180.337 146.77 180.432 147.37 180.432 148.082V148.58H174.545V147.565H179.238C179.238 147.134 179.152 146.75 178.98 146.412C178.811 146.074 178.569 145.807 178.254 145.612C177.943 145.416 177.575 145.318 177.15 145.318C176.683 145.318 176.279 145.434 175.937 145.666C175.599 145.895 175.339 146.193 175.157 146.561C174.974 146.929 174.883 147.323 174.883 147.744V148.42C174.883 148.997 174.983 149.486 175.182 149.887C175.384 150.285 175.664 150.588 176.022 150.797C176.38 151.002 176.796 151.105 177.27 151.105C177.578 151.105 177.856 151.062 178.105 150.976C178.357 150.886 178.574 150.754 178.756 150.578C178.939 150.399 179.079 150.177 179.179 149.912L180.312 150.23C180.193 150.615 179.992 150.953 179.711 151.244C179.429 151.533 179.081 151.758 178.667 151.92C178.252 152.08 177.787 152.159 177.27 152.159ZM183.39 141.818V152H182.216V141.818H183.39Z" fill="black"/>
<rect x="219.5" y="234.5" width="234" height="55" rx="7.5" fill="#0F89E3" stroke="#2F57BE"/>
<path d="M295.363 267V256.818H298.922C299.632 256.818 300.217 256.941 300.677 257.186C301.138 257.428 301.481 257.754 301.707 258.165C301.932 258.573 302.045 259.026 302.045 259.523C302.045 259.96 301.967 260.321 301.811 260.607C301.659 260.892 301.456 261.117 301.204 261.283C300.956 261.448 300.686 261.571 300.394 261.651V261.75C300.706 261.77 301.019 261.879 301.334 262.078C301.649 262.277 301.912 262.562 302.124 262.933C302.336 263.304 302.442 263.759 302.442 264.295C302.442 264.806 302.326 265.265 302.094 265.673C301.862 266.08 301.496 266.403 300.996 266.642C300.495 266.881 299.844 267 299.042 267H295.363ZM296.596 265.906H299.042C299.847 265.906 300.419 265.75 300.757 265.439C301.098 265.124 301.269 264.743 301.269 264.295C301.269 263.951 301.181 263.633 301.006 263.341C300.83 263.046 300.58 262.811 300.255 262.635C299.93 262.456 299.546 262.366 299.101 262.366H296.596V265.906ZM296.596 261.293H298.883C299.254 261.293 299.589 261.22 299.887 261.074C300.189 260.928 300.427 260.723 300.603 260.457C300.782 260.192 300.871 259.881 300.871 259.523C300.871 259.075 300.716 258.696 300.404 258.384C300.092 258.069 299.599 257.912 298.922 257.912H296.596V261.293ZM309.122 263.878V259.364H310.295V267H309.122V265.707H309.042C308.863 266.095 308.585 266.425 308.207 266.697C307.829 266.965 307.352 267.099 306.775 267.099C306.298 267.099 305.874 266.995 305.502 266.786C305.131 266.574 304.84 266.256 304.627 265.832C304.415 265.404 304.309 264.866 304.309 264.216V259.364H305.483V264.136C305.483 264.693 305.638 265.137 305.95 265.469C306.265 265.8 306.666 265.966 307.153 265.966C307.445 265.966 307.741 265.891 308.043 265.742C308.348 265.593 308.603 265.364 308.809 265.056C309.017 264.748 309.122 264.355 309.122 263.878ZM315.765 259.364V260.358H311.808V259.364H315.765ZM312.961 257.534H314.134V264.812C314.134 265.144 314.182 265.393 314.278 265.558C314.378 265.721 314.504 265.83 314.656 265.886C314.812 265.939 314.976 265.966 315.149 265.966C315.278 265.966 315.384 265.959 315.467 265.946C315.55 265.929 315.616 265.916 315.666 265.906L315.904 266.96C315.825 266.99 315.714 267.02 315.571 267.05C315.429 267.083 315.248 267.099 315.029 267.099C314.698 267.099 314.373 267.028 314.055 266.886C313.74 266.743 313.478 266.526 313.269 266.234C313.064 265.943 312.961 265.575 312.961 265.131V257.534ZM320.851 259.364V260.358H316.894V259.364H320.851ZM318.047 257.534H319.22V264.812C319.22 265.144 319.268 265.393 319.364 265.558C319.464 265.721 319.59 265.83 319.742 265.886C319.898 265.939 320.062 265.966 320.234 265.966C320.364 265.966 320.47 265.959 320.553 265.946C320.636 265.929 320.702 265.916 320.752 265.906L320.99 266.96C320.911 266.99 320.8 267.02 320.657 267.05C320.515 267.083 320.334 267.099 320.115 267.099C319.784 267.099 319.459 267.028 319.141 266.886C318.826 266.743 318.564 266.526 318.355 266.234C318.15 265.943 318.047 265.575 318.047 265.131V257.534ZM325.636 267.159C324.947 267.159 324.342 266.995 323.821 266.667C323.304 266.339 322.9 265.88 322.608 265.29C322.32 264.7 322.176 264.01 322.176 263.222C322.176 262.426 322.32 261.732 322.608 261.138C322.9 260.545 323.304 260.085 323.821 259.756C324.342 259.428 324.947 259.264 325.636 259.264C326.325 259.264 326.929 259.428 327.446 259.756C327.966 260.085 328.37 260.545 328.659 261.138C328.95 261.732 329.096 262.426 329.096 263.222C329.096 264.01 328.95 264.7 328.659 265.29C328.37 265.88 327.966 266.339 327.446 266.667C326.929 266.995 326.325 267.159 325.636 267.159ZM325.636 266.105C326.16 266.105 326.591 265.971 326.929 265.702C327.267 265.434 327.517 265.081 327.679 264.643C327.842 264.206 327.923 263.732 327.923 263.222C327.923 262.711 327.842 262.236 327.679 261.795C327.517 261.354 327.267 260.998 326.929 260.726C326.591 260.454 326.16 260.318 325.636 260.318C325.112 260.318 324.682 260.454 324.343 260.726C324.005 260.998 323.755 261.354 323.593 261.795C323.43 262.236 323.349 262.711 323.349 263.222C323.349 263.732 323.43 264.206 323.593 264.643C323.755 265.081 324.005 265.434 324.343 265.702C324.682 265.971 325.112 266.105 325.636 266.105ZM332.061 262.406V267H330.887V259.364H332.021V260.557H332.12C332.299 260.169 332.571 259.857 332.936 259.622C333.3 259.384 333.771 259.264 334.348 259.264C334.865 259.264 335.317 259.37 335.705 259.582C336.093 259.791 336.394 260.109 336.61 260.537C336.825 260.961 336.933 261.498 336.933 262.148V267H335.759V262.227C335.759 261.627 335.604 261.16 335.292 260.825C334.981 260.487 334.553 260.318 334.009 260.318C333.635 260.318 333.3 260.399 333.005 260.562C332.714 260.724 332.483 260.961 332.314 261.273C332.145 261.584 332.061 261.962 332.061 262.406ZM343.173 267V256.818H344.406V265.906H349.139V267H343.173ZM353.136 267.179C352.653 267.179 352.213 267.088 351.819 266.906C351.425 266.72 351.111 266.453 350.879 266.105C350.647 265.754 350.531 265.33 350.531 264.832C350.531 264.395 350.618 264.04 350.79 263.768C350.962 263.493 351.193 263.278 351.481 263.122C351.769 262.966 352.087 262.85 352.435 262.774C352.787 262.695 353.14 262.632 353.494 262.585C353.958 262.526 354.335 262.481 354.623 262.451C354.915 262.418 355.127 262.363 355.259 262.287C355.395 262.211 355.463 262.078 355.463 261.889V261.849C355.463 261.359 355.329 260.978 355.06 260.706C354.795 260.434 354.393 260.298 353.852 260.298C353.292 260.298 352.853 260.421 352.535 260.666C352.217 260.911 351.993 261.173 351.864 261.452L350.75 261.054C350.949 260.59 351.214 260.229 351.546 259.97C351.88 259.708 352.245 259.526 352.639 259.423C353.037 259.317 353.428 259.264 353.813 259.264C354.058 259.264 354.34 259.294 354.658 259.354C354.979 259.41 355.289 259.528 355.587 259.707C355.889 259.886 356.139 260.156 356.338 260.517C356.537 260.878 356.636 261.362 356.636 261.969V267H355.463V265.966H355.403C355.324 266.132 355.191 266.309 355.006 266.498C354.82 266.687 354.573 266.848 354.265 266.98C353.957 267.113 353.581 267.179 353.136 267.179ZM353.315 266.125C353.779 266.125 354.171 266.034 354.489 265.852C354.81 265.669 355.052 265.434 355.215 265.146C355.38 264.857 355.463 264.554 355.463 264.236V263.162C355.413 263.222 355.304 263.276 355.135 263.326C354.969 263.372 354.777 263.414 354.558 263.45C354.343 263.483 354.132 263.513 353.927 263.54C353.725 263.563 353.561 263.583 353.435 263.599C353.13 263.639 352.845 263.704 352.58 263.793C352.318 263.879 352.106 264.01 351.943 264.186C351.784 264.358 351.705 264.594 351.705 264.892C351.705 265.3 351.855 265.608 352.157 265.817C352.462 266.022 352.848 266.125 353.315 266.125ZM358.937 267V256.818H360.11V260.577H360.21C360.296 260.444 360.415 260.275 360.568 260.07C360.724 259.861 360.946 259.675 361.234 259.513C361.526 259.347 361.92 259.264 362.417 259.264C363.06 259.264 363.627 259.425 364.117 259.746C364.608 260.068 364.991 260.524 365.266 261.114C365.541 261.704 365.679 262.4 365.679 263.202C365.679 264.01 365.541 264.711 365.266 265.305C364.991 265.895 364.61 266.352 364.122 266.677C363.635 266.998 363.073 267.159 362.437 267.159C361.947 267.159 361.554 267.078 361.259 266.915C360.964 266.75 360.737 266.562 360.578 266.354C360.419 266.142 360.296 265.966 360.21 265.827H360.071V267H358.937ZM360.09 263.182C360.09 263.759 360.175 264.267 360.344 264.708C360.513 265.146 360.76 265.489 361.085 265.737C361.41 265.982 361.807 266.105 362.278 266.105C362.768 266.105 363.178 265.976 363.506 265.717C363.837 265.455 364.086 265.104 364.252 264.663C364.421 264.219 364.505 263.725 364.505 263.182C364.505 262.645 364.422 262.161 364.257 261.73C364.094 261.296 363.847 260.953 363.516 260.701C363.188 260.446 362.775 260.318 362.278 260.318C361.801 260.318 361.4 260.439 361.075 260.681C360.75 260.92 360.505 261.254 360.339 261.685C360.173 262.113 360.09 262.612 360.09 263.182ZM370.675 267.159C369.939 267.159 369.304 266.997 368.771 266.672C368.241 266.344 367.831 265.886 367.543 265.3C367.258 264.71 367.115 264.024 367.115 263.241C367.115 262.459 367.258 261.77 367.543 261.173C367.831 260.573 368.232 260.106 368.746 259.771C369.263 259.433 369.866 259.264 370.556 259.264C370.953 259.264 371.346 259.33 371.734 259.463C372.122 259.596 372.475 259.811 372.793 260.109C373.111 260.404 373.365 260.795 373.554 261.283C373.742 261.77 373.837 262.37 373.837 263.082V263.58H367.951V262.565H372.644C372.644 262.134 372.558 261.75 372.385 261.412C372.216 261.074 371.974 260.807 371.659 260.612C371.348 260.416 370.98 260.318 370.556 260.318C370.088 260.318 369.684 260.434 369.343 260.666C369.005 260.895 368.744 261.193 368.562 261.561C368.38 261.929 368.289 262.323 368.289 262.744V263.42C368.289 263.997 368.388 264.486 368.587 264.887C368.789 265.285 369.069 265.588 369.427 265.797C369.785 266.002 370.201 266.105 370.675 266.105C370.983 266.105 371.262 266.062 371.51 265.976C371.762 265.886 371.979 265.754 372.161 265.578C372.344 265.399 372.485 265.177 372.584 264.912L373.718 265.23C373.598 265.615 373.398 265.953 373.116 266.244C372.834 266.533 372.486 266.758 372.072 266.92C371.658 267.08 371.192 267.159 370.675 267.159ZM376.795 256.818V267H375.622V256.818H376.795Z" fill="white"/>
<rect x="522" y="234" width="235" height="56" rx="8" fill="#C2C3C4"/>
<path d="M598.363 267V256.818H601.922C602.632 256.818 603.217 256.941 603.677 257.186C604.138 257.428 604.481 257.754 604.707 258.165C604.932 258.573 605.045 259.026 605.045 259.523C605.045 259.96 604.967 260.321 604.811 260.607C604.659 260.892 604.456 261.117 604.204 261.283C603.956 261.448 603.686 261.571 603.394 261.651V261.75C603.706 261.77 604.019 261.879 604.334 262.078C604.649 262.277 604.912 262.562 605.124 262.933C605.336 263.304 605.442 263.759 605.442 264.295C605.442 264.806 605.326 265.265 605.094 265.673C604.862 266.08 604.496 266.403 603.996 266.642C603.495 266.881 602.844 267 602.042 267H598.363ZM599.596 265.906H602.042C602.847 265.906 603.419 265.75 603.757 265.439C604.098 265.124 604.269 264.743 604.269 264.295C604.269 263.951 604.181 263.633 604.006 263.341C603.83 263.046 603.58 262.811 603.255 262.635C602.93 262.456 602.546 262.366 602.101 262.366H599.596V265.906ZM599.596 261.293H601.883C602.254 261.293 602.589 261.22 602.887 261.074C603.189 260.928 603.427 260.723 603.603 260.457C603.782 260.192 603.871 259.881 603.871 259.523C603.871 259.075 603.716 258.696 603.404 258.384C603.092 258.069 602.599 257.912 601.922 257.912H599.596V261.293ZM612.122 263.878V259.364H613.295V267H612.122V265.707H612.042C611.863 266.095 611.585 266.425 611.207 266.697C610.829 266.965 610.352 267.099 609.775 267.099C609.298 267.099 608.874 266.995 608.502 266.786C608.131 266.574 607.84 266.256 607.627 265.832C607.415 265.404 607.309 264.866 607.309 264.216V259.364H608.483V264.136C608.483 264.693 608.638 265.137 608.95 265.469C609.265 265.8 609.666 265.966 610.153 265.966C610.445 265.966 610.741 265.891 611.043 265.742C611.348 265.593 611.603 265.364 611.809 265.056C612.017 264.748 612.122 264.355 612.122 263.878ZM618.765 259.364V260.358H614.808V259.364H618.765ZM615.961 257.534H617.134V264.812C617.134 265.144 617.182 265.393 617.278 265.558C617.378 265.721 617.504 265.83 617.656 265.886C617.812 265.939 617.976 265.966 618.149 265.966C618.278 265.966 618.384 265.959 618.467 265.946C618.55 265.929 618.616 265.916 618.666 265.906L618.904 266.96C618.825 266.99 618.714 267.02 618.571 267.05C618.429 267.083 618.248 267.099 618.029 267.099C617.698 267.099 617.373 267.028 617.055 266.886C616.74 266.743 616.478 266.526 616.269 266.234C616.064 265.943 615.961 265.575 615.961 265.131V257.534ZM623.851 259.364V260.358H619.894V259.364H623.851ZM621.047 257.534H622.22V264.812C622.22 265.144 622.268 265.393 622.364 265.558C622.464 265.721 622.59 265.83 622.742 265.886C622.898 265.939 623.062 265.966 623.234 265.966C623.364 265.966 623.47 265.959 623.553 265.946C623.636 265.929 623.702 265.916 623.752 265.906L623.99 266.96C623.911 266.99 623.8 267.02 623.657 267.05C623.515 267.083 623.334 267.099 623.115 267.099C622.784 267.099 622.459 267.028 622.141 266.886C621.826 266.743 621.564 266.526 621.355 266.234C621.15 265.943 621.047 265.575 621.047 265.131V257.534ZM628.636 267.159C627.947 267.159 627.342 266.995 626.821 266.667C626.304 266.339 625.9 265.88 625.608 265.29C625.32 264.7 625.176 264.01 625.176 263.222C625.176 262.426 625.32 261.732 625.608 261.138C625.9 260.545 626.304 260.085 626.821 259.756C627.342 259.428 627.947 259.264 628.636 259.264C629.325 259.264 629.929 259.428 630.446 259.756C630.966 260.085 631.37 260.545 631.659 261.138C631.95 261.732 632.096 262.426 632.096 263.222C632.096 264.01 631.95 264.7 631.659 265.29C631.37 265.88 630.966 266.339 630.446 266.667C629.929 266.995 629.325 267.159 628.636 267.159ZM628.636 266.105C629.16 266.105 629.591 265.971 629.929 265.702C630.267 265.434 630.517 265.081 630.679 264.643C630.842 264.206 630.923 263.732 630.923 263.222C630.923 262.711 630.842 262.236 630.679 261.795C630.517 261.354 630.267 260.998 629.929 260.726C629.591 260.454 629.16 260.318 628.636 260.318C628.112 260.318 627.682 260.454 627.343 260.726C627.005 260.998 626.755 261.354 626.593 261.795C626.43 262.236 626.349 262.711 626.349 263.222C626.349 263.732 626.43 264.206 626.593 264.643C626.755 265.081 627.005 265.434 627.343 265.702C627.682 265.971 628.112 266.105 628.636 266.105ZM635.061 262.406V267H633.887V259.364H635.021V260.557H635.12C635.299 260.169 635.571 259.857 635.936 259.622C636.3 259.384 636.771 259.264 637.348 259.264C637.865 259.264 638.317 259.37 638.705 259.582C639.093 259.791 639.394 260.109 639.61 260.537C639.825 260.961 639.933 261.498 639.933 262.148V267H638.759V262.227C638.759 261.627 638.604 261.16 638.292 260.825C637.981 260.487 637.553 260.318 637.009 260.318C636.635 260.318 636.3 260.399 636.005 260.562C635.714 260.724 635.483 260.961 635.314 261.273C635.145 261.584 635.061 261.962 635.061 262.406ZM646.173 267V256.818H647.406V265.906H652.139V267H646.173ZM656.136 267.179C655.653 267.179 655.213 267.088 654.819 266.906C654.425 266.72 654.111 266.453 653.879 266.105C653.647 265.754 653.531 265.33 653.531 264.832C653.531 264.395 653.618 264.04 653.79 263.768C653.962 263.493 654.193 263.278 654.481 263.122C654.769 262.966 655.087 262.85 655.435 262.774C655.787 262.695 656.14 262.632 656.494 262.585C656.958 262.526 657.335 262.481 657.623 262.451C657.915 262.418 658.127 262.363 658.259 262.287C658.395 262.211 658.463 262.078 658.463 261.889V261.849C658.463 261.359 658.329 260.978 658.06 260.706C657.795 260.434 657.393 260.298 656.852 260.298C656.292 260.298 655.853 260.421 655.535 260.666C655.217 260.911 654.993 261.173 654.864 261.452L653.75 261.054C653.949 260.59 654.214 260.229 654.546 259.97C654.88 259.708 655.245 259.526 655.639 259.423C656.037 259.317 656.428 259.264 656.813 259.264C657.058 259.264 657.34 259.294 657.658 259.354C657.979 259.41 658.289 259.528 658.587 259.707C658.889 259.886 659.139 260.156 659.338 260.517C659.537 260.878 659.636 261.362 659.636 261.969V267H658.463V265.966H658.403C658.324 266.132 658.191 266.309 658.006 266.498C657.82 266.687 657.573 266.848 657.265 266.98C656.957 267.113 656.581 267.179 656.136 267.179ZM656.315 266.125C656.779 266.125 657.171 266.034 657.489 265.852C657.81 265.669 658.052 265.434 658.215 265.146C658.38 264.857 658.463 264.554 658.463 264.236V263.162C658.413 263.222 658.304 263.276 658.135 263.326C657.969 263.372 657.777 263.414 657.558 263.45C657.343 263.483 657.132 263.513 656.927 263.54C656.725 263.563 656.561 263.583 656.435 263.599C656.13 263.639 655.845 263.704 655.58 263.793C655.318 263.879 655.106 264.01 654.943 264.186C654.784 264.358 654.705 264.594 654.705 264.892C654.705 265.3 654.855 265.608 655.157 265.817C655.462 266.022 655.848 266.125 656.315 266.125ZM661.937 267V256.818H663.11V260.577H663.21C663.296 260.444 663.415 260.275 663.568 260.07C663.724 259.861 663.946 259.675 664.234 259.513C664.526 259.347 664.92 259.264 665.417 259.264C666.06 259.264 666.627 259.425 667.117 259.746C667.608 260.068 667.991 260.524 668.266 261.114C668.541 261.704 668.679 262.4 668.679 263.202C668.679 264.01 668.541 264.711 668.266 265.305C667.991 265.895 667.61 266.352 667.122 266.677C666.635 266.998 666.073 267.159 665.437 267.159C664.947 267.159 664.554 267.078 664.259 266.915C663.964 266.75 663.737 266.562 663.578 266.354C663.419 266.142 663.296 265.966 663.21 265.827H663.071V267H661.937ZM663.09 263.182C663.09 263.759 663.175 264.267 663.344 264.708C663.513 265.146 663.76 265.489 664.085 265.737C664.41 265.982 664.807 266.105 665.278 266.105C665.768 266.105 666.178 265.976 666.506 265.717C666.837 265.455 667.086 265.104 667.252 264.663C667.421 264.219 667.505 263.725 667.505 263.182C667.505 262.645 667.422 262.161 667.257 261.73C667.094 261.296 666.847 260.953 666.516 260.701C666.188 260.446 665.775 260.318 665.278 260.318C664.801 260.318 664.4 260.439 664.075 260.681C663.75 260.92 663.505 261.254 663.339 261.685C663.173 262.113 663.09 262.612 663.09 263.182ZM673.675 267.159C672.939 267.159 672.304 266.997 671.771 266.672C671.241 266.344 670.831 265.886 670.543 265.3C670.258 264.71 670.115 264.024 670.115 263.241C670.115 262.459 670.258 261.77 670.543 261.173C670.831 260.573 671.232 260.106 671.746 259.771C672.263 259.433 672.866 259.264 673.556 259.264C673.953 259.264 674.346 259.33 674.734 259.463C675.122 259.596 675.475 259.811 675.793 260.109C676.111 260.404 676.365 260.795 676.554 261.283C676.742 261.77 676.837 262.37 676.837 263.082V263.58H670.951V262.565H675.644C675.644 262.134 675.558 261.75 675.385 261.412C675.216 261.074 674.974 260.807 674.659 260.612C674.348 260.416 673.98 260.318 673.556 260.318C673.088 260.318 672.684 260.434 672.343 260.666C672.005 260.895 671.744 261.193 671.562 261.561C671.38 261.929 671.289 262.323 671.289 262.744V263.42C671.289 263.997 671.388 264.486 671.587 264.887C671.789 265.285 672.069 265.588 672.427 265.797C672.785 266.002 673.201 266.105 673.675 266.105C673.983 266.105 674.262 266.062 674.51 265.976C674.762 265.886 674.979 265.754 675.161 265.578C675.344 265.399 675.485 265.177 675.584 264.912L676.718 265.23C676.598 265.615 676.398 265.953 676.116 266.244C675.834 266.533 675.486 266.758 675.072 266.92C674.658 267.08 674.192 267.159 673.675 267.159ZM679.795 256.818V267H678.622V256.818H679.795Z" fill="white"/>
<rect x="219.5" y="319.5" width="234" height="55" rx="7.5" stroke="#2F57BE"/>
<path d="M295.363 352V341.818H298.922C299.632 341.818 300.217 341.941 300.677 342.186C301.138 342.428 301.481 342.754 301.707 343.165C301.932 343.573 302.045 344.026 302.045 344.523C302.045 344.96 301.967 345.321 301.811 345.607C301.659 345.892 301.456 346.117 301.204 346.283C300.956 346.448 300.686 346.571 300.394 346.651V346.75C300.706 346.77 301.019 346.879 301.334 347.078C301.649 347.277 301.912 347.562 302.124 347.933C302.336 348.304 302.442 348.759 302.442 349.295C302.442 349.806 302.326 350.265 302.094 350.673C301.862 351.08 301.496 351.403 300.996 351.642C300.495 351.881 299.844 352 299.042 352H295.363ZM296.596 350.906H299.042C299.847 350.906 300.419 350.75 300.757 350.439C301.098 350.124 301.269 349.743 301.269 349.295C301.269 348.951 301.181 348.633 301.006 348.341C300.83 348.046 300.58 347.811 300.255 347.635C299.93 347.456 299.546 347.366 299.101 347.366H296.596V350.906ZM296.596 346.293H298.883C299.254 346.293 299.589 346.22 299.887 346.074C300.189 345.928 300.427 345.723 300.603 345.457C300.782 345.192 300.871 344.881 300.871 344.523C300.871 344.075 300.716 343.696 300.404 343.384C300.092 343.069 299.599 342.912 298.922 342.912H296.596V346.293ZM309.122 348.878V344.364H310.295V352H309.122V350.707H309.042C308.863 351.095 308.585 351.425 308.207 351.697C307.829 351.965 307.352 352.099 306.775 352.099C306.298 352.099 305.874 351.995 305.502 351.786C305.131 351.574 304.84 351.256 304.627 350.832C304.415 350.404 304.309 349.866 304.309 349.216V344.364H305.483V349.136C305.483 349.693 305.638 350.137 305.95 350.469C306.265 350.8 306.666 350.966 307.153 350.966C307.445 350.966 307.741 350.891 308.043 350.742C308.348 350.593 308.603 350.364 308.809 350.056C309.017 349.748 309.122 349.355 309.122 348.878ZM315.765 344.364V345.358H311.808V344.364H315.765ZM312.961 342.534H314.134V349.812C314.134 350.144 314.182 350.393 314.278 350.558C314.378 350.721 314.504 350.83 314.656 350.886C314.812 350.939 314.976 350.966 315.149 350.966C315.278 350.966 315.384 350.959 315.467 350.946C315.55 350.929 315.616 350.916 315.666 350.906L315.904 351.96C315.825 351.99 315.714 352.02 315.571 352.05C315.429 352.083 315.248 352.099 315.029 352.099C314.698 352.099 314.373 352.028 314.055 351.886C313.74 351.743 313.478 351.526 313.269 351.234C313.064 350.943 312.961 350.575 312.961 350.131V342.534ZM320.851 344.364V345.358H316.894V344.364H320.851ZM318.047 342.534H319.22V349.812C319.22 350.144 319.268 350.393 319.364 350.558C319.464 350.721 319.59 350.83 319.742 350.886C319.898 350.939 320.062 350.966 320.234 350.966C320.364 350.966 320.47 350.959 320.553 350.946C320.636 350.929 320.702 350.916 320.752 350.906L320.99 351.96C320.911 351.99 320.8 352.02 320.657 352.05C320.515 352.083 320.334 352.099 320.115 352.099C319.784 352.099 319.459 352.028 319.141 351.886C318.826 351.743 318.564 351.526 318.355 351.234C318.15 350.943 318.047 350.575 318.047 350.131V342.534ZM325.636 352.159C324.947 352.159 324.342 351.995 323.821 351.667C323.304 351.339 322.9 350.88 322.608 350.29C322.32 349.7 322.176 349.01 322.176 348.222C322.176 347.426 322.32 346.732 322.608 346.138C322.9 345.545 323.304 345.085 323.821 344.756C324.342 344.428 324.947 344.264 325.636 344.264C326.325 344.264 326.929 344.428 327.446 344.756C327.966 345.085 328.37 345.545 328.659 346.138C328.95 346.732 329.096 347.426 329.096 348.222C329.096 349.01 328.95 349.7 328.659 350.29C328.37 350.88 327.966 351.339 327.446 351.667C326.929 351.995 326.325 352.159 325.636 352.159ZM325.636 351.105C326.16 351.105 326.591 350.971 326.929 350.702C327.267 350.434 327.517 350.081 327.679 349.643C327.842 349.206 327.923 348.732 327.923 348.222C327.923 347.711 327.842 347.236 327.679 346.795C327.517 346.354 327.267 345.998 326.929 345.726C326.591 345.454 326.16 345.318 325.636 345.318C325.112 345.318 324.682 345.454 324.343 345.726C324.005 345.998 323.755 346.354 323.593 346.795C323.43 347.236 323.349 347.711 323.349 348.222C323.349 348.732 323.43 349.206 323.593 349.643C323.755 350.081 324.005 350.434 324.343 350.702C324.682 350.971 325.112 351.105 325.636 351.105ZM332.061 347.406V352H330.887V344.364H332.021V345.557H332.12C332.299 345.169 332.571 344.857 332.936 344.622C333.3 344.384 333.771 344.264 334.348 344.264C334.865 344.264 335.317 344.37 335.705 344.582C336.093 344.791 336.394 345.109 336.61 345.537C336.825 345.961 336.933 346.498 336.933 347.148V352H335.759V347.227C335.759 346.627 335.604 346.16 335.292 345.825C334.981 345.487 334.553 345.318 334.009 345.318C333.635 345.318 333.3 345.399 333.005 345.562C332.714 345.724 332.483 345.961 332.314 346.273C332.145 346.584 332.061 346.962 332.061 347.406ZM343.173 352V341.818H344.406V350.906H349.139V352H343.173ZM353.136 352.179C352.653 352.179 352.213 352.088 351.819 351.906C351.425 351.72 351.111 351.453 350.879 351.105C350.647 350.754 350.531 350.33 350.531 349.832C350.531 349.395 350.618 349.04 350.79 348.768C350.962 348.493 351.193 348.278 351.481 348.122C351.769 347.966 352.087 347.85 352.435 347.774C352.787 347.695 353.14 347.632 353.494 347.585C353.958 347.526 354.335 347.481 354.623 347.451C354.915 347.418 355.127 347.363 355.259 347.287C355.395 347.211 355.463 347.078 355.463 346.889V346.849C355.463 346.359 355.329 345.978 355.06 345.706C354.795 345.434 354.393 345.298 353.852 345.298C353.292 345.298 352.853 345.421 352.535 345.666C352.217 345.911 351.993 346.173 351.864 346.452L350.75 346.054C350.949 345.59 351.214 345.229 351.546 344.97C351.88 344.708 352.245 344.526 352.639 344.423C353.037 344.317 353.428 344.264 353.813 344.264C354.058 344.264 354.34 344.294 354.658 344.354C354.979 344.41 355.289 344.528 355.587 344.707C355.889 344.886 356.139 345.156 356.338 345.517C356.537 345.878 356.636 346.362 356.636 346.969V352H355.463V350.966H355.403C355.324 351.132 355.191 351.309 355.006 351.498C354.82 351.687 354.573 351.848 354.265 351.98C353.957 352.113 353.581 352.179 353.136 352.179ZM353.315 351.125C353.779 351.125 354.171 351.034 354.489 350.852C354.81 350.669 355.052 350.434 355.215 350.146C355.38 349.857 355.463 349.554 355.463 349.236V348.162C355.413 348.222 355.304 348.276 355.135 348.326C354.969 348.372 354.777 348.414 354.558 348.45C354.343 348.483 354.132 348.513 353.927 348.54C353.725 348.563 353.561 348.583 353.435 348.599C353.13 348.639 352.845 348.704 352.58 348.793C352.318 348.879 352.106 349.01 351.943 349.186C351.784 349.358 351.705 349.594 351.705 349.892C351.705 350.3 351.855 350.608 352.157 350.817C352.462 351.022 352.848 351.125 353.315 351.125ZM358.937 352V341.818H360.11V345.577H360.21C360.296 345.444 360.415 345.275 360.568 345.07C360.724 344.861 360.946 344.675 361.234 344.513C361.526 344.347 361.92 344.264 362.417 344.264C363.06 344.264 363.627 344.425 364.117 344.746C364.608 345.068 364.991 345.524 365.266 346.114C365.541 346.704 365.679 347.4 365.679 348.202C365.679 349.01 365.541 349.711 365.266 350.305C364.991 350.895 364.61 351.352 364.122 351.677C363.635 351.998 363.073 352.159 362.437 352.159C361.947 352.159 361.554 352.078 361.259 351.915C360.964 351.75 360.737 351.562 360.578 351.354C360.419 351.142 360.296 350.966 360.21 350.827H360.071V352H358.937ZM360.09 348.182C360.09 348.759 360.175 349.267 360.344 349.708C360.513 350.146 360.76 350.489 361.085 350.737C361.41 350.982 361.807 351.105 362.278 351.105C362.768 351.105 363.178 350.976 363.506 350.717C363.837 350.455 364.086 350.104 364.252 349.663C364.421 349.219 364.505 348.725 364.505 348.182C364.505 347.645 364.422 347.161 364.257 346.73C364.094 346.296 363.847 345.953 363.516 345.701C363.188 345.446 362.775 345.318 362.278 345.318C361.801 345.318 361.4 345.439 361.075 345.681C360.75 345.92 360.505 346.254 360.339 346.685C360.173 347.113 360.09 347.612 360.09 348.182ZM370.675 352.159C369.939 352.159 369.304 351.997 368.771 351.672C368.241 351.344 367.831 350.886 367.543 350.3C367.258 349.71 367.115 349.024 367.115 348.241C367.115 347.459 367.258 346.77 367.543 346.173C367.831 345.573 368.232 345.106 368.746 344.771C369.263 344.433 369.866 344.264 370.556 344.264C370.953 344.264 371.346 344.33 371.734 344.463C372.122 344.596 372.475 344.811 372.793 345.109C373.111 345.404 373.365 345.795 373.554 346.283C373.742 346.77 373.837 347.37 373.837 348.082V348.58H367.951V347.565H372.644C372.644 347.134 372.558 346.75 372.385 346.412C372.216 346.074 371.974 345.807 371.659 345.612C371.348 345.416 370.98 345.318 370.556 345.318C370.088 345.318 369.684 345.434 369.343 345.666C369.005 345.895 368.744 346.193 368.562 346.561C368.38 346.929 368.289 347.323 368.289 347.744V348.42C368.289 348.997 368.388 349.486 368.587 349.887C368.789 350.285 369.069 350.588 369.427 350.797C369.785 351.002 370.201 351.105 370.675 351.105C370.983 351.105 371.262 351.062 371.51 350.976C371.762 350.886 371.979 350.754 372.161 350.578C372.344 350.399 372.485 350.177 372.584 349.912L373.718 350.23C373.598 350.615 373.398 350.953 373.116 351.244C372.834 351.533 372.486 351.758 372.072 351.92C371.658 352.08 371.192 352.159 370.675 352.159ZM376.795 341.818V352H375.622V341.818H376.795Z" fill="#2F57BE"/>
<path d="M295.363 423V412.818H298.922C299.632 412.818 300.217 412.941 300.677 413.186C301.138 413.428 301.481 413.754 301.707 414.165C301.932 414.573 302.045 415.026 302.045 415.523C302.045 415.96 301.967 416.321 301.811 416.607C301.659 416.892 301.456 417.117 301.204 417.283C300.956 417.448 300.686 417.571 300.394 417.651V417.75C300.706 417.77 301.019 417.879 301.334 418.078C301.649 418.277 301.912 418.562 302.124 418.933C302.336 419.304 302.442 419.759 302.442 420.295C302.442 420.806 302.326 421.265 302.094 421.673C301.862 422.08 301.496 422.403 300.996 422.642C300.495 422.881 299.844 423 299.042 423H295.363ZM296.596 421.906H299.042C299.847 421.906 300.419 421.75 300.757 421.439C301.098 421.124 301.269 420.743 301.269 420.295C301.269 419.951 301.181 419.633 301.006 419.341C300.83 419.046 300.58 418.811 300.255 418.635C299.93 418.456 299.546 418.366 299.101 418.366H296.596V421.906ZM296.596 417.293H298.883C299.254 417.293 299.589 417.22 299.887 417.074C300.189 416.928 300.427 416.723 300.603 416.457C300.782 416.192 300.871 415.881 300.871 415.523C300.871 415.075 300.716 414.696 300.404 414.384C300.092 414.069 299.599 413.912 298.922 413.912H296.596V417.293ZM309.122 419.878V415.364H310.295V423H309.122V421.707H309.042C308.863 422.095 308.585 422.425 308.207 422.697C307.829 422.965 307.352 423.099 306.775 423.099C306.298 423.099 305.874 422.995 305.502 422.786C305.131 422.574 304.84 422.256 304.627 421.832C304.415 421.404 304.309 420.866 304.309 420.216V415.364H305.483V420.136C305.483 420.693 305.638 421.137 305.95 421.469C306.265 421.8 306.666 421.966 307.153 421.966C307.445 421.966 307.741 421.891 308.043 421.742C308.348 421.593 308.603 421.364 308.809 421.056C309.017 420.748 309.122 420.355 309.122 419.878ZM315.765 415.364V416.358H311.808V415.364H315.765ZM312.961 413.534H314.134V420.812C314.134 421.144 314.182 421.393 314.278 421.558C314.378 421.721 314.504 421.83 314.656 421.886C314.812 421.939 314.976 421.966 315.149 421.966C315.278 421.966 315.384 421.959 315.467 421.946C315.55 421.929 315.616 421.916 315.666 421.906L315.904 422.96C315.825 422.99 315.714 423.02 315.571 423.05C315.429 423.083 315.248 423.099 315.029 423.099C314.698 423.099 314.373 423.028 314.055 422.886C313.74 422.743 313.478 422.526 313.269 422.234C313.064 421.943 312.961 421.575 312.961 421.131V413.534ZM320.851 415.364V416.358H316.894V415.364H320.851ZM318.047 413.534H319.22V420.812C319.22 421.144 319.268 421.393 319.364 421.558C319.464 421.721 319.59 421.83 319.742 421.886C319.898 421.939 320.062 421.966 320.234 421.966C320.364 421.966 320.47 421.959 320.553 421.946C320.636 421.929 320.702 421.916 320.752 421.906L320.99 422.96C320.911 422.99 320.8 423.02 320.657 423.05C320.515 423.083 320.334 423.099 320.115 423.099C319.784 423.099 319.459 423.028 319.141 422.886C318.826 422.743 318.564 422.526 318.355 422.234C318.15 421.943 318.047 421.575 318.047 421.131V413.534ZM325.636 423.159C324.947 423.159 324.342 422.995 323.821 422.667C323.304 422.339 322.9 421.88 322.608 421.29C322.32 420.7 322.176 420.01 322.176 419.222C322.176 418.426 322.32 417.732 322.608 417.138C322.9 416.545 323.304 416.085 323.821 415.756C324.342 415.428 324.947 415.264 325.636 415.264C326.325 415.264 326.929 415.428 327.446 415.756C327.966 416.085 328.37 416.545 328.659 417.138C328.95 417.732 329.096 418.426 329.096 419.222C329.096 420.01 328.95 420.7 328.659 421.29C328.37 421.88 327.966 422.339 327.446 422.667C326.929 422.995 326.325 423.159 325.636 423.159ZM325.636 422.105C326.16 422.105 326.591 421.971 326.929 421.702C327.267 421.434 327.517 421.081 327.679 420.643C327.842 420.206 327.923 419.732 327.923 419.222C327.923 418.711 327.842 418.236 327.679 417.795C327.517 417.354 327.267 416.998 326.929 416.726C326.591 416.454 326.16 416.318 325.636 416.318C325.112 416.318 324.682 416.454 324.343 416.726C324.005 416.998 323.755 417.354 323.593 417.795C323.43 418.236 323.349 418.711 323.349 419.222C323.349 419.732 323.43 420.206 323.593 420.643C323.755 421.081 324.005 421.434 324.343 421.702C324.682 421.971 325.112 422.105 325.636 422.105ZM332.061 418.406V423H330.887V415.364H332.021V416.557H332.12C332.299 416.169 332.571 415.857 332.936 415.622C333.3 415.384 333.771 415.264 334.348 415.264C334.865 415.264 335.317 415.37 335.705 415.582C336.093 415.791 336.394 416.109 336.61 416.537C336.825 416.961 336.933 417.498 336.933 418.148V423H335.759V418.227C335.759 417.627 335.604 417.16 335.292 416.825C334.981 416.487 334.553 416.318 334.009 416.318C333.635 416.318 333.3 416.399 333.005 416.562C332.714 416.724 332.483 416.961 332.314 417.273C332.145 417.584 332.061 417.962 332.061 418.406ZM343.173 423V412.818H344.406V421.906H349.139V423H343.173ZM353.136 423.179C352.653 423.179 352.213 423.088 351.819 422.906C351.425 422.72 351.111 422.453 350.879 422.105C350.647 421.754 350.531 421.33 350.531 420.832C350.531 420.395 350.618 420.04 350.79 419.768C350.962 419.493 351.193 419.278 351.481 419.122C351.769 418.966 352.087 418.85 352.435 418.774C352.787 418.695 353.14 418.632 353.494 418.585C353.958 418.526 354.335 418.481 354.623 418.451C354.915 418.418 355.127 418.363 355.259 418.287C355.395 418.211 355.463 418.078 355.463 417.889V417.849C355.463 417.359 355.329 416.978 355.06 416.706C354.795 416.434 354.393 416.298 353.852 416.298C353.292 416.298 352.853 416.421 352.535 416.666C352.217 416.911 351.993 417.173 351.864 417.452L350.75 417.054C350.949 416.59 351.214 416.229 351.546 415.97C351.88 415.708 352.245 415.526 352.639 415.423C353.037 415.317 353.428 415.264 353.813 415.264C354.058 415.264 354.34 415.294 354.658 415.354C354.979 415.41 355.289 415.528 355.587 415.707C355.889 415.886 356.139 416.156 356.338 416.517C356.537 416.878 356.636 417.362 356.636 417.969V423H355.463V421.966H355.403C355.324 422.132 355.191 422.309 355.006 422.498C354.82 422.687 354.573 422.848 354.265 422.98C353.957 423.113 353.581 423.179 353.136 423.179ZM353.315 422.125C353.779 422.125 354.171 422.034 354.489 421.852C354.81 421.669 355.052 421.434 355.215 421.146C355.38 420.857 355.463 420.554 355.463 420.236V419.162C355.413 419.222 355.304 419.276 355.135 419.326C354.969 419.372 354.777 419.414 354.558 419.45C354.343 419.483 354.132 419.513 353.927 419.54C353.725 419.563 353.561 419.583 353.435 419.599C353.13 419.639 352.845 419.704 352.58 419.793C352.318 419.879 352.106 420.01 351.943 420.186C351.784 420.358 351.705 420.594 351.705 420.892C351.705 421.3 351.855 421.608 352.157 421.817C352.462 422.022 352.848 422.125 353.315 422.125ZM358.937 423V412.818H360.11V416.577H360.21C360.296 416.444 360.415 416.275 360.568 416.07C360.724 415.861 360.946 415.675 361.234 415.513C361.526 415.347 361.92 415.264 362.417 415.264C363.06 415.264 363.627 415.425 364.117 415.746C364.608 416.068 364.991 416.524 365.266 417.114C365.541 417.704 365.679 418.4 365.679 419.202C365.679 420.01 365.541 420.711 365.266 421.305C364.991 421.895 364.61 422.352 364.122 422.677C363.635 422.998 363.073 423.159 362.437 423.159C361.947 423.159 361.554 423.078 361.259 422.915C360.964 422.75 360.737 422.562 360.578 422.354C360.419 422.142 360.296 421.966 360.21 421.827H360.071V423H358.937ZM360.09 419.182C360.09 419.759 360.175 420.267 360.344 420.708C360.513 421.146 360.76 421.489 361.085 421.737C361.41 421.982 361.807 422.105 362.278 422.105C362.768 422.105 363.178 421.976 363.506 421.717C363.837 421.455 364.086 421.104 364.252 420.663C364.421 420.219 364.505 419.725 364.505 419.182C364.505 418.645 364.422 418.161 364.257 417.73C364.094 417.296 363.847 416.953 363.516 416.701C363.188 416.446 362.775 416.318 362.278 416.318C361.801 416.318 361.4 416.439 361.075 416.681C360.75 416.92 360.505 417.254 360.339 417.685C360.173 418.113 360.09 418.612 360.09 419.182ZM370.675 423.159C369.939 423.159 369.304 422.997 368.771 422.672C368.241 422.344 367.831 421.886 367.543 421.3C367.258 420.71 367.115 420.024 367.115 419.241C367.115 418.459 367.258 417.77 367.543 417.173C367.831 416.573 368.232 416.106 368.746 415.771C369.263 415.433 369.866 415.264 370.556 415.264C370.953 415.264 371.346 415.33 371.734 415.463C372.122 415.596 372.475 415.811 372.793 416.109C373.111 416.404 373.365 416.795 373.554 417.283C373.742 417.77 373.837 418.37 373.837 419.082V419.58H367.951V418.565H372.644C372.644 418.134 372.558 417.75 372.385 417.412C372.216 417.074 371.974 416.807 371.659 416.612C371.348 416.416 370.98 416.318 370.556 416.318C370.088 416.318 369.684 416.434 369.343 416.666C369.005 416.895 368.744 417.193 368.562 417.561C368.38 417.929 368.289 418.323 368.289 418.744V419.42C368.289 419.997 368.388 420.486 368.587 420.887C368.789 421.285 369.069 421.588 369.427 421.797C369.785 422.002 370.201 422.105 370.675 422.105C370.983 422.105 371.262 422.062 371.51 421.976C371.762 421.886 371.979 421.754 372.161 421.578C372.344 421.399 372.485 421.177 372.584 420.912L373.718 421.23C373.598 421.615 373.398 421.953 373.116 422.244C372.834 422.533 372.486 422.758 372.072 422.92C371.658 423.08 371.192 423.159 370.675 423.159ZM376.795 412.818V423H375.622V412.818H376.795ZM304.419 435.705C304.419 434.452 304.582 433.3 304.906 432.249C305.235 431.195 305.702 430.226 306.308 429.341H307.343C307.104 429.669 306.88 430.073 306.671 430.554C306.466 431.031 306.285 431.557 306.129 432.13C305.974 432.7 305.851 433.29 305.762 433.9C305.675 434.51 305.632 435.111 305.632 435.705C305.632 436.493 305.709 437.294 305.861 438.106C306.013 438.918 306.219 439.672 306.477 440.368C306.736 441.064 307.024 441.631 307.343 442.068H306.308C305.702 441.183 305.235 440.215 304.906 439.165C304.582 438.111 304.419 436.957 304.419 435.705ZM313.278 436.29V437.27H321.454V436.29H313.278ZM316.848 434.176V441.134H317.884V434.176H316.848ZM313.992 430.018V430.942H319.158V430.018H313.992ZM316.246 428.254C316.134 431.166 315.812 433.014 313.418 433.98C313.642 434.148 313.908 434.512 314.02 434.736C316.694 433.616 317.128 431.516 317.282 428.254H316.246ZM318.64 430.018V433.028C318.64 433.798 318.71 434.022 318.906 434.19C319.088 434.372 319.396 434.428 319.676 434.428C319.816 434.428 320.18 434.428 320.334 434.428C320.558 434.428 320.838 434.4 320.992 434.302C321.16 434.218 321.3 434.05 321.37 433.84C321.454 433.616 321.496 432.972 321.51 432.412C321.272 432.342 320.964 432.202 320.782 432.034C320.782 432.594 320.768 433.028 320.726 433.224C320.712 433.406 320.642 433.504 320.586 433.546C320.53 433.588 320.418 433.602 320.292 433.602C320.18 433.602 319.998 433.602 319.914 433.602C319.802 433.602 319.732 433.588 319.69 433.546C319.634 433.49 319.62 433.336 319.62 433.07V430.018H318.64ZM308.714 431.25V432.244H313.642V431.25H308.714ZM310.828 428.24V441.106H311.822V428.24H310.828ZM310.772 431.866C310.352 433.882 309.372 436.304 308.378 437.564C308.56 437.802 308.812 438.222 308.924 438.502C309.974 437.088 310.982 434.344 311.444 432.104L310.772 431.866ZM311.752 433.266L311.248 433.728C311.654 434.246 312.69 435.646 313.04 436.248L313.656 435.436C313.39 435.072 312.116 433.602 311.752 433.266ZM334.502 435.254C333.942 435.884 332.962 436.794 332.262 437.326L332.906 437.83C333.634 437.34 334.586 436.556 335.342 435.87L334.502 435.254ZM331.03 428.226C330.862 428.786 330.526 429.57 330.26 430.088L331.142 430.312C331.464 429.85 331.856 429.122 332.192 428.45L331.03 428.226ZM329.126 432.566H333.844V433.784H329.126V432.566ZM329.126 430.536H333.844V431.754H329.126V430.536ZM328.16 429.696V434.638H334.852V429.696H328.16ZM330.988 434.176V440C330.988 440.154 330.946 440.196 330.764 440.196C330.596 440.21 330.036 440.21 329.406 440.196C329.532 440.462 329.658 440.854 329.686 441.12C330.568 441.12 331.128 441.106 331.492 440.952C331.842 440.798 331.94 440.532 331.94 440V434.176H330.988ZM327.628 435.856V436.738H329.966V435.856H327.628ZM329.728 435.856V436.024C329.322 437.858 328.314 439.146 326.998 439.832C327.208 439.986 327.53 440.336 327.656 440.56C329.056 439.762 330.162 438.292 330.666 436.066L330.092 435.828L329.91 435.856H329.728ZM331.814 434.246L331.24 434.96C331.618 436.78 332.626 439.314 335.02 440.546C335.16 440.28 335.468 439.888 335.664 439.692C333.214 438.628 332.206 436.22 331.814 434.246ZM324.744 428.254C324.38 429.178 323.722 430.55 323.218 431.362L323.932 431.67C324.478 430.9 325.136 429.64 325.668 428.604L324.744 428.254ZM326.312 429.85C325.542 431.32 324.226 433.406 323.176 434.652L323.82 435.016C324.87 433.798 326.228 431.81 327.194 430.256L326.312 429.85ZM322.504 431.166C323.246 431.88 324.086 432.874 324.436 433.546L325.038 432.762C324.674 432.118 323.82 431.18 323.064 430.494L322.504 431.166ZM325.766 433.056C326.326 433.98 326.872 435.226 327.054 436.01L327.88 435.632C327.684 434.862 327.11 433.658 326.522 432.734L325.766 433.056ZM322.392 434.442L322.504 435.38C323.778 435.296 325.458 435.198 327.124 435.086V434.204C325.36 434.302 323.61 434.386 322.392 434.442ZM326.13 436.444C326.466 437.242 326.76 438.292 326.83 438.964L327.642 438.712C327.558 438.04 327.264 437.004 326.9 436.206L326.13 436.444ZM323.232 436.248C323.078 437.466 322.812 438.726 322.364 439.58C322.574 439.678 322.994 439.86 323.162 439.972C323.61 439.076 323.932 437.732 324.114 436.402L323.232 436.248ZM324.716 434.848V441.12H325.64V434.848H324.716ZM337.344 431.18L337.428 432.23C337.946 432.244 338.548 432.258 339.066 432.258C340.774 432.272 342.608 431.964 343.98 431.586L343.952 430.55C342.342 431.082 340.578 431.264 339.066 431.264C338.464 431.264 337.862 431.236 337.344 431.18ZM342.314 428.898L341.082 428.772C341.04 429.752 340.732 430.984 340.424 431.866C339.85 433.518 338.548 436.01 337.302 437.466L338.38 438.026C339.542 436.458 340.83 433.91 341.502 431.894C341.838 430.9 342.132 429.584 342.314 428.898ZM345.618 433.224H344.512C344.568 434.764 344.722 437.27 344.722 438.334C344.722 439.09 344.33 439.706 343.168 439.706C342.076 439.706 341.53 439.258 341.53 438.614C341.53 437.97 342.23 437.494 343.266 437.494C345.324 437.494 346.934 438.74 348.012 439.72L348.6 438.768C347.452 437.774 345.646 436.598 343.294 436.598C341.726 436.598 340.508 437.41 340.508 438.698C340.508 440.098 341.754 440.714 343.294 440.714C345.03 440.714 345.744 439.804 345.744 438.684C345.744 437.76 345.618 435.632 345.59 434.722C345.576 434.218 345.576 433.798 345.618 433.224ZM348.418 433.588L349.048 432.664C348.376 432.16 346.794 431.25 345.772 430.816L345.212 431.656C346.136 432.09 347.662 432.944 348.418 433.588ZM354.76 429.094H353.332C353.416 429.5 353.458 429.99 353.458 430.508C353.458 431.978 353.318 435.52 353.318 437.592C353.318 439.888 354.704 440.714 356.72 440.714C359.786 440.714 361.606 438.964 362.558 437.634L361.774 436.682C360.766 438.138 359.31 439.566 356.748 439.566C355.418 439.566 354.452 439.034 354.452 437.494C354.452 435.408 354.564 432.09 354.62 430.508C354.648 430.046 354.69 429.556 354.76 429.094ZM367.58 435.705C367.58 436.957 367.415 438.111 367.087 439.165C366.763 440.215 366.297 441.183 365.69 442.068H364.656C364.895 441.74 365.117 441.336 365.322 440.855C365.531 440.378 365.714 439.854 365.869 439.284C366.025 438.711 366.146 438.119 366.232 437.509C366.322 436.896 366.366 436.295 366.366 435.705C366.366 434.916 366.29 434.115 366.138 433.303C365.985 432.491 365.78 431.737 365.521 431.041C365.263 430.345 364.974 429.778 364.656 429.341H365.69C366.297 430.226 366.763 431.195 367.087 432.249C367.415 433.3 367.58 434.452 367.58 435.705Z" fill="black"/>
<path d="M79.0194 27.598V28.494H90.4854V27.598H79.0194ZM79.4674 37.86V38.742H90.0654V37.86H79.4674ZM81.7774 29.418V30.216H87.6714V29.418H81.7774ZM81.7774 31.182V31.98H87.6714V31.182H81.7774ZM78.3614 32.988V33.87H91.0874V32.988H78.3614ZM81.3014 35.494V36.362H88.1754V35.494H81.3014ZM81.1474 26.254V33.478H82.1974V26.254H81.1474ZM87.3074 26.254V33.478H88.3574V26.254H87.3074ZM84.1574 34.318V38.35H85.2354V34.318H84.1574ZM81.8894 33.226C81.1334 34.458 79.6354 35.662 78.2214 36.222C78.4594 36.418 78.7534 36.782 78.9074 37.02C80.3774 36.334 81.9174 35.004 82.7714 33.562L81.8894 33.226ZM87.6154 33.226L86.7894 33.548C87.6014 34.92 89.0854 36.222 90.5694 36.852C90.7234 36.6 91.0314 36.236 91.2694 36.04C89.8134 35.522 88.3574 34.416 87.6154 33.226ZM92.6274 29.194V30.258H104.849V29.194H92.6274ZM95.4274 35.438V36.502H101.951V35.438H95.4274ZM98.1574 26.254V39.12H99.2634V26.254H98.1574ZM97.8354 29.544C96.7154 32.232 94.4894 34.836 92.1514 36.054C92.3894 36.264 92.7394 36.656 92.9074 36.922C95.3294 35.508 97.5274 32.834 98.7734 29.866L97.8354 29.544ZM99.6134 29.586L98.6754 29.908C99.9074 32.848 102.063 35.522 104.541 36.894C104.709 36.6 105.073 36.18 105.339 35.956C102.917 34.794 100.719 32.246 99.6134 29.586ZM107.565 28.494V29.432H110.841V36.698H107.565V37.65H111.821V28.494H107.565ZM106.935 28.494V38.77H107.915V28.494H106.935ZM107.495 32.386V33.324H111.359V32.386H107.495ZM109.077 26.212C108.965 26.94 108.699 28.004 108.461 28.676L109.301 28.886C109.581 28.256 109.931 27.29 110.211 26.422L109.077 26.212ZM113.809 28.452V29.432H118.107V28.452H113.809ZM117.743 28.452V28.676C117.547 34.85 117.323 37.174 116.861 37.678C116.707 37.86 116.539 37.902 116.259 37.902C115.937 37.902 115.097 37.888 114.187 37.818C114.383 38.098 114.509 38.532 114.537 38.84C115.321 38.882 116.147 38.91 116.623 38.854C117.113 38.812 117.435 38.686 117.743 38.28C118.303 37.594 118.499 35.424 118.723 28.998C118.723 28.844 118.723 28.452 118.723 28.452H117.743ZM114.103 26.184C113.655 28.13 112.885 30.062 111.933 31.294C112.185 31.434 112.619 31.728 112.801 31.896C113.767 30.566 114.593 28.508 115.111 26.422L114.103 26.184ZM113.459 32.092C114.229 33.114 115.167 34.5 115.587 35.354L116.483 34.794C116.035 33.968 115.069 32.61 114.271 31.616L113.459 32.092ZM126.101 28.55L126.115 29.684C127.641 29.852 130.357 29.852 131.855 29.684V28.55C130.469 28.76 127.627 28.816 126.101 28.55ZM126.647 34.262L125.639 34.164C125.485 34.836 125.415 35.34 125.415 35.802C125.415 37.118 126.465 37.902 128.803 37.902C130.259 37.902 131.435 37.79 132.303 37.608L132.275 36.432C131.155 36.698 130.063 36.81 128.817 36.81C126.899 36.81 126.451 36.18 126.451 35.536C126.451 35.158 126.521 34.766 126.647 34.262ZM123.441 27.472L122.195 27.374C122.181 27.682 122.139 28.032 122.097 28.354C121.929 29.516 121.467 31.91 121.467 33.968C121.467 35.872 121.705 37.482 121.985 38.476L122.979 38.406C122.965 38.252 122.951 38.056 122.937 37.916C122.937 37.748 122.965 37.482 123.007 37.286C123.133 36.614 123.651 35.144 124.001 34.15L123.413 33.688C123.175 34.262 122.853 35.102 122.615 35.732C122.531 35.046 122.489 34.458 122.489 33.786C122.489 32.204 122.923 29.712 123.189 28.41C123.245 28.158 123.357 27.71 123.441 27.472ZM134.964 27.8182H136.436L139.896 36.2699H140.016L143.476 27.8182H144.947V38H143.794V30.2642H143.695L140.513 38H139.399L136.217 30.2642H136.118V38H134.964V27.8182ZM154.101 27.8182H155.334V34.5597C155.334 35.2557 155.17 35.8771 154.842 36.424C154.517 36.9676 154.058 37.3968 153.465 37.7116C152.872 38.0232 152.176 38.179 151.377 38.179C150.578 38.179 149.882 38.0232 149.289 37.7116C148.696 37.3968 148.235 36.9676 147.907 36.424C147.582 35.8771 147.419 35.2557 147.419 34.5597V27.8182H148.652V34.4602C148.652 34.9574 148.762 35.3999 148.981 35.7876C149.199 36.1721 149.511 36.4754 149.915 36.6974C150.323 36.9162 150.81 37.0256 151.377 37.0256C151.944 37.0256 152.431 36.9162 152.839 36.6974C153.246 36.4754 153.558 36.1721 153.773 35.7876C153.992 35.3999 154.101 34.9574 154.101 34.4602V27.8182ZM159.029 27.8182V38H157.796V27.8182H159.029ZM79.842 44.78V45.942C80.206 45.914 80.654 45.886 81.13 45.886C81.914 45.886 85.176 45.886 85.96 45.886C86.352 45.886 86.842 45.914 87.262 45.942V44.78C86.856 44.822 86.352 44.85 85.96 44.85C85.176 44.85 81.914 44.85 81.102 44.85C80.654 44.85 80.234 44.822 79.842 44.78ZM78.176 48.294V49.456C78.554 49.428 78.974 49.414 79.394 49.414C80.206 49.414 87.808 49.414 88.55 49.414C88.9 49.414 89.348 49.428 89.656 49.456V48.294C89.306 48.336 88.844 48.364 88.55 48.364C87.808 48.364 80.206 48.364 79.394 48.364C78.96 48.364 78.554 48.336 78.176 48.294ZM84.77 48.854L83.594 48.868C83.58 50.408 83.482 51.78 82.782 52.886C82.222 53.782 81.214 54.58 80.136 55.042L81.172 55.798C82.362 55.196 83.412 54.188 83.93 53.25C84.546 52.074 84.77 50.618 84.77 48.854ZM87.99 43.632L87.248 43.954C87.626 44.486 88.102 45.326 88.368 45.886L89.124 45.55C88.844 44.99 88.34 44.136 87.99 43.632ZM89.516 43.072L88.788 43.394C89.18 43.912 89.642 44.71 89.95 45.312L90.692 44.976C90.426 44.458 89.894 43.59 89.516 43.072ZM103.054 45.704L102.2 45.158C101.934 45.214 101.654 45.228 101.444 45.228C100.814 45.228 95.228 45.228 94.43 45.228C93.968 45.228 93.408 45.186 93.03 45.13V46.376C93.38 46.362 93.856 46.334 94.416 46.334C95.228 46.334 100.772 46.334 101.584 46.334C101.388 47.678 100.744 49.624 99.75 50.898C98.574 52.396 97.006 53.586 94.29 54.258L95.242 55.308C97.804 54.51 99.47 53.208 100.744 51.57C101.864 50.128 102.536 47.874 102.844 46.404C102.9 46.124 102.956 45.9 103.054 45.704ZM114.114 46.446H112.924C112.98 46.754 113.008 47.118 113.008 47.398C113.064 48.63 113.134 52.83 113.134 54.482C113.134 54.748 113.008 54.902 112.742 54.902C112.336 54.902 111.608 54.846 111.034 54.762L111.104 55.798C111.65 55.826 112.574 55.868 113.12 55.868C113.736 55.868 114.184 55.518 114.184 54.916C114.156 52.886 114.086 48.63 114.058 47.398C114.058 47.076 114.058 46.74 114.114 46.446ZM107.8 48.462V49.582C108.136 49.554 108.5 49.54 108.864 49.54C109.368 49.54 115.626 49.54 116.13 49.54C116.396 49.54 116.788 49.554 117.026 49.568V48.462C116.83 48.504 116.382 48.532 116.088 48.532C115.514 48.532 109.438 48.532 108.85 48.532C108.514 48.532 108.136 48.518 107.8 48.462ZM107.436 53.824L108.206 54.678C110.348 53.558 112.644 51.444 113.386 50.072L113.372 49.232L112.798 49.218C111.986 50.688 109.69 52.746 107.436 53.824ZM126.322 54.706L127.064 55.322C127.176 55.252 127.316 55.126 127.554 55.014C129.178 54.202 131.11 52.774 132.328 51.136L131.656 50.17C130.592 51.752 128.87 53.026 127.568 53.614C127.568 53.194 127.568 46.418 127.568 45.55C127.568 45.018 127.624 44.612 127.638 44.5H126.35C126.35 44.612 126.42 45.004 126.42 45.536C126.42 46.418 126.42 53.278 126.42 53.922C126.42 54.202 126.378 54.496 126.322 54.706ZM119.91 54.65L120.974 55.35C122.15 54.37 123.046 53.012 123.466 51.514C123.844 50.114 123.886 47.104 123.886 45.55C123.886 45.144 123.942 44.71 123.956 44.556H122.668C122.738 44.85 122.766 45.158 122.766 45.564C122.766 47.132 122.766 49.918 122.346 51.206C121.926 52.564 121.1 53.81 119.91 54.65ZM137.704 53.768C137.704 54.286 137.69 54.986 137.62 55.434H138.978C138.922 54.972 138.894 54.216 138.894 53.768C138.894 53.11 138.88 47.804 138.88 45.634C138.88 45.2 138.922 44.598 138.978 44.164H137.606C137.676 44.612 137.704 45.228 137.704 45.634C137.704 46.796 137.704 52.984 137.704 53.768ZM138.628 47.846V49.078C140.154 49.554 142.772 50.548 144.368 51.402L144.858 50.212C143.304 49.456 140.476 48.378 138.628 47.846ZM154.882 45.452L153.72 45.424C153.58 46.88 153.286 48.462 152.88 49.792C152.166 52.158 151.41 53.11 150.752 53.11C150.122 53.11 149.324 52.326 149.324 50.562C149.324 48.504 151.242 45.97 154.322 45.97C157.01 45.97 158.564 47.818 158.564 50.058C158.564 52.48 156.8 53.824 155.008 54.23C154.672 54.3 154.252 54.356 153.804 54.398L154.448 55.434C157.78 55 159.712 53.04 159.712 50.114C159.712 47.272 157.626 44.962 154.35 44.962C150.92 44.962 148.218 47.608 148.218 50.646C148.218 52.97 149.464 54.398 150.724 54.398C152.012 54.398 153.132 52.914 153.986 50.044C154.42 48.546 154.7 46.908 154.882 45.452ZM71.4 61.08V73.134H72.422V62.074H75.6V61.08H71.4ZM63.938 61.794V62.732H70.63V61.794H63.938ZM63.574 65.672V66.638H70.812V65.672H63.574ZM66.752 60.296V62.368H67.774V60.296H66.752ZM64.806 63.222C65.1 63.936 65.338 64.888 65.408 65.504L66.346 65.28C66.262 64.664 65.996 63.726 65.688 63.026L64.806 63.222ZM68.824 62.928C68.656 63.642 68.32 64.678 68.04 65.322L68.88 65.546C69.188 64.93 69.524 63.992 69.832 63.166L68.824 62.928ZM64.89 71.384V72.322H69.496V71.384H64.89ZM64.512 67.856V73.134H65.492V68.794H69.02V73.064H70.028V67.856H64.512ZM75.32 61.08V61.416C74.9 62.522 74.144 64.454 73.43 65.896C74.844 67.128 75.25 68.178 75.264 69.06C75.264 69.578 75.166 69.984 74.858 70.166C74.69 70.264 74.494 70.32 74.256 70.334C73.976 70.348 73.57 70.334 73.164 70.306C73.346 70.6 73.444 71.048 73.458 71.342C73.864 71.356 74.326 71.37 74.676 71.328C75.04 71.272 75.348 71.174 75.6 71.02C76.09 70.684 76.286 70.026 76.286 69.172C76.272 68.164 75.936 67.058 74.522 65.756C75.166 64.468 75.894 62.844 76.468 61.528L75.698 61.038L75.53 61.08H75.32ZM81.214 61.85H86.814V64.51H81.214V61.85ZM80.192 60.842V65.518H87.878V60.842H80.192ZM78.162 67.002V73.12H79.156V68.01H82.096V73.008H83.146V67.002H78.162ZM84.672 67.002V73.12H85.68V68.01H88.886V73.036H89.936V67.002H84.672ZM78.61 71.356V72.364H82.516V71.356H78.61ZM85.19 71.356V72.364H89.348V71.356H85.19ZM97.44 60.94L96.292 60.842C96.25 61.5 96.054 62.34 95.746 63.11C95.27 64.3 94.332 65.924 92.316 67.856L93.282 68.57C93.744 67.996 94.136 67.492 94.542 67.1C95.186 66.526 96.068 66.078 96.964 66.078C97.692 66.078 98.252 66.456 98.266 67.268C98.28 67.996 98.266 69.438 98.21 70.18H99.288C99.274 69.312 99.246 67.702 99.246 66.974C99.246 65.84 98.406 65.196 97.328 65.196C96.712 65.196 95.914 65.392 95.368 65.714C95.928 64.986 96.446 64.048 96.796 63.194C97.16 62.256 97.314 61.486 97.44 60.94ZM92.638 62.452V63.502C93.422 63.558 94.346 63.586 94.948 63.586C96.726 63.586 99.33 63.46 101.29 63.166V62.13C99.316 62.48 96.894 62.592 95.004 62.592C94.36 62.592 93.394 62.55 92.638 62.452ZM103.334 65.826L102.886 64.79C102.494 64.986 102.144 65.14 101.724 65.336C100.8 65.77 99.666 66.204 98.336 66.89C96.67 67.744 94.934 68.794 94.934 70.502C94.934 72.196 96.544 72.63 98.532 72.63C99.75 72.63 101.304 72.518 102.368 72.392L102.41 71.258C101.178 71.482 99.666 71.608 98.574 71.608C97.132 71.608 96.054 71.44 96.054 70.348C96.054 69.382 97.034 68.626 98.42 67.898C99.778 67.198 101.108 66.666 102.102 66.274C102.48 66.134 102.984 65.938 103.334 65.826ZM113.274 65.28V66.288H117.488V65.28H113.274ZM112.798 65.28V71.356C112.798 72.658 113.19 72.98 114.478 72.98C114.758 72.98 116.536 72.98 116.83 72.98C118.118 72.98 118.412 72.336 118.552 70.054C118.258 69.984 117.81 69.802 117.572 69.606C117.502 71.622 117.39 71.986 116.774 71.986C116.368 71.986 114.884 71.986 114.59 71.986C113.946 71.986 113.834 71.888 113.834 71.356V65.28H112.798ZM112.742 60.884V61.892H116.998V67.24H118.02V60.884H112.742ZM106.134 63.362V73.064H106.988V64.258H110.88V72.882H111.748V63.362H106.134ZM106.568 69.004V69.788H111.286V69.004H106.568ZM106.568 71.258V72.112H111.286V71.258H106.568ZM105.798 60.786V61.738H112.056V60.786H105.798ZM107.814 61.052V64.006H108.57V61.052H107.814ZM109.382 61.052V64.006H110.152V61.052H109.382ZM107.954 63.992V65.364C107.954 66.12 107.814 67.044 106.988 67.758C107.128 67.828 107.366 68.038 107.464 68.164C108.332 67.366 108.542 66.246 108.542 65.378V63.992H107.954ZM109.312 63.992V66.904C109.312 67.59 109.48 67.716 110.04 67.716C110.152 67.716 110.628 67.716 110.726 67.716C111.118 67.716 111.314 67.59 111.384 67.296C111.202 67.24 110.964 67.17 110.824 67.058C110.81 67.1 110.768 67.1 110.614 67.1C110.53 67.1 110.166 67.1 110.096 67.1C109.942 67.1 109.914 67.072 109.914 66.904V63.992H109.312ZM128.086 61.598H130.438V62.858H128.086V61.598ZM124.81 61.598H127.12V62.858H124.81V61.598ZM121.604 61.598H123.844V62.858H121.604V61.598ZM120.596 60.842V63.628H131.488V60.842H120.596ZM119.952 64.398V65.21H132.062V64.398H119.952ZM121.17 71.692V72.546H132.412V71.692H121.17ZM120.722 66.246V73.134H121.786V66.246H120.722ZM124.18 68.08H129.878V68.85H124.18V68.08ZM124.18 69.48H129.878V70.278H124.18V69.48ZM124.18 66.694H129.878V67.45H124.18V66.694ZM123.2 66.036V70.922H130.9V66.036H123.2ZM125.678 63.404C125.58 64.37 125.398 65.588 125.23 66.372H126.252C126.406 65.63 126.602 64.454 126.728 63.488L125.678 63.404ZM141.778 60.912H140.49C140.518 61.038 140.56 61.43 140.588 61.808C140.63 62.578 140.644 65.364 140.644 65.98L141.708 66.526C141.694 65.406 141.666 62.704 141.708 61.794C141.708 61.626 141.75 61.08 141.778 60.912ZM134.33 62.872L134.358 63.95C136.472 63.796 139.468 63.698 141.876 63.698C143.934 63.698 145.194 63.726 145.978 63.768L145.992 62.732C145.334 62.718 143.598 62.718 141.89 62.718C139.734 62.718 136.234 62.844 134.33 62.872ZM141.68 66.932L140.91 66.54C141.134 68.038 140.574 68.766 139.706 68.766C138.936 68.766 138.278 68.262 138.278 67.38C138.278 66.47 138.964 65.896 139.706 65.896C140.462 65.896 141.078 66.428 141.078 67.688C141.078 69.998 139.594 71.244 137.046 71.846L137.984 72.756C141.232 71.79 142.156 69.69 142.156 67.786C142.156 66.176 141.33 64.972 139.706 64.972C138.376 64.972 137.228 66.008 137.228 67.394C137.228 68.92 138.362 69.746 139.538 69.746C140.812 69.746 141.68 68.808 141.68 66.932ZM150.332 61.696L150.36 62.844C150.668 62.802 150.976 62.788 151.298 62.76C152.026 62.718 154.826 62.606 155.568 62.564C154.868 63.194 153.104 64.664 152.32 65.308C151.522 65.994 149.716 67.506 148.554 68.458L149.366 69.27C151.13 67.464 152.39 66.484 154.714 66.484C156.548 66.484 157.864 67.506 157.864 68.892C157.864 70.642 156.366 71.622 153.986 71.622C152.88 71.622 152.11 71.216 152.11 70.53C152.11 70.04 152.6 69.648 153.244 69.648C154.364 69.648 155.05 70.502 155.134 71.692L156.142 71.524C156.044 70.11 155.106 68.794 153.244 68.794C151.956 68.794 151.088 69.662 151.088 70.614C151.088 71.79 152.25 72.616 154.154 72.616C157.122 72.616 158.984 71.146 158.984 68.892C158.984 67.002 157.318 65.616 154.994 65.616C154.364 65.616 153.692 65.686 153.048 65.896C154.14 65 156.044 63.362 156.73 62.83C156.996 62.62 157.276 62.438 157.528 62.27L156.884 61.444C156.73 61.5 156.534 61.528 156.114 61.57C155.372 61.64 152.054 61.738 151.312 61.738C151.032 61.738 150.64 61.724 150.332 61.696ZM167.538 68.626H168.448L168.728 63.194L168.77 61.528H167.216L167.258 63.194L167.538 68.626ZM168 72.07C168.49 72.07 168.896 71.72 168.896 71.16C168.896 70.6 168.49 70.222 168 70.222C167.496 70.222 167.09 70.6 167.09 71.16C167.09 71.72 167.496 72.07 168 72.07Z" fill="black"/>
</svg>
