<svg width="1440" height="1024" viewBox="0 0 1440 1024" fill="none" xmlns="http://www.w3.org/2000/svg">
<g clip-path="url(#clip0_21_207)">
<rect width="1440" height="1024" fill="white"/>
<rect x="420" y="328" width="600" height="275" fill="#D9D9D9"/>
<rect x="644.5" y="479.5" width="298" height="57" rx="9.5" fill="white" stroke="#2F57BE"/>
<path d="M703.398 501.968V502.948H708.214V501.968H703.398ZM703.566 505.93V506.91H708.074V505.93H703.566ZM703.132 510.914L703.412 511.936C704.784 511.516 706.66 510.97 708.424 510.438L708.284 509.5C706.394 510.046 704.434 510.592 703.132 510.914ZM709.838 504.992H714.43V506.406H709.838V504.992ZM709.838 507.26H714.43V508.674H709.838V507.26ZM709.838 502.752H714.43V504.152H709.838V502.752ZM708.858 501.856V509.584H715.452V501.856H708.858ZM712.526 509.15V512.72C712.526 513.728 712.764 514.036 713.786 514.036C713.982 514.036 714.934 514.036 715.144 514.036C715.998 514.036 716.264 513.588 716.348 511.852C716.082 511.796 715.662 511.628 715.452 511.46C715.41 512.902 715.354 513.112 715.032 513.112C714.822 513.112 714.094 513.112 713.94 513.112C713.604 513.112 713.534 513.056 713.534 512.706V509.15H712.526ZM710.146 509.36C709.922 511.306 709.348 512.65 706.772 513.35C706.982 513.546 707.262 513.952 707.374 514.218C710.202 513.336 710.916 511.726 711.168 509.36H710.146ZM705.344 502.36V510.774L706.352 510.606V502.36H705.344ZM717.58 503.41V504.432H729.844V503.41H717.58ZM721.92 507.848V508.828H729.298V507.848H721.92ZM721.374 512.804V513.798H729.844V512.804H721.374ZM725.084 505.146V513.336H726.134V505.146H725.084ZM722.186 501.24C721.402 504.124 719.764 507.232 717.244 509.01C717.412 509.248 717.678 509.696 717.79 509.976C720.576 507.974 722.284 504.712 723.264 501.506L722.186 501.24ZM719.414 507.008V514.078H720.464V507.008H719.414ZM738.594 503.452L737.432 503.424C737.292 504.88 736.998 506.462 736.592 507.792C735.878 510.158 735.122 511.11 734.464 511.11C733.834 511.11 733.036 510.326 733.036 508.562C733.036 506.504 734.954 503.97 738.034 503.97C740.722 503.97 742.276 505.818 742.276 508.058C742.276 510.48 740.512 511.824 738.72 512.23C738.384 512.3 737.964 512.356 737.516 512.398L738.16 513.434C741.492 513 743.424 511.04 743.424 508.114C743.424 505.272 741.338 502.962 738.062 502.962C734.632 502.962 731.93 505.608 731.93 508.646C731.93 510.97 733.176 512.398 734.436 512.398C735.724 512.398 736.844 510.914 737.698 508.044C738.132 506.546 738.412 504.908 738.594 503.452ZM747.204 503.886V505.146C747.624 505.132 748.1 505.118 748.576 505.118C749.262 505.118 753.882 505.118 754.582 505.118C755.044 505.118 755.576 505.132 755.954 505.146V503.886C755.576 503.928 755.086 503.956 754.582 503.956C753.868 503.956 749.458 503.956 748.576 503.956C748.114 503.956 747.652 503.928 747.204 503.886ZM746 510.83V512.174C746.462 512.132 746.952 512.104 747.47 512.104C748.268 512.104 755.044 512.104 755.856 512.104C756.22 512.104 756.71 512.132 757.13 512.174V510.83C756.724 510.872 756.262 510.9 755.856 510.9C755.044 510.9 748.268 510.9 747.47 510.9C746.952 510.9 746.476 510.858 746 510.83ZM765.474 504.95L764.438 505.3C764.732 505.916 765.376 507.694 765.53 508.338L766.566 507.96C766.398 507.358 765.712 505.51 765.474 504.95ZM770.542 505.734L769.338 505.342C769.114 507.134 768.4 508.926 767.406 510.144C766.258 511.572 764.466 512.636 762.856 513.112L763.78 514.05C765.334 513.462 767.042 512.37 768.344 510.732C769.338 509.472 769.954 507.96 770.318 506.42C770.374 506.238 770.444 506.014 770.542 505.734ZM762.212 505.65L761.176 506.042C761.456 506.532 762.212 508.478 762.436 509.206L763.486 508.814C763.234 508.072 762.492 506.238 762.212 505.65ZM784.906 504.25L783.982 503.69C783.758 503.774 783.436 503.816 783.058 503.816C782.624 503.816 779.166 503.816 778.606 503.816L778.158 504.824H783.338C783.058 506.098 782.19 507.918 781.112 509.192C779.824 510.69 778.088 511.95 775.512 512.706L776.534 513.63C779.152 512.65 780.832 511.376 782.106 509.822C783.352 508.296 784.206 506.406 784.584 504.992C784.654 504.768 784.794 504.446 784.906 504.25ZM780.216 502.136L778.928 501.702C778.844 502.066 778.634 502.57 778.494 502.822C777.878 504.068 776.506 506.112 774.084 507.554L775.064 508.268C777.318 506.784 778.774 504.782 779.6 503.228C779.74 502.976 779.992 502.5 780.216 502.136ZM794.44 501.8H793.166C793.222 502.108 793.236 502.626 793.236 503.018C793.236 503.424 793.236 504.124 793.236 504.404H794.356C794.356 504.124 794.356 503.396 794.356 503.018C794.356 502.64 794.384 502.094 794.44 501.8ZM798.29 504.544L797.548 503.83C797.324 503.9 797.002 503.928 796.666 503.928C795.826 503.928 791.136 503.928 790.492 503.928C790.016 503.928 789.246 503.9 788.798 503.844V505.034C789.218 504.992 790.03 504.978 790.506 504.978C791.136 504.978 795.672 504.978 796.33 504.978C795.84 505.636 794.734 506.728 793.474 507.54C792.214 508.366 790.464 509.276 787.804 509.92L788.49 510.956C790.884 510.228 792.718 509.416 794.244 508.352C795.574 507.442 796.778 506.238 797.506 505.384C797.73 505.118 798.038 504.796 798.29 504.544ZM794.328 507.778L793.208 508.254C793.208 509.15 793.208 510.998 793.208 512.048C793.208 512.538 793.166 513.182 793.124 513.602H794.398C794.356 513.168 794.328 512.538 794.328 512.048C794.328 510.97 794.328 508.856 794.328 507.778ZM798.934 511.124L799.676 510.172C798.374 509.304 797.618 508.856 796.302 508.156L795.574 508.968C796.876 509.668 797.716 510.228 798.934 511.124ZM802.126 506.938V508.31C802.574 508.282 803.316 508.254 804.086 508.254C805.122 508.254 810.708 508.254 811.772 508.254C812.388 508.254 812.976 508.296 813.27 508.31V506.938C812.948 506.966 812.458 507.022 811.758 507.022C810.722 507.022 805.108 507.022 804.086 507.022C803.288 507.022 802.56 506.98 802.126 506.938ZM821.596 502.57L820.196 502.276C820.154 502.654 820.098 502.976 819.916 503.62C819.496 505.104 817.872 510.172 817.172 511.782L818.432 511.74C819.034 510.326 820.658 505.3 821.106 503.872C821.302 503.27 821.456 502.906 821.596 502.57ZM824.256 507.26L823.192 507.722C824.2 509.052 825.628 511.964 826.188 513.476L827.35 512.958C826.776 511.516 825.236 508.688 824.256 507.26ZM816.626 511.446C816.22 511.474 815.73 511.488 815.31 511.474L815.534 512.762C815.926 512.706 816.346 512.65 816.696 512.622C818.67 512.426 823.822 511.866 825.768 511.614L825.46 510.522C823.654 510.788 818.642 511.348 816.626 511.446ZM834.224 502.136L832.922 501.996C832.922 503.074 832.74 504.334 832.474 505.454C832.096 507.162 830.976 510.9 829.38 513.042L830.528 513.49C832.11 510.942 833.104 507.456 833.58 505.482C833.776 504.614 833.958 503.466 834.056 502.962C834.112 502.696 834.168 502.388 834.224 502.136ZM839.04 503.746L838.018 504.208C838.998 505.37 840.104 507.806 840.51 509.234L841.602 508.716C841.126 507.428 839.908 504.88 839.04 503.746ZM829.184 505.202L829.296 506.42C829.66 506.364 830.234 506.294 830.556 506.252C831.41 506.168 834.042 505.846 834.98 505.846C835.876 505.846 836.464 506.084 836.464 507.372C836.464 508.884 836.24 510.704 835.792 511.656C835.512 512.258 835.092 512.37 834.574 512.37C834.182 512.37 833.44 512.272 832.852 512.09L833.048 513.252C833.482 513.364 834.154 513.462 834.686 513.462C835.596 513.462 836.296 513.224 836.73 512.286C837.318 511.124 837.542 508.898 837.542 507.232C837.542 505.342 836.52 504.866 835.274 504.866C834.322 504.866 831.48 505.174 830.43 505.202C829.982 505.216 829.618 505.23 829.184 505.202ZM839.194 501.716L838.438 502.038C838.83 502.57 839.306 503.41 839.586 503.984L840.342 503.648C840.048 503.074 839.544 502.22 839.194 501.716ZM840.734 501.156L839.992 501.478C840.398 501.996 840.86 502.794 841.154 503.41L841.924 503.074C841.644 502.556 841.112 501.674 840.734 501.156ZM848.07 502.542V503.536H854.762V502.542H848.07ZM854.37 502.542V502.794C854.23 509.71 854.048 512.216 853.614 512.72C853.46 512.916 853.32 512.972 853.068 512.958C852.746 512.958 852.004 512.958 851.178 512.888C851.36 513.196 851.486 513.658 851.514 513.966C852.27 514.008 853.04 514.036 853.516 513.98C853.978 513.91 854.286 513.784 854.594 513.35C855.126 512.65 855.28 510.27 855.434 503.13C855.434 502.976 855.434 502.542 855.434 502.542H854.37ZM850.478 502.962C850.394 506.784 850.296 511.18 847.034 513.35C847.314 513.532 847.664 513.882 847.86 514.148C851.234 511.74 851.444 507.106 851.542 502.962H850.478ZM845.088 508.002V514.134H846.11V506.77L845.088 508.002ZM843.044 503.83V504.782H847.384V503.83H843.044ZM845.088 501.254V504.348H846.11V501.254H845.088ZM846.082 507.274L845.508 507.764C846.026 508.268 847.258 509.738 847.692 510.368L848.336 509.584C847.986 509.192 846.502 507.638 846.082 507.274ZM847.09 503.83V504.054C846.278 506.21 844.388 508.492 842.652 509.724C842.82 509.906 843.114 510.382 843.226 510.648C845.046 509.248 847.076 506.756 848.084 504.166L847.482 503.774L847.286 503.83H847.09ZM847.832 506.448C847.552 506.952 846.992 507.722 846.6 508.17L847.118 508.604C847.538 508.198 848.042 507.568 848.532 507.008L847.832 506.448ZM864.828 501.94V502.906H868.72V501.94H864.828ZM864.828 505.16V506.098H868.72V505.16H864.828ZM864.814 508.422V509.374H868.748V508.422H864.814ZM868.244 501.94V512.776C868.244 512.986 868.174 513.056 867.964 513.056C867.754 513.07 867.054 513.07 866.312 513.056C866.452 513.322 866.606 513.784 866.634 514.078C867.67 514.078 868.328 514.05 868.72 513.882C869.126 513.714 869.266 513.392 869.266 512.79V501.94H868.244ZM864.394 501.94V507.022C864.394 509.052 864.296 511.712 863.12 513.588C863.358 513.686 863.778 513.994 863.96 514.19C865.22 512.202 865.388 509.178 865.388 507.022V501.94H864.394ZM857.002 503.116V504.04H863.708V503.116H857.002ZM858.654 505.286V506.14H862.196V505.286H858.654ZM858.654 507.512V508.352H862.21V507.512H858.654ZM856.82 509.766V510.704H863.708V509.766H856.82ZM858.192 501.408V510.144H859.158V501.408H858.192ZM861.706 501.408V510.144H862.672V501.408H861.706ZM858.766 511.012C858.346 511.95 857.618 512.888 856.834 513.518C857.086 513.658 857.492 513.966 857.688 514.134C858.444 513.434 859.256 512.356 859.774 511.292L858.766 511.012ZM860.782 511.446C861.328 512.104 861.958 513.028 862.224 513.588L863.078 513.084C862.798 512.51 862.14 511.642 861.594 511.012L860.782 511.446ZM875.202 502.682V503.606H883.63V502.682H875.202ZM875.496 512.482V513.42H883.714V512.482H875.496ZM879.164 501.254C879.094 502.514 878.926 504.208 878.772 505.23H879.766C879.934 504.236 880.116 502.598 880.214 501.31L879.164 501.254ZM878.254 507.498H881.838V508.66H878.254V507.498ZM878.254 509.43H881.838V510.592H878.254V509.43ZM878.254 505.594H881.838V506.742H878.254V505.594ZM877.26 504.796V511.404H882.846V504.796H877.26ZM875.034 505.496V514.106H876.028V505.496H875.034ZM873.984 501.296C873.2 503.424 871.884 505.524 870.498 506.882C870.694 507.12 870.988 507.68 871.1 507.918C872.612 506.35 874.054 503.984 874.978 501.604L873.984 501.296ZM872.528 504.908V514.106H873.536V503.928L873.508 503.914L872.528 504.908Z" fill="black"/>
<path d="M512.204 503.886V505.146C512.624 505.132 513.1 505.118 513.576 505.118C514.262 505.118 518.882 505.118 519.582 505.118C520.044 505.118 520.576 505.132 520.954 505.146V503.886C520.576 503.928 520.086 503.956 519.582 503.956C518.868 503.956 514.458 503.956 513.576 503.956C513.114 503.956 512.652 503.928 512.204 503.886ZM511 510.83V512.174C511.462 512.132 511.952 512.104 512.47 512.104C513.268 512.104 520.044 512.104 520.856 512.104C521.22 512.104 521.71 512.132 522.13 512.174V510.83C521.724 510.872 521.262 510.9 520.856 510.9C520.044 510.9 513.268 510.9 512.47 510.9C511.952 510.9 511.476 510.858 511 510.83ZM530.474 504.95L529.438 505.3C529.732 505.916 530.376 507.694 530.53 508.338L531.566 507.96C531.398 507.358 530.712 505.51 530.474 504.95ZM535.542 505.734L534.338 505.342C534.114 507.134 533.4 508.926 532.406 510.144C531.258 511.572 529.466 512.636 527.856 513.112L528.78 514.05C530.334 513.462 532.042 512.37 533.344 510.732C534.338 509.472 534.954 507.96 535.318 506.42C535.374 506.238 535.444 506.014 535.542 505.734ZM527.212 505.65L526.176 506.042C526.456 506.532 527.212 508.478 527.436 509.206L528.486 508.814C528.234 508.072 527.492 506.238 527.212 505.65ZM549.906 504.25L548.982 503.69C548.758 503.774 548.436 503.816 548.058 503.816C547.624 503.816 544.166 503.816 543.606 503.816L543.158 504.824H548.338C548.058 506.098 547.19 507.918 546.112 509.192C544.824 510.69 543.088 511.95 540.512 512.706L541.534 513.63C544.152 512.65 545.832 511.376 547.106 509.822C548.352 508.296 549.206 506.406 549.584 504.992C549.654 504.768 549.794 504.446 549.906 504.25ZM545.216 502.136L543.928 501.702C543.844 502.066 543.634 502.57 543.494 502.822C542.878 504.068 541.506 506.112 539.084 507.554L540.064 508.268C542.318 506.784 543.774 504.782 544.6 503.228C544.74 502.976 544.992 502.5 545.216 502.136ZM559.44 501.8H558.166C558.222 502.108 558.236 502.626 558.236 503.018C558.236 503.424 558.236 504.124 558.236 504.404H559.356C559.356 504.124 559.356 503.396 559.356 503.018C559.356 502.64 559.384 502.094 559.44 501.8ZM563.29 504.544L562.548 503.83C562.324 503.9 562.002 503.928 561.666 503.928C560.826 503.928 556.136 503.928 555.492 503.928C555.016 503.928 554.246 503.9 553.798 503.844V505.034C554.218 504.992 555.03 504.978 555.506 504.978C556.136 504.978 560.672 504.978 561.33 504.978C560.84 505.636 559.734 506.728 558.474 507.54C557.214 508.366 555.464 509.276 552.804 509.92L553.49 510.956C555.884 510.228 557.718 509.416 559.244 508.352C560.574 507.442 561.778 506.238 562.506 505.384C562.73 505.118 563.038 504.796 563.29 504.544ZM559.328 507.778L558.208 508.254C558.208 509.15 558.208 510.998 558.208 512.048C558.208 512.538 558.166 513.182 558.124 513.602H559.398C559.356 513.168 559.328 512.538 559.328 512.048C559.328 510.97 559.328 508.856 559.328 507.778ZM563.934 511.124L564.676 510.172C563.374 509.304 562.618 508.856 561.302 508.156L560.574 508.968C561.876 509.668 562.716 510.228 563.934 511.124ZM567.126 506.938V508.31C567.574 508.282 568.316 508.254 569.086 508.254C570.122 508.254 575.708 508.254 576.772 508.254C577.388 508.254 577.976 508.296 578.27 508.31V506.938C577.948 506.966 577.458 507.022 576.758 507.022C575.722 507.022 570.108 507.022 569.086 507.022C568.288 507.022 567.56 506.98 567.126 506.938ZM586.596 502.57L585.196 502.276C585.154 502.654 585.098 502.976 584.916 503.62C584.496 505.104 582.872 510.172 582.172 511.782L583.432 511.74C584.034 510.326 585.658 505.3 586.106 503.872C586.302 503.27 586.456 502.906 586.596 502.57ZM589.256 507.26L588.192 507.722C589.2 509.052 590.628 511.964 591.188 513.476L592.35 512.958C591.776 511.516 590.236 508.688 589.256 507.26ZM581.626 511.446C581.22 511.474 580.73 511.488 580.31 511.474L580.534 512.762C580.926 512.706 581.346 512.65 581.696 512.622C583.67 512.426 588.822 511.866 590.768 511.614L590.46 510.522C588.654 510.788 583.642 511.348 581.626 511.446ZM596.311 508.545L596.39 506.358L594.541 507.531L594.064 506.696L596.013 505.682L594.064 504.668L594.541 503.832L596.39 505.006L596.311 502.818H597.265L597.186 505.006L599.035 503.832L599.513 504.668L597.564 505.682L599.513 506.696L599.035 507.531L597.186 506.358L597.265 508.545H596.311Z" fill="black"/>
<rect x="644.5" y="376.5" width="298" height="57" rx="9.5" fill="white" stroke="#2F57BE"/>
<path d="M704.106 410.159C703.39 410.159 702.773 409.99 702.256 409.652C701.739 409.314 701.342 408.848 701.063 408.255C700.785 407.662 700.646 406.984 700.646 406.222C700.646 405.446 700.788 404.762 701.073 404.168C701.362 403.572 701.763 403.106 702.276 402.771C702.793 402.433 703.397 402.264 704.086 402.264C704.623 402.264 705.107 402.364 705.538 402.562C705.969 402.761 706.321 403.04 706.597 403.398C706.872 403.756 707.042 404.173 707.109 404.651H705.935C705.846 404.303 705.647 403.994 705.339 403.726C705.034 403.454 704.623 403.318 704.106 403.318C703.648 403.318 703.247 403.437 702.903 403.676C702.561 403.911 702.295 404.245 702.102 404.675C701.913 405.103 701.819 405.605 701.819 406.182C701.819 406.772 701.912 407.286 702.097 407.723C702.286 408.161 702.551 408.5 702.893 408.742C703.237 408.984 703.642 409.105 704.106 409.105C704.411 409.105 704.688 409.052 704.936 408.946C705.185 408.84 705.395 408.688 705.567 408.489C705.74 408.29 705.862 408.051 705.935 407.773H707.109C707.042 408.223 706.878 408.629 706.616 408.991C706.358 409.349 706.015 409.634 705.587 409.846C705.163 410.055 704.669 410.159 704.106 410.159ZM713.636 406.878V402.364H714.81V410H713.636V408.707H713.557C713.378 409.095 713.099 409.425 712.722 409.697C712.344 409.965 711.866 410.099 711.29 410.099C710.812 410.099 710.388 409.995 710.017 409.786C709.646 409.574 709.354 409.256 709.142 408.832C708.93 408.404 708.824 407.866 708.824 407.216V402.364H709.997V407.136C709.997 407.693 710.153 408.137 710.464 408.469C710.779 408.8 711.18 408.966 711.668 408.966C711.959 408.966 712.256 408.891 712.558 408.742C712.862 408.593 713.118 408.364 713.323 408.056C713.532 407.748 713.636 407.355 713.636 406.878ZM716.959 410V402.364H718.092V403.517H718.172C718.311 403.139 718.563 402.833 718.927 402.597C719.292 402.362 719.703 402.244 720.16 402.244C720.247 402.244 720.354 402.246 720.483 402.249C720.613 402.253 720.711 402.258 720.777 402.264V403.457C720.737 403.447 720.646 403.433 720.503 403.413C720.364 403.389 720.217 403.378 720.061 403.378C719.69 403.378 719.358 403.456 719.067 403.612C718.778 403.764 718.55 403.976 718.381 404.248C718.215 404.516 718.132 404.823 718.132 405.168V410H716.959ZM722.168 410V402.364H723.301V403.517H723.381C723.52 403.139 723.772 402.833 724.136 402.597C724.501 402.362 724.912 402.244 725.369 402.244C725.455 402.244 725.563 402.246 725.692 402.249C725.822 402.253 725.92 402.258 725.986 402.264V403.457C725.946 403.447 725.855 403.433 725.712 403.413C725.573 403.389 725.426 403.378 725.27 403.378C724.899 403.378 724.567 403.456 724.276 403.612C723.987 403.764 723.759 403.976 723.589 404.248C723.424 404.516 723.341 404.823 723.341 405.168V410H722.168ZM730.346 410.159C729.61 410.159 728.975 409.997 728.442 409.672C727.911 409.344 727.502 408.886 727.214 408.3C726.929 407.71 726.786 407.024 726.786 406.241C726.786 405.459 726.929 404.77 727.214 404.173C727.502 403.573 727.903 403.106 728.417 402.771C728.934 402.433 729.537 402.264 730.227 402.264C730.624 402.264 731.017 402.33 731.405 402.463C731.793 402.596 732.146 402.811 732.464 403.109C732.782 403.404 733.036 403.795 733.224 404.283C733.413 404.77 733.508 405.37 733.508 406.082V406.58H727.621V405.565H732.315C732.315 405.134 732.228 404.75 732.056 404.412C731.887 404.074 731.645 403.807 731.33 403.612C731.019 403.416 730.651 403.318 730.227 403.318C729.759 403.318 729.355 403.434 729.013 403.666C728.675 403.895 728.415 404.193 728.233 404.561C728.051 404.929 727.96 405.323 727.96 405.744V406.42C727.96 406.997 728.059 407.486 728.258 407.887C728.46 408.285 728.74 408.588 729.098 408.797C729.456 409.002 729.872 409.105 730.346 409.105C730.654 409.105 730.933 409.062 731.181 408.976C731.433 408.886 731.65 408.754 731.832 408.578C732.015 408.399 732.156 408.177 732.255 407.912L733.388 408.23C733.269 408.615 733.069 408.953 732.787 409.244C732.505 409.533 732.157 409.758 731.743 409.92C731.329 410.08 730.863 410.159 730.346 410.159ZM736.466 405.406V410H735.293V402.364H736.426V403.557H736.526C736.705 403.169 736.976 402.857 737.341 402.622C737.705 402.384 738.176 402.264 738.753 402.264C739.27 402.264 739.722 402.37 740.11 402.582C740.498 402.791 740.799 403.109 741.015 403.537C741.23 403.961 741.338 404.498 741.338 405.148V410H740.165V405.227C740.165 404.627 740.009 404.16 739.697 403.825C739.386 403.487 738.958 403.318 738.415 403.318C738.04 403.318 737.705 403.399 737.411 403.562C737.119 403.724 736.888 403.961 736.719 404.273C736.55 404.584 736.466 404.962 736.466 405.406ZM746.803 402.364V403.358H742.846V402.364H746.803ZM743.999 400.534H745.172V407.812C745.172 408.144 745.22 408.393 745.317 408.558C745.416 408.721 745.542 408.83 745.694 408.886C745.85 408.939 746.014 408.966 746.187 408.966C746.316 408.966 746.422 408.959 746.505 408.946C746.588 408.929 746.654 408.916 746.704 408.906L746.942 409.96C746.863 409.99 746.752 410.02 746.609 410.05C746.467 410.083 746.286 410.099 746.067 410.099C745.736 410.099 745.411 410.028 745.093 409.886C744.778 409.743 744.516 409.526 744.307 409.234C744.102 408.943 743.999 408.575 743.999 408.131V400.534ZM749.423 410.08C749.178 410.08 748.967 409.992 748.792 409.816C748.616 409.64 748.528 409.43 748.528 409.185C748.528 408.939 748.616 408.729 748.792 408.553C748.967 408.378 749.178 408.29 749.423 408.29C749.668 408.29 749.879 408.378 750.055 408.553C750.23 408.729 750.318 408.939 750.318 409.185C750.318 409.347 750.277 409.496 750.194 409.632C750.114 409.768 750.006 409.877 749.871 409.96C749.738 410.04 749.589 410.08 749.423 410.08ZM755.625 410.159C754.889 410.159 754.255 409.997 753.721 409.672C753.191 409.344 752.781 408.886 752.493 408.3C752.208 407.71 752.066 407.024 752.066 406.241C752.066 405.459 752.208 404.77 752.493 404.173C752.781 403.573 753.182 403.106 753.696 402.771C754.213 402.433 754.816 402.264 755.506 402.264C755.904 402.264 756.296 402.33 756.684 402.463C757.072 402.596 757.425 402.811 757.743 403.109C758.061 403.404 758.315 403.795 758.504 404.283C758.693 404.77 758.787 405.37 758.787 406.082V406.58H752.901V405.565H757.594C757.594 405.134 757.508 404.75 757.335 404.412C757.166 404.074 756.924 403.807 756.61 403.612C756.298 403.416 755.93 403.318 755.506 403.318C755.039 403.318 754.634 403.434 754.293 403.666C753.955 403.895 753.695 404.193 753.512 404.561C753.33 404.929 753.239 405.323 753.239 405.744V406.42C753.239 406.997 753.338 407.486 753.537 407.887C753.739 408.285 754.019 408.588 754.377 408.797C754.735 409.002 755.151 409.105 755.625 409.105C755.933 409.105 756.212 409.062 756.46 408.976C756.712 408.886 756.929 408.754 757.112 408.578C757.294 408.399 757.435 408.177 757.534 407.912L758.668 408.23C758.548 408.615 758.348 408.953 758.066 409.244C757.785 409.533 757.436 409.758 757.022 409.92C756.608 410.08 756.142 410.159 755.625 410.159ZM760.572 410V402.364H761.705V403.557H761.805C761.964 403.149 762.221 402.833 762.575 402.607C762.93 402.379 763.356 402.264 763.853 402.264C764.357 402.264 764.776 402.379 765.111 402.607C765.449 402.833 765.713 403.149 765.901 403.557H765.981C766.177 403.162 766.47 402.849 766.861 402.617C767.252 402.382 767.721 402.264 768.268 402.264C768.951 402.264 769.509 402.478 769.943 402.906C770.378 403.33 770.595 403.991 770.595 404.889V410H769.421V404.889C769.421 404.326 769.267 403.923 768.959 403.681C768.651 403.439 768.288 403.318 767.87 403.318C767.333 403.318 766.917 403.481 766.622 403.805C766.327 404.127 766.18 404.535 766.18 405.028V410H764.987V404.77C764.987 404.336 764.846 403.986 764.564 403.721C764.282 403.452 763.919 403.318 763.475 403.318C763.17 403.318 762.885 403.399 762.62 403.562C762.358 403.724 762.146 403.95 761.984 404.238C761.825 404.523 761.745 404.853 761.745 405.227V410H760.572ZM774.987 410.179C774.503 410.179 774.064 410.088 773.67 409.906C773.275 409.72 772.962 409.453 772.73 409.105C772.498 408.754 772.382 408.33 772.382 407.832C772.382 407.395 772.468 407.04 772.64 406.768C772.813 406.493 773.043 406.278 773.331 406.122C773.62 405.966 773.938 405.85 774.286 405.774C774.637 405.695 774.99 405.632 775.345 405.585C775.809 405.526 776.185 405.481 776.474 405.451C776.765 405.418 776.977 405.363 777.11 405.287C777.246 405.211 777.314 405.078 777.314 404.889V404.849C777.314 404.359 777.18 403.978 776.911 403.706C776.646 403.434 776.243 403.298 775.703 403.298C775.143 403.298 774.704 403.421 774.385 403.666C774.067 403.911 773.844 404.173 773.714 404.452L772.601 404.054C772.8 403.59 773.065 403.229 773.396 402.97C773.731 402.708 774.095 402.526 774.49 402.423C774.888 402.317 775.279 402.264 775.663 402.264C775.908 402.264 776.19 402.294 776.508 402.354C776.83 402.41 777.14 402.528 777.438 402.707C777.74 402.886 777.99 403.156 778.189 403.517C778.388 403.878 778.487 404.362 778.487 404.969V410H777.314V408.966H777.254C777.175 409.132 777.042 409.309 776.856 409.498C776.671 409.687 776.424 409.848 776.116 409.98C775.807 410.113 775.431 410.179 774.987 410.179ZM775.166 409.125C775.63 409.125 776.021 409.034 776.339 408.852C776.661 408.669 776.903 408.434 777.065 408.146C777.231 407.857 777.314 407.554 777.314 407.236V406.162C777.264 406.222 777.155 406.276 776.986 406.326C776.82 406.372 776.628 406.414 776.409 406.45C776.193 406.483 775.983 406.513 775.778 406.54C775.575 406.563 775.411 406.583 775.285 406.599C774.98 406.639 774.695 406.704 774.43 406.793C774.168 406.879 773.956 407.01 773.794 407.186C773.635 407.358 773.555 407.594 773.555 407.892C773.555 408.3 773.706 408.608 774.008 408.817C774.313 409.022 774.699 409.125 775.166 409.125ZM780.629 410V402.364H781.802V410H780.629ZM781.225 401.091C780.996 401.091 780.799 401.013 780.634 400.857C780.471 400.701 780.39 400.514 780.39 400.295C780.39 400.077 780.471 399.889 780.634 399.734C780.799 399.578 780.996 399.5 781.225 399.5C781.454 399.5 781.649 399.578 781.812 399.734C781.978 399.889 782.06 400.077 782.06 400.295C782.06 400.514 781.978 400.701 781.812 400.857C781.649 401.013 781.454 401.091 781.225 401.091ZM785.124 399.818V410H783.951V399.818H785.124ZM793.14 412.685C792.125 412.685 791.229 412.545 790.45 412.267C789.671 411.992 789.016 411.586 788.486 411.049C787.956 410.512 787.555 409.854 787.283 409.075C787.011 408.296 786.875 407.405 786.875 406.401C786.875 405.429 787.013 404.561 787.288 403.795C787.566 403.03 787.969 402.38 788.496 401.847C789.026 401.31 789.669 400.9 790.425 400.619C791.184 400.337 792.042 400.196 793 400.196C793.932 400.196 794.747 400.348 795.446 400.653C796.149 400.955 796.736 401.364 797.206 401.881C797.68 402.395 798.035 402.973 798.27 403.616C798.509 404.259 798.628 404.922 798.628 405.605C798.628 406.086 798.605 406.573 798.559 407.067C798.512 407.561 798.414 408.015 798.265 408.429C798.116 408.84 797.886 409.171 797.574 409.423C797.266 409.675 796.848 409.801 796.321 409.801C796.089 409.801 795.834 409.765 795.556 409.692C795.277 409.619 795.03 409.498 794.815 409.329C794.6 409.16 794.472 408.933 794.432 408.648H794.373C794.293 408.84 794.17 409.022 794.005 409.195C793.842 409.367 793.628 409.504 793.363 409.607C793.101 409.71 792.782 409.755 792.404 409.741C791.973 409.725 791.593 409.629 791.265 409.453C790.937 409.274 790.662 409.032 790.44 408.727C790.221 408.419 790.056 408.063 789.943 407.658C789.833 407.251 789.779 406.812 789.779 406.341C789.779 405.893 789.845 405.484 789.978 405.113C790.11 404.742 790.294 404.417 790.529 404.138C790.768 403.86 791.047 403.638 791.365 403.472C791.686 403.303 792.033 403.199 792.404 403.159C792.735 403.126 793.037 403.141 793.309 403.204C793.58 403.263 793.804 403.355 793.98 403.477C794.155 403.597 794.266 403.729 794.313 403.875H794.373V403.318H795.426V407.812C795.426 408.091 795.504 408.336 795.66 408.548C795.816 408.76 796.043 408.866 796.341 408.866C796.679 408.866 796.938 408.75 797.117 408.518C797.299 408.286 797.423 407.929 797.49 407.445C797.559 406.961 797.594 406.341 797.594 405.585C797.594 405.141 797.533 404.704 797.41 404.273C797.291 403.839 797.109 403.433 796.863 403.055C796.621 402.677 796.315 402.344 795.944 402.055C795.572 401.767 795.136 401.542 794.636 401.379C794.139 401.214 793.574 401.131 792.941 401.131C792.162 401.131 791.464 401.252 790.848 401.494C790.234 401.732 789.712 402.082 789.282 402.543C788.854 403 788.528 403.557 788.302 404.213C788.08 404.866 787.969 405.608 787.969 406.44C787.969 407.286 788.08 408.036 788.302 408.692C788.528 409.349 788.859 409.902 789.297 410.353C789.737 410.804 790.283 411.145 790.932 411.377C791.582 411.612 792.331 411.73 793.179 411.73C793.544 411.73 793.904 411.695 794.258 411.626C794.613 411.556 794.926 411.48 795.198 411.397C795.47 411.314 795.665 411.253 795.784 411.213L796.063 412.128C795.857 412.214 795.589 412.3 795.257 412.386C794.929 412.473 794.578 412.544 794.203 412.6C793.832 412.656 793.478 412.685 793.14 412.685ZM792.563 408.727C793.007 408.727 793.367 408.638 793.642 408.459C793.917 408.28 794.117 408.01 794.243 407.648C794.369 407.287 794.432 406.831 794.432 406.281C794.432 405.724 794.363 405.29 794.223 404.979C794.084 404.667 793.879 404.448 793.607 404.322C793.335 404.196 793 404.134 792.603 404.134C792.225 404.134 791.902 404.233 791.633 404.432C791.368 404.627 791.164 404.889 791.022 405.217C790.882 405.542 790.813 405.897 790.813 406.281C790.813 406.705 790.869 407.105 790.982 407.479C791.095 407.851 791.279 408.152 791.534 408.384C791.789 408.613 792.132 408.727 792.563 408.727ZM803.586 410.159C802.85 410.159 802.216 409.997 801.682 409.672C801.152 409.344 800.742 408.886 800.454 408.3C800.169 407.71 800.026 407.024 800.026 406.241C800.026 405.459 800.169 404.77 800.454 404.173C800.742 403.573 801.143 403.106 801.657 402.771C802.174 402.433 802.777 402.264 803.467 402.264C803.865 402.264 804.257 402.33 804.645 402.463C805.033 402.596 805.386 402.811 805.704 403.109C806.022 403.404 806.276 403.795 806.465 404.283C806.654 404.77 806.748 405.37 806.748 406.082V406.58H800.862V405.565H805.555C805.555 405.134 805.469 404.75 805.296 404.412C805.127 404.074 804.885 403.807 804.57 403.612C804.259 403.416 803.891 403.318 803.467 403.318C802.999 403.318 802.595 403.434 802.254 403.666C801.916 403.895 801.655 404.193 801.473 404.561C801.291 404.929 801.2 405.323 801.2 405.744V406.42C801.2 406.997 801.299 407.486 801.498 407.887C801.7 408.285 801.98 408.588 802.338 408.797C802.696 409.002 803.112 409.105 803.586 409.105C803.894 409.105 804.173 409.062 804.421 408.976C804.673 408.886 804.89 408.754 805.073 408.578C805.255 408.399 805.396 408.177 805.495 407.912L806.629 408.23C806.509 408.615 806.309 408.953 806.027 409.244C805.745 409.533 805.397 409.758 804.983 409.92C804.569 410.08 804.103 410.159 803.586 410.159ZM809.203 402.364L811.032 405.486L812.862 402.364H814.214L811.748 406.182L814.214 410H812.862L811.032 407.037L809.203 410H807.85L810.277 406.182L807.85 402.364H809.203ZM818.135 410.179C817.652 410.179 817.212 410.088 816.818 409.906C816.424 409.72 816.11 409.453 815.878 409.105C815.646 408.754 815.53 408.33 815.53 407.832C815.53 407.395 815.617 407.04 815.789 406.768C815.961 406.493 816.192 406.278 816.48 406.122C816.768 405.966 817.086 405.85 817.434 405.774C817.786 405.695 818.139 405.632 818.493 405.585C818.957 405.526 819.334 405.481 819.622 405.451C819.914 405.418 820.126 405.363 820.258 405.287C820.394 405.211 820.462 405.078 820.462 404.889V404.849C820.462 404.359 820.328 403.978 820.059 403.706C819.794 403.434 819.392 403.298 818.851 403.298C818.291 403.298 817.852 403.421 817.534 403.666C817.216 403.911 816.992 404.173 816.863 404.452L815.749 404.054C815.948 403.59 816.213 403.229 816.545 402.97C816.879 402.708 817.244 402.526 817.638 402.423C818.036 402.317 818.427 402.264 818.812 402.264C819.057 402.264 819.339 402.294 819.657 402.354C819.978 402.41 820.288 402.528 820.586 402.707C820.888 402.886 821.138 403.156 821.337 403.517C821.536 403.878 821.635 404.362 821.635 404.969V410H820.462V408.966H820.403C820.323 409.132 820.19 409.309 820.005 409.498C819.819 409.687 819.572 409.848 819.264 409.98C818.956 410.113 818.58 410.179 818.135 410.179ZM818.314 409.125C818.778 409.125 819.17 409.034 819.488 408.852C819.809 408.669 820.051 408.434 820.214 408.146C820.379 407.857 820.462 407.554 820.462 407.236V406.162C820.412 406.222 820.303 406.276 820.134 406.326C819.968 406.372 819.776 406.414 819.557 406.45C819.342 406.483 819.131 406.513 818.926 406.54C818.724 406.563 818.56 406.583 818.434 406.599C818.129 406.639 817.844 406.704 817.579 406.793C817.317 406.879 817.105 407.01 816.942 407.186C816.783 407.358 816.704 407.594 816.704 407.892C816.704 408.3 816.854 408.608 817.156 408.817C817.461 409.022 817.847 409.125 818.314 409.125ZM823.777 410V402.364H824.911V403.557H825.01C825.169 403.149 825.426 402.833 825.781 402.607C826.135 402.379 826.561 402.264 827.058 402.264C827.562 402.264 827.981 402.379 828.316 402.607C828.654 402.833 828.918 403.149 829.107 403.557H829.186C829.382 403.162 829.675 402.849 830.066 402.617C830.457 402.382 830.926 402.264 831.473 402.264C832.156 402.264 832.714 402.478 833.148 402.906C833.583 403.33 833.8 403.991 833.8 404.889V410H832.626V404.889C832.626 404.326 832.472 403.923 832.164 403.681C831.856 403.439 831.493 403.318 831.075 403.318C830.538 403.318 830.122 403.481 829.827 403.805C829.532 404.127 829.385 404.535 829.385 405.028V410H828.192V404.77C828.192 404.336 828.051 403.986 827.769 403.721C827.487 403.452 827.125 403.318 826.68 403.318C826.375 403.318 826.09 403.399 825.825 403.562C825.563 403.724 825.351 403.95 825.189 404.238C825.03 404.523 824.95 404.853 824.95 405.227V410H823.777ZM835.945 412.864V402.364H837.078V403.577H837.218C837.304 403.444 837.423 403.275 837.576 403.07C837.731 402.861 837.953 402.675 838.242 402.513C838.533 402.347 838.928 402.264 839.425 402.264C840.068 402.264 840.635 402.425 841.125 402.746C841.616 403.068 841.999 403.524 842.274 404.114C842.549 404.704 842.686 405.4 842.686 406.202C842.686 407.01 842.549 407.711 842.274 408.305C841.999 408.895 841.618 409.352 841.13 409.677C840.643 409.998 840.081 410.159 839.445 410.159C838.954 410.159 838.562 410.078 838.267 409.915C837.972 409.75 837.745 409.562 837.586 409.354C837.426 409.142 837.304 408.966 837.218 408.827H837.118V412.864H835.945ZM837.098 406.182C837.098 406.759 837.183 407.267 837.352 407.708C837.521 408.146 837.768 408.489 838.093 408.737C838.417 408.982 838.815 409.105 839.286 409.105C839.776 409.105 840.186 408.976 840.514 408.717C840.845 408.455 841.094 408.104 841.26 407.663C841.429 407.219 841.513 406.725 841.513 406.182C841.513 405.645 841.43 405.161 841.265 404.73C841.102 404.296 840.855 403.953 840.524 403.701C840.196 403.446 839.783 403.318 839.286 403.318C838.809 403.318 838.408 403.439 838.083 403.681C837.758 403.92 837.513 404.254 837.347 404.685C837.181 405.113 837.098 405.612 837.098 406.182ZM845.65 399.818V410H844.476V399.818H845.65ZM851 410.159C850.264 410.159 849.63 409.997 849.096 409.672C848.566 409.344 848.156 408.886 847.868 408.3C847.583 407.71 847.441 407.024 847.441 406.241C847.441 405.459 847.583 404.77 847.868 404.173C848.156 403.573 848.557 403.106 849.071 402.771C849.588 402.433 850.191 402.264 850.881 402.264C851.279 402.264 851.671 402.33 852.059 402.463C852.447 402.596 852.8 402.811 853.118 403.109C853.436 403.404 853.69 403.795 853.879 404.283C854.068 404.77 854.162 405.37 854.162 406.082V406.58H848.276V405.565H852.969C852.969 405.134 852.883 404.75 852.71 404.412C852.541 404.074 852.299 403.807 851.985 403.612C851.673 403.416 851.305 403.318 850.881 403.318C850.414 403.318 850.009 403.434 849.668 403.666C849.33 403.895 849.07 404.193 848.887 404.561C848.705 404.929 848.614 405.323 848.614 405.744V406.42C848.614 406.997 848.713 407.486 848.912 407.887C849.114 408.285 849.394 408.588 849.752 408.797C850.11 409.002 850.526 409.105 851 409.105C851.308 409.105 851.587 409.062 851.835 408.976C852.087 408.886 852.304 408.754 852.487 408.578C852.669 408.399 852.81 408.177 852.909 407.912L854.043 408.23C853.923 408.615 853.723 408.953 853.441 409.244C853.16 409.533 852.811 409.758 852.397 409.92C851.983 410.08 851.517 410.159 851 410.159ZM856.802 410.08C856.557 410.08 856.346 409.992 856.171 409.816C855.995 409.64 855.907 409.43 855.907 409.185C855.907 408.939 855.995 408.729 856.171 408.553C856.346 408.378 856.557 408.29 856.802 408.29C857.047 408.29 857.258 408.378 857.433 408.553C857.609 408.729 857.697 408.939 857.697 409.185C857.697 409.347 857.655 409.496 857.573 409.632C857.493 409.768 857.385 409.877 857.249 409.96C857.117 410.04 856.968 410.08 856.802 410.08ZM862.905 410.159C862.189 410.159 861.572 409.99 861.055 409.652C860.538 409.314 860.14 408.848 859.862 408.255C859.584 407.662 859.444 406.984 859.444 406.222C859.444 405.446 859.587 404.762 859.872 404.168C860.16 403.572 860.561 403.106 861.075 402.771C861.592 402.433 862.195 402.264 862.885 402.264C863.422 402.264 863.906 402.364 864.336 402.562C864.767 402.761 865.12 403.04 865.395 403.398C865.671 403.756 865.841 404.173 865.907 404.651H864.734C864.645 404.303 864.446 403.994 864.138 403.726C863.833 403.454 863.422 403.318 862.905 403.318C862.447 403.318 862.046 403.437 861.702 403.676C861.36 403.911 861.093 404.245 860.901 404.675C860.712 405.103 860.618 405.605 860.618 406.182C860.618 406.772 860.711 407.286 860.896 407.723C861.085 408.161 861.35 408.5 861.692 408.742C862.036 408.984 862.441 409.105 862.905 409.105C863.21 409.105 863.486 409.052 863.735 408.946C863.983 408.84 864.194 408.688 864.366 408.489C864.539 408.29 864.661 408.051 864.734 407.773H865.907C865.841 408.223 865.677 408.629 865.415 408.991C865.157 409.349 864.814 409.634 864.386 409.846C863.962 410.055 863.468 410.159 862.905 410.159ZM870.725 410.159C870.036 410.159 869.431 409.995 868.91 409.667C868.393 409.339 867.989 408.88 867.697 408.29C867.409 407.7 867.265 407.01 867.265 406.222C867.265 405.426 867.409 404.732 867.697 404.138C867.989 403.545 868.393 403.085 868.91 402.756C869.431 402.428 870.036 402.264 870.725 402.264C871.414 402.264 872.018 402.428 872.535 402.756C873.055 403.085 873.459 403.545 873.748 404.138C874.039 404.732 874.185 405.426 874.185 406.222C874.185 407.01 874.039 407.7 873.748 408.29C873.459 408.88 873.055 409.339 872.535 409.667C872.018 409.995 871.414 410.159 870.725 410.159ZM870.725 409.105C871.249 409.105 871.68 408.971 872.018 408.702C872.356 408.434 872.606 408.081 872.768 407.643C872.931 407.206 873.012 406.732 873.012 406.222C873.012 405.711 872.931 405.236 872.768 404.795C872.606 404.354 872.356 403.998 872.018 403.726C871.68 403.454 871.249 403.318 870.725 403.318C870.201 403.318 869.77 403.454 869.432 403.726C869.094 403.998 868.844 404.354 868.682 404.795C868.519 405.236 868.438 405.711 868.438 406.222C868.438 406.732 868.519 407.206 868.682 407.643C868.844 408.081 869.094 408.434 869.432 408.702C869.77 408.971 870.201 409.105 870.725 409.105ZM875.976 410V402.364H877.11V403.557H877.209C877.368 403.149 877.625 402.833 877.98 402.607C878.334 402.379 878.76 402.264 879.257 402.264C879.761 402.264 880.181 402.379 880.515 402.607C880.853 402.833 881.117 403.149 881.306 403.557H881.385C881.581 403.162 881.874 402.849 882.265 402.617C882.656 402.382 883.125 402.264 883.672 402.264C884.355 402.264 884.913 402.478 885.348 402.906C885.782 403.33 885.999 403.991 885.999 404.889V410H884.826V404.889C884.826 404.326 884.672 403.923 884.363 403.681C884.055 403.439 883.692 403.318 883.275 403.318C882.738 403.318 882.322 403.481 882.027 403.805C881.732 404.127 881.584 404.535 881.584 405.028V410H880.391V404.77C880.391 404.336 880.25 403.986 879.968 403.721C879.687 403.452 879.324 403.318 878.88 403.318C878.575 403.318 878.29 403.399 878.025 403.562C877.763 403.724 877.551 403.95 877.388 404.238C877.229 404.523 877.15 404.853 877.15 405.227V410H875.976Z" fill="black"/>
<path d="M513.826 399.808L512.552 399.374C512.482 399.668 512.356 400.13 512.258 400.41C511.782 401.782 511.082 403.336 509.934 404.82C508.492 406.654 506.7 408.32 504.096 409.566L505.048 410.434C507.694 409.062 509.514 407.214 510.858 405.506C512.006 404.05 512.846 402.23 513.378 400.844C513.49 400.55 513.686 400.074 513.826 399.808ZM506.434 401.46L505.692 402.342C507.232 403.28 509.052 404.666 510.06 405.506C511.46 406.682 512.678 407.788 513.84 409.132L514.722 408.166C513.616 406.962 512.23 405.744 510.83 404.596C509.766 403.742 507.82 402.342 506.434 401.46ZM517.914 403.938V405.31C518.362 405.282 519.104 405.254 519.874 405.254C520.91 405.254 526.496 405.254 527.56 405.254C528.176 405.254 528.764 405.296 529.058 405.31V403.938C528.736 403.966 528.246 404.022 527.546 404.022C526.51 404.022 520.896 404.022 519.874 404.022C519.076 404.022 518.348 403.98 517.914 403.938ZM537.822 409.706L538.564 410.322C538.676 410.252 538.816 410.126 539.054 410.014C540.678 409.202 542.61 407.774 543.828 406.136L543.156 405.17C542.092 406.752 540.37 408.026 539.068 408.614C539.068 408.194 539.068 401.418 539.068 400.55C539.068 400.018 539.124 399.612 539.138 399.5H537.85C537.85 399.612 537.92 400.004 537.92 400.536C537.92 401.418 537.92 408.278 537.92 408.922C537.92 409.202 537.878 409.496 537.822 409.706ZM531.41 409.65L532.474 410.35C533.65 409.37 534.546 408.012 534.966 406.514C535.344 405.114 535.386 402.104 535.386 400.55C535.386 400.144 535.442 399.71 535.456 399.556H534.168C534.238 399.85 534.266 400.158 534.266 400.564C534.266 402.132 534.266 404.918 533.846 406.206C533.426 407.564 532.6 408.81 531.41 409.65ZM557.534 400.55L556.834 399.878C556.638 399.934 556.134 399.976 555.868 399.976C555.028 399.976 548.49 399.976 547.818 399.976C547.3 399.976 546.726 399.92 546.236 399.85V401.11C546.782 401.068 547.3 401.04 547.818 401.04C548.49 401.04 554.818 401.04 555.798 401.04C555.35 401.908 554.034 403.42 552.732 404.162L553.67 404.904C555.266 403.798 556.596 401.992 557.156 401.04C557.254 400.886 557.422 400.676 557.534 400.55ZM551.934 402.384H550.674C550.73 402.762 550.73 403.07 550.73 403.406C550.73 405.744 550.422 407.732 548.266 409.062C547.874 409.328 547.384 409.566 547.006 409.692L548.028 410.532C551.598 408.74 551.934 406.178 551.934 402.384ZM567.684 399.934L566.9 400.27C567.362 400.9 567.81 401.67 568.16 402.412L568.958 402.048C568.636 401.376 568.034 400.438 567.684 399.934ZM569.364 399.234L568.608 399.598C569.07 400.214 569.532 400.956 569.896 401.698L570.68 401.306C570.358 400.648 569.742 399.724 569.364 399.234ZM562.77 408.95C562.77 409.482 562.742 410.168 562.672 410.616H564.03C563.974 410.154 563.946 409.398 563.946 408.95C563.946 408.292 563.932 403 563.932 400.816C563.932 400.396 563.988 399.78 564.03 399.36H562.658C562.728 399.794 562.77 400.41 562.77 400.816C562.77 401.992 562.77 408.18 562.77 408.95ZM563.68 403.028V404.26C565.206 404.736 567.824 405.73 569.42 406.584L569.91 405.408C568.356 404.638 565.542 403.56 563.68 403.028ZM575.608 409.566L576.406 410.252C576.63 410.126 576.854 410.056 576.994 410.014C580.494 408.992 583.378 407.27 585.198 405.016L584.568 404.036C582.818 406.29 579.584 408.124 576.896 408.81C576.896 408.096 576.896 402.188 576.896 400.858C576.896 400.466 576.952 399.934 576.994 399.598H575.622C575.678 399.864 575.734 400.494 575.734 400.872C575.734 402.202 575.734 407.998 575.734 408.88C575.734 409.146 575.706 409.342 575.608 409.566ZM597.686 400.648L596.986 400.102C596.762 400.172 596.384 400.214 595.936 400.214C595.404 400.214 591.078 400.214 590.532 400.214C590.098 400.214 589.3 400.158 589.118 400.13V401.39C589.272 401.376 590.028 401.32 590.532 401.32C591.008 401.32 595.488 401.32 595.992 401.32C595.628 402.482 594.606 404.148 593.654 405.226C592.212 406.822 590.154 408.502 587.886 409.37L588.782 410.308C590.994 409.3 592.996 407.634 594.564 405.884C595.726 404.596 596.79 402.636 597.35 401.25C597.42 401.068 597.602 400.76 597.686 400.648ZM594.746 405.156L593.948 405.94C595.46 407.27 597.098 409.062 598.106 410.392L599.072 409.538C598.12 408.376 596.258 406.416 594.746 405.156ZM603.523 405.545L603.602 403.358L601.753 404.531L601.276 403.696L603.224 402.682L601.276 401.668L601.753 400.832L603.602 402.006L603.523 399.818H604.477L604.398 402.006L606.247 400.832L606.724 401.668L604.776 402.682L606.724 403.696L606.247 404.531L604.398 403.358L604.477 405.545H603.523Z" fill="black"/>
<rect x="785.5" y="794.5" width="234" height="55" rx="7.5" fill="#0F89E3" stroke="#2F57BE"/>
<path d="M878.396 819.146V820.056H883.59V819.146H878.396ZM874.91 826.916V827.798H887.104V826.916H874.91ZM875.75 815.786V816.668H879.894V815.786H875.75ZM879.558 815.786V815.982C878.69 818.208 876.422 820.168 874.364 821.036C874.574 821.218 874.854 821.582 874.994 821.806C877.22 820.77 879.558 818.768 880.608 816.08L879.936 815.73L879.74 815.786H879.558ZM881.924 815.282L881.042 815.576C882.232 818.236 884.374 820.518 886.852 821.638C887.02 821.358 887.314 820.98 887.566 820.77C885.144 819.832 883.002 817.662 881.924 815.282ZM875.372 817.76C876.1 818.208 876.94 818.908 877.36 819.398L877.948 818.754C877.542 818.25 876.674 817.606 875.932 817.186L875.372 817.76ZM884.738 815.366C884.178 815.982 883.184 816.836 882.47 817.354L883.114 817.858C883.842 817.368 884.808 816.612 885.536 815.926L884.738 815.366ZM886.306 817.018C885.718 817.648 884.682 818.502 883.926 819.006L884.57 819.51C885.34 819.034 886.348 818.278 887.09 817.578L886.306 817.018ZM878.144 822.072H883.814V823.92H878.144V822.072ZM877.108 821.204V824.788H884.892V821.204H877.108ZM877.92 825.012C878.298 825.628 878.648 826.482 878.788 827.028L879.782 826.72C879.642 826.174 879.278 825.348 878.886 824.746L877.92 825.012ZM883.128 824.704C882.904 825.32 882.456 826.23 882.106 826.776L883.002 827.042C883.352 826.496 883.772 825.726 884.15 824.984L883.128 824.704ZM900.502 821.386C900.11 822.002 899.382 822.856 898.864 823.388L899.536 823.85C900.082 823.346 900.768 822.604 901.328 821.918L900.502 821.386ZM894.244 822.086C894.832 822.66 895.476 823.472 895.742 824.004L896.512 823.5C896.218 822.954 895.56 822.184 894.958 821.624L894.244 822.086ZM894.678 815.814V816.696H899.312V820.504H900.292V815.814H894.678ZM894.958 817.9V818.754H899.872V817.9H894.958ZM893.95 819.972V820.896H901.44V819.972H893.95ZM897.1 820.406V827C897.1 827.168 897.058 827.21 896.904 827.21C896.736 827.21 896.26 827.224 895.728 827.196C895.854 827.476 895.98 827.868 896.022 828.134C896.792 828.134 897.31 828.12 897.646 827.966C897.996 827.812 898.08 827.532 898.08 827.028V820.406H897.1ZM893.656 826.286L894.146 827.154C894.972 826.594 895.938 825.894 896.834 825.208L896.512 824.396C895.462 825.124 894.384 825.852 893.656 826.286ZM898.038 821.036L897.436 821.736C897.87 823.458 898.892 825.992 901.006 827.28C901.16 827.014 901.482 826.608 901.692 826.412C899.536 825.278 898.458 822.898 898.038 821.036ZM889.512 818.712V819.622H893.502V818.712H889.512ZM888.756 821.106V822.03H893.88V821.106H888.756ZM889.078 822.954C889.344 823.808 889.568 824.9 889.582 825.628L890.366 825.432C890.31 824.704 890.086 823.626 889.806 822.772L889.078 822.954ZM888.63 826.72L888.84 827.7C890.24 827.406 892.102 826.986 893.908 826.608L893.824 825.712C891.92 826.104 889.946 826.496 888.63 826.72ZM892.97 822.646C892.844 823.388 892.592 824.494 892.382 825.18L893.068 825.376C893.306 824.718 893.544 823.71 893.782 822.856L892.97 822.646ZM890.954 819.048V826.832L891.878 826.678V819.048H890.954ZM890.912 815.254C890.436 816.374 889.54 817.802 888.266 818.866C888.462 819.006 888.77 819.314 888.924 819.524C890.31 818.306 891.22 816.822 891.766 815.744V815.478H891.458V815.254H890.912ZM891.08 815.254V815.996H891.276C892.088 816.696 893.04 817.858 893.516 818.572L894.216 817.774C893.726 817.074 892.69 815.996 891.864 815.254H891.08ZM910.778 815.912H909.49C909.518 816.038 909.56 816.43 909.588 816.808C909.63 817.578 909.644 820.364 909.644 820.98L910.708 821.526C910.694 820.406 910.666 817.704 910.708 816.794C910.708 816.626 910.75 816.08 910.778 815.912ZM903.33 817.872L903.358 818.95C905.472 818.796 908.468 818.698 910.876 818.698C912.934 818.698 914.194 818.726 914.978 818.768L914.992 817.732C914.334 817.718 912.598 817.718 910.89 817.718C908.734 817.718 905.234 817.844 903.33 817.872ZM910.68 821.932L909.91 821.54C910.134 823.038 909.574 823.766 908.706 823.766C907.936 823.766 907.278 823.262 907.278 822.38C907.278 821.47 907.964 820.896 908.706 820.896C909.462 820.896 910.078 821.428 910.078 822.688C910.078 824.998 908.594 826.244 906.046 826.846L906.984 827.756C910.232 826.79 911.156 824.69 911.156 822.786C911.156 821.176 910.33 819.972 908.706 819.972C907.376 819.972 906.228 821.008 906.228 822.394C906.228 823.92 907.362 824.746 908.538 824.746C909.812 824.746 910.68 823.808 910.68 821.932ZM919.332 816.696L919.36 817.844C919.668 817.802 919.976 817.788 920.298 817.76C921.026 817.718 923.826 817.606 924.568 817.564C923.868 818.194 922.104 819.664 921.32 820.308C920.522 820.994 918.716 822.506 917.554 823.458L918.366 824.27C920.13 822.464 921.39 821.484 923.714 821.484C925.548 821.484 926.864 822.506 926.864 823.892C926.864 825.642 925.366 826.622 922.986 826.622C921.88 826.622 921.11 826.216 921.11 825.53C921.11 825.04 921.6 824.648 922.244 824.648C923.364 824.648 924.05 825.502 924.134 826.692L925.142 826.524C925.044 825.11 924.106 823.794 922.244 823.794C920.956 823.794 920.088 824.662 920.088 825.614C920.088 826.79 921.25 827.616 923.154 827.616C926.122 827.616 927.984 826.146 927.984 823.892C927.984 822.002 926.318 820.616 923.994 820.616C923.364 820.616 922.692 820.686 922.048 820.896C923.14 820 925.044 818.362 925.73 817.83C925.996 817.62 926.276 817.438 926.528 817.27L925.884 816.444C925.73 816.5 925.534 816.528 925.114 816.57C924.372 816.64 921.054 816.738 920.312 816.738C920.032 816.738 919.64 816.724 919.332 816.696Z" fill="white"/>
<rect x="420.5" y="794.5" width="234" height="55" rx="7.5" stroke="#2F57BE"/>
<path d="M483.044 820.41C483.058 820.76 483.058 821.18 483.058 821.502C483.058 822.048 483.058 827.83 483.058 828.404C483.058 828.894 483.03 829.916 483.03 830.098H484.22C484.22 829.916 484.206 829.02 484.206 828.558C484.206 827.984 484.206 821.544 484.206 821.544H491.85C491.85 821.544 491.85 828.04 491.85 828.558C491.85 829.146 491.836 829.944 491.822 830.098H493.04C493.026 829.944 493.012 828.852 493.012 828.404C493.012 827.872 493.012 822.16 493.012 821.502C493.012 821.152 493.012 820.76 493.04 820.424C492.606 820.438 492.102 820.438 491.808 820.438C491.122 820.438 485.032 820.438 484.29 820.438C483.954 820.438 483.59 820.438 483.044 820.41ZM492.312 828.208H483.646V829.3H492.312V828.208ZM505.71 818.8L504.954 819.122C505.332 819.654 505.808 820.494 506.088 821.068L506.844 820.718C506.564 820.158 506.06 819.304 505.71 818.8ZM507.236 818.24L506.508 818.562C506.9 819.08 507.348 819.878 507.656 820.48L508.412 820.144C508.146 819.626 507.614 818.758 507.236 818.24ZM506.634 821.586L505.71 821.026C505.472 821.124 505.164 821.166 504.786 821.166C504.352 821.166 500.894 821.166 500.32 821.166L499.872 822.174H505.066C504.772 823.448 503.918 825.254 502.826 826.542C501.552 828.026 499.816 829.3 497.24 830.056L498.248 830.966C500.88 830 502.56 828.712 503.834 827.158C505.066 825.646 505.934 823.742 506.312 822.342C506.382 822.118 506.522 821.796 506.634 821.586ZM501.944 819.472L500.656 819.052C500.572 819.402 500.362 819.92 500.222 820.158C499.606 821.418 498.234 823.448 495.812 824.89L496.792 825.618C499.032 824.12 500.502 822.118 501.328 820.578C501.468 820.312 501.72 819.836 501.944 819.472ZM510.204 824.946L510.75 826.038C513.004 825.338 515.23 824.316 516.77 823.364C518.408 822.342 519.878 821.166 521.082 819.92L520.144 819.038C519.178 820.214 517.778 821.418 516.308 822.342C514.754 823.308 512.626 824.302 510.204 824.946ZM516.084 822.916V828.95C516.084 829.468 516.042 830.168 516 830.434H517.386C517.316 830.168 517.288 829.468 517.288 828.95V822.552L516.084 822.916ZM526.178 819.752L525.366 820.606C526.416 821.292 528.152 822.804 528.866 823.532L529.734 822.636C528.964 821.866 527.158 820.41 526.178 819.752ZM524.974 829.132L525.702 830.28C528.04 829.846 529.804 828.978 531.218 828.096C533.332 826.766 534.956 824.862 535.908 823.126L535.236 821.922C534.424 823.658 532.73 825.73 530.56 827.088C529.23 827.914 527.41 828.768 524.974 829.132ZM542.572 821.726L542.586 822.79C543.398 822.846 544.126 822.874 544.938 822.874C546.576 822.874 548.284 822.762 549.768 822.51V821.432C548.354 821.726 546.632 821.852 544.952 821.852C544.126 821.852 543.37 821.81 542.572 821.726ZM547.472 819.22H546.212C546.254 819.472 546.268 819.836 546.268 820.088C546.268 820.578 546.282 821.46 546.282 822.426C546.282 824.274 546.464 826.892 546.464 827.9C546.464 828.838 546.128 829.426 544.952 829.426C543.93 829.426 543.244 829.048 543.244 828.32C543.244 827.648 543.972 827.186 545.022 827.186C546.8 827.186 548.214 828.138 549.684 829.51L550.286 828.586C549.11 827.522 547.472 826.332 545.12 826.332C543.272 826.332 542.236 827.256 542.236 828.432C542.236 829.692 543.258 830.448 545.134 830.448C547.024 830.448 547.556 829.328 547.556 828.18C547.556 826.738 547.346 824.554 547.346 822.398C547.346 821.572 547.36 820.578 547.388 820.06C547.402 819.794 547.43 819.5 547.472 819.22ZM540.57 819.318L539.338 819.206C539.324 819.514 539.296 819.878 539.24 820.214C539.072 821.362 538.596 824.036 538.596 826.094C538.596 827.984 538.862 829.524 539.128 830.532L540.122 830.448C540.108 830.308 540.094 830.098 540.08 829.958C540.066 829.804 540.094 829.524 540.136 829.328C540.276 828.642 540.794 827.214 541.144 826.234L540.57 825.786C540.332 826.36 539.982 827.214 539.758 827.858C539.66 827.172 539.618 826.584 539.618 825.898C539.618 824.33 540.038 821.558 540.318 820.256C540.374 820.004 540.486 819.542 540.57 819.318ZM554.276 820.186V821.32C555.382 821.418 556.586 821.474 557.986 821.474C559.274 821.474 560.8 821.376 561.752 821.306V820.158C560.744 820.27 559.33 820.354 557.986 820.354C556.572 820.354 555.284 820.298 554.276 820.186ZM554.836 825.828L553.702 825.716C553.576 826.276 553.422 826.934 553.422 827.662C553.422 829.426 555.074 830.35 557.916 830.35C559.904 830.35 561.682 830.14 562.69 829.874L562.676 828.67C561.612 829.006 559.806 829.216 557.888 829.216C555.648 829.216 554.556 828.488 554.556 827.41C554.556 826.892 554.668 826.374 554.836 825.828ZM570.922 819.038L569.662 818.982C569.69 819.36 569.662 819.696 569.606 820.144C569.438 821.488 568.696 824.96 567.632 827.046L568.668 827.41C568.808 827.172 568.934 826.976 569.102 826.766C570.026 825.66 571.58 825.086 573.246 825.086C574.884 825.086 575.738 825.898 575.738 826.934C575.738 829.244 572.602 829.79 569.354 829.342L569.648 830.462C573.904 830.91 576.886 829.832 576.886 826.906C576.886 825.268 575.584 824.134 573.358 824.134C571.902 824.134 570.642 824.484 569.424 825.338C569.9 824.036 570.46 821.334 570.656 820.214C570.74 819.85 570.81 819.416 570.922 819.038ZM566.568 820.83L566.582 821.922C567.38 821.992 568.276 822.062 569.228 822.062C571.146 822.062 574.002 821.782 575.99 821.432L575.962 820.354C573.764 820.844 571.006 821.054 569.214 821.054C568.374 821.054 567.31 820.956 566.568 820.83ZM583.676 819.024L583.396 820.102C584.474 820.382 587.498 820.998 588.842 821.18L589.108 820.116C587.862 819.99 584.88 819.416 583.676 819.024ZM583.368 821.586L582.192 821.432C582.108 822.888 581.758 825.828 581.478 827.102L582.528 827.354C582.612 827.13 582.738 826.906 582.948 826.668C583.928 825.478 585.44 824.792 587.274 824.792C588.702 824.792 589.752 825.59 589.752 826.696C589.752 828.614 587.596 829.888 583.172 829.356L583.508 830.49C588.702 830.924 590.928 829.23 590.928 826.738C590.928 825.086 589.5 823.798 587.358 823.798C585.678 823.798 584.138 824.344 582.794 825.52C582.934 824.61 583.186 822.538 583.368 821.586Z" fill="#2F57BE"/>
<rect width="1440" height="118" fill="#0F89E3"/>
<path d="M1284.34 54.04C1284.35 54.44 1284.35 54.92 1284.35 55.288C1284.35 55.912 1284.35 62.52 1284.35 63.176C1284.35 63.736 1284.32 64.904 1284.32 65.112H1285.68C1285.68 64.904 1285.66 63.88 1285.66 63.352C1285.66 62.696 1285.66 55.336 1285.66 55.336H1294.4C1294.4 55.336 1294.4 62.76 1294.4 63.352C1294.4 64.024 1294.38 64.936 1294.37 65.112H1295.76C1295.74 64.936 1295.73 63.688 1295.73 63.176C1295.73 62.568 1295.73 56.04 1295.73 55.288C1295.73 54.888 1295.73 54.44 1295.76 54.056C1295.26 54.072 1294.69 54.072 1294.35 54.072C1293.57 54.072 1286.61 54.072 1285.76 54.072C1285.38 54.072 1284.96 54.072 1284.34 54.04ZM1294.93 62.952H1285.02V64.2H1294.93V62.952ZM1310.24 52.2L1309.38 52.568C1309.81 53.176 1310.35 54.136 1310.67 54.792L1311.54 54.392C1311.22 53.752 1310.64 52.776 1310.24 52.2ZM1311.98 51.56L1311.15 51.928C1311.6 52.52 1312.11 53.432 1312.46 54.12L1313.33 53.736C1313.02 53.144 1312.42 52.152 1311.98 51.56ZM1311.3 55.384L1310.24 54.744C1309.97 54.856 1309.62 54.904 1309.18 54.904C1308.69 54.904 1304.74 54.904 1304.08 54.904L1303.57 56.056H1309.5C1309.17 57.512 1308.19 59.576 1306.94 61.048C1305.49 62.744 1303.5 64.2 1300.56 65.064L1301.71 66.104C1304.72 65 1306.64 63.528 1308.1 61.752C1309.5 60.024 1310.5 57.848 1310.93 56.248C1311.01 55.992 1311.17 55.624 1311.3 55.384ZM1305.94 52.968L1304.46 52.488C1304.37 52.888 1304.13 53.48 1303.97 53.752C1303.26 55.192 1301.7 57.512 1298.93 59.16L1300.05 59.992C1302.61 58.28 1304.29 55.992 1305.23 54.232C1305.39 53.928 1305.68 53.384 1305.94 52.968ZM1328.9 54.2L1328.1 53.432C1327.87 53.496 1327.3 53.544 1326.99 53.544C1326.03 53.544 1318.56 53.544 1317.79 53.544C1317.2 53.544 1316.54 53.48 1315.98 53.4V54.84C1316.61 54.792 1317.2 54.76 1317.79 54.76C1318.56 54.76 1325.79 54.76 1326.91 54.76C1326.4 55.752 1324.9 57.48 1323.41 58.328L1324.48 59.176C1326.3 57.912 1327.82 55.848 1328.46 54.76C1328.58 54.584 1328.77 54.344 1328.9 54.2ZM1322.5 56.296H1321.06C1321.12 56.728 1321.12 57.08 1321.12 57.464C1321.12 60.136 1320.77 62.408 1318.3 63.928C1317.86 64.232 1317.3 64.504 1316.86 64.648L1318.03 65.608C1322.11 63.56 1322.5 60.632 1322.5 56.296ZM1338.64 52.2H1337.12C1337.18 52.696 1337.2 53.064 1337.2 53.4C1337.2 53.768 1337.2 54.904 1337.2 55.528H1338.56C1338.56 54.968 1338.56 53.768 1338.56 53.4C1338.56 53.064 1338.58 52.696 1338.64 52.2ZM1344.1 55.304L1343.23 54.76C1343.02 54.824 1342.74 54.888 1342.14 54.888H1333.66C1333.1 54.888 1332.62 54.856 1332.16 54.824C1332.22 55.16 1332.22 55.704 1332.22 56.04C1332.22 56.6 1332.22 58.344 1332.22 58.856C1332.22 59.176 1332.21 59.608 1332.16 59.88H1333.55C1333.52 59.64 1333.5 59.208 1333.5 58.936C1333.5 58.44 1333.5 56.728 1333.5 56.072H1342.43C1342.29 57.432 1341.79 59.368 1340.93 60.728C1339.94 62.248 1338.19 63.432 1336.58 63.96C1336.06 64.152 1335.46 64.312 1334.93 64.408L1335.97 65.592C1338.9 64.792 1341.1 63.16 1342.29 61.064C1343.18 59.544 1343.65 57.544 1343.87 56.264C1343.92 55.96 1344.02 55.528 1344.1 55.304ZM1351.38 63.592C1351.38 64.184 1351.36 64.984 1351.28 65.496H1352.83C1352.77 64.968 1352.74 64.104 1352.74 63.592C1352.74 62.84 1352.72 56.776 1352.72 54.296C1352.72 53.8 1352.77 53.112 1352.83 52.616H1351.26C1351.34 53.128 1351.38 53.832 1351.38 54.296C1351.38 55.624 1351.38 62.696 1351.38 63.592ZM1352.43 56.824V58.232C1354.18 58.776 1357.17 59.912 1358.99 60.888L1359.55 59.528C1357.78 58.664 1354.54 57.432 1352.43 56.824Z" fill="white"/>
<path d="M1263 68H1259C1258.47 68 1257.96 67.7893 1257.59 67.4142C1257.21 67.0391 1257 66.5304 1257 66V52C1257 51.4696 1257.21 50.9609 1257.59 50.5858C1257.96 50.2107 1258.47 50 1259 50H1263" stroke="white" stroke-width="2" stroke-linecap="round" stroke-linejoin="round"/>
<path d="M1270 64L1275 59L1270 54" stroke="white" stroke-width="2" stroke-linecap="round" stroke-linejoin="round"/>
<path d="M1275 59H1263" stroke="white" stroke-width="2" stroke-linecap="round" stroke-linejoin="round"/>
<path d="M1061.83 60.728V61.656H1068.2V60.728H1061.83ZM1060.34 52.824V53.736H1069.85V52.824H1060.34ZM1060.73 54.76V55.64H1069.45V54.76H1060.73ZM1059.85 56.76V57.672H1070.31V56.76H1059.85ZM1061.83 62.872V63.768H1068.25V62.872H1061.83ZM1061.02 58.616V66.264H1062.14V59.544H1068.2V58.616H1061.02ZM1067.91 58.616V64.92C1067.91 65.128 1067.85 65.192 1067.62 65.192C1067.4 65.208 1066.63 65.208 1065.83 65.176C1065.98 65.48 1066.14 65.928 1066.18 66.216C1067.32 66.232 1068.04 66.216 1068.49 66.04C1068.94 65.864 1069.06 65.544 1069.06 64.936V58.616H1067.91ZM1064.44 51.56V57.048H1065.62V51.56H1064.44ZM1057.42 51.56V66.264H1058.52V51.56H1057.42ZM1056.15 54.648C1056.06 55.912 1055.8 57.672 1055.43 58.776L1056.36 59.08C1056.73 57.88 1057 56.024 1057.05 54.776L1056.15 54.648ZM1058.66 54.232C1058.98 54.984 1059.35 55.976 1059.51 56.584L1060.34 56.184C1060.2 55.592 1059.82 54.648 1059.46 53.912L1058.66 54.232ZM1079.9 57.752V58.744H1085.13V57.752H1079.9ZM1079.29 52.312V66.296H1080.39V53.384H1085.02V52.312H1079.29ZM1084.44 52.312V55.384C1084.44 55.56 1084.38 55.624 1084.12 55.64C1083.86 55.656 1083.03 55.656 1082.04 55.624C1082.2 55.928 1082.36 56.36 1082.41 56.68C1083.64 56.68 1084.44 56.664 1084.94 56.488C1085.43 56.312 1085.56 55.992 1085.56 55.4V52.312H1084.44ZM1081.46 58.408L1080.52 58.648C1081.46 61.976 1083.24 64.888 1085.7 66.28C1085.9 65.976 1086.26 65.544 1086.54 65.304C1084.14 64.136 1082.33 61.4 1081.46 58.408ZM1084.76 57.752V58.008C1084.26 60.936 1082.76 63.928 1080.36 65.496C1080.63 65.704 1080.98 66.04 1081.16 66.312C1083.72 64.584 1085.3 61.432 1085.93 57.96L1085.19 57.688L1084.98 57.752H1084.76ZM1072.23 53.208V54.248H1078.17V53.208H1072.23ZM1072.04 61.96V63H1078.38V61.96H1072.04ZM1071.66 55.848V56.888H1078.78V55.848H1071.66ZM1071.88 59.176V60.216H1078.58V59.176H1071.88ZM1074.7 51.592V56.216H1075.82V51.592H1074.7ZM1074.7 59.608V66.248H1075.82V59.608H1074.7ZM1076.86 56.824C1076.68 57.448 1076.33 58.392 1076.06 58.984L1076.95 59.256C1077.26 58.696 1077.56 57.864 1077.88 57.096L1076.86 56.824ZM1072.78 57.08C1073.1 57.784 1073.4 58.696 1073.48 59.272L1074.44 59C1074.36 58.44 1074.04 57.528 1073.69 56.856L1072.78 57.08ZM1096.84 59.768V66.136H1097.66V59.768H1096.84ZM1098.89 59.768V66.136H1099.72V59.768H1098.89ZM1093.26 52.536V53.592H1102.07V52.536H1093.26ZM1095.19 62.248V63.16H1101.58V62.248H1095.19ZM1093.88 54.648V58.168C1093.88 60.328 1093.72 63.272 1092.17 65.384C1092.41 65.512 1092.87 65.848 1093.05 66.056C1094.7 63.816 1094.97 60.488 1094.97 58.184V54.648H1093.88ZM1094.36 54.648V55.64H1100.52V57.368H1094.36V58.36H1101.67V54.648H1094.36ZM1094.74 59.448V66.296H1095.64V60.392H1101.64V59.448H1094.74ZM1101 59.448V65.128C1101 65.272 1100.97 65.304 1100.86 65.304C1100.73 65.304 1100.41 65.304 1100.01 65.288C1100.14 65.576 1100.3 65.992 1100.33 66.28C1100.94 66.28 1101.35 66.248 1101.64 66.104C1101.94 65.912 1102.01 65.624 1102.01 65.144V59.448H1101ZM1090.14 51.576C1089.74 52.632 1089 54.2 1088.44 55.128L1089.24 55.48C1089.83 54.584 1090.58 53.144 1091.16 51.96L1090.14 51.576ZM1091.83 53.4C1091 55.08 1089.56 57.464 1088.42 58.888L1089.14 59.272C1090.3 57.896 1091.77 55.624 1092.82 53.848L1091.83 53.4ZM1087.58 54.888C1088.42 55.688 1089.38 56.824 1089.78 57.592L1090.46 56.712C1090.04 55.992 1089.06 54.904 1088.22 54.12L1087.58 54.888ZM1091.22 57.016C1091.82 58.104 1092.36 59.544 1092.54 60.44L1093.43 60.056C1093.27 59.16 1092.68 57.752 1092.07 56.696L1091.22 57.016ZM1087.45 58.648L1087.58 59.72C1088.97 59.624 1090.79 59.512 1092.6 59.4V58.376C1090.68 58.488 1088.78 58.584 1087.45 58.648ZM1091.53 60.904C1091.9 61.832 1092.2 63.048 1092.28 63.848L1093.18 63.576C1093.1 62.792 1092.76 61.576 1092.38 60.664L1091.53 60.904ZM1088.41 60.712C1088.23 62.104 1087.93 63.544 1087.42 64.52C1087.66 64.616 1088.12 64.824 1088.31 64.968C1088.81 63.944 1089.19 62.392 1089.4 60.888L1088.41 60.712ZM1090.02 59.112V66.28H1091.06V59.112H1090.02ZM1103.85 61.352V62.36H1118.15V61.352H1103.85ZM1106.54 55.512V56.36H1116.44V55.512H1106.54ZM1106.54 57.432V58.296H1116.49V57.432H1106.54ZM1106.34 53.464V54.456H1117.1V53.464H1106.34ZM1110.66 54.024V59.768H1111.83V54.024H1110.66ZM1110.36 60.072V66.28H1111.56V60.072H1110.36ZM1110.1 61.72C1108.65 63.16 1105.83 64.504 1103.45 65.112C1103.72 65.352 1104.07 65.8 1104.25 66.12C1106.6 65.384 1109.45 63.864 1111.03 62.2L1110.1 61.72ZM1111.83 61.72L1110.9 62.2C1112.49 63.816 1115.32 65.288 1117.7 65.992C1117.88 65.688 1118.22 65.24 1118.47 65C1116.07 64.408 1113.27 63.128 1111.83 61.72ZM1111.42 51.56C1111.19 52.248 1110.73 53.24 1110.34 53.88L1111.4 54.104C1111.82 53.496 1112.31 52.6 1112.76 51.752L1111.42 51.56ZM1107.24 51.544C1106.52 53 1105.21 54.872 1103.42 56.28C1103.69 56.44 1104.09 56.808 1104.3 57.08C1106.2 55.48 1107.54 53.528 1108.49 51.768L1107.24 51.544ZM1105.78 54.12V60.36H1117.72V59.4H1106.94V54.12H1105.78Z" fill="white"/>
<path d="M1030 51H1023C1022.47 51 1021.96 51.2107 1021.59 51.5858C1021.21 51.9609 1021 52.4696 1021 53V67C1021 67.5304 1021.21 68.0391 1021.59 68.4142C1021.96 68.7893 1022.47 69 1023 69H1037C1037.53 69 1038.04 68.7893 1038.41 68.4142C1038.79 68.0391 1039 67.5304 1039 67V60" stroke="white" stroke-width="2" stroke-linecap="round" stroke-linejoin="round"/>
<path d="M1037.5 49.5002C1037.9 49.1024 1038.44 48.8789 1039 48.8789C1039.56 48.8789 1040.1 49.1024 1040.5 49.5002C1040.9 49.8981 1041.12 50.4376 1041.12 51.0002C1041.12 51.5628 1040.9 52.1024 1040.5 52.5002L1031 62.0002L1027 63.0002L1028 59.0002L1037.5 49.5002Z" stroke="white" stroke-width="2" stroke-linecap="round" stroke-linejoin="round"/>
<path d="M92.5407 57.5341L91.035 57.9602C90.9403 57.7093 90.8006 57.4654 90.6159 57.2287C90.436 56.9872 90.1898 56.7884 89.8773 56.6321C89.5648 56.4759 89.1647 56.3977 88.677 56.3977C88.0094 56.3977 87.4531 56.5516 87.008 56.8594C86.5676 57.1624 86.3475 57.5483 86.3475 58.017C86.3475 58.4337 86.499 58.7628 86.802 59.0043C87.1051 59.2457 87.5785 59.447 88.2225 59.608L89.8418 60.0057C90.8172 60.2424 91.544 60.6046 92.0222 61.0923C92.5004 61.5753 92.7395 62.1979 92.7395 62.9602C92.7395 63.5852 92.5596 64.1439 92.1998 64.6364C91.8446 65.1288 91.3475 65.517 90.7083 65.8011C90.0691 66.0852 89.3257 66.2273 88.4782 66.2273C87.3655 66.2273 86.4445 65.9858 85.7154 65.5028C84.9862 65.0199 84.5246 64.3144 84.3304 63.3864L85.9213 62.9886C86.0729 63.5758 86.3593 64.0161 86.7807 64.3097C87.2069 64.6032 87.7632 64.75 88.4498 64.75C89.231 64.75 89.8513 64.5843 90.3105 64.2528C90.7746 63.9167 91.0066 63.5142 91.0066 63.0455C91.0066 62.6667 90.874 62.3494 90.6088 62.0938C90.3437 61.8333 89.9365 61.6392 89.3873 61.5114L87.5691 61.0852C86.57 60.8485 85.8361 60.4815 85.3674 59.9844C84.9033 59.4825 84.6713 58.8551 84.6713 58.1023C84.6713 57.4867 84.8442 56.9422 85.1898 56.4688C85.5402 55.9953 86.016 55.6236 86.6174 55.3537C87.2234 55.0838 87.91 54.9489 88.677 54.9489C89.7566 54.9489 90.6041 55.1856 91.2196 55.6591C91.8399 56.1326 92.2802 56.7576 92.5407 57.5341ZM96.9387 59.4375V66H95.2626V55.0909H96.8819V56.7955H97.024C97.2797 56.2415 97.6679 55.7964 98.1887 55.4602C98.7096 55.1193 99.3819 54.9489 100.206 54.9489C100.944 54.9489 101.591 55.1004 102.145 55.4034C102.699 55.7017 103.13 56.1562 103.437 56.767C103.745 57.3731 103.899 58.1402 103.899 59.0682V66H102.223V59.1818C102.223 58.3248 102 57.6572 101.555 57.179C101.11 56.696 100.499 56.4545 99.7228 56.4545C99.1878 56.4545 98.7096 56.5705 98.2882 56.8026C97.8715 57.0346 97.5424 57.3731 97.301 57.8182C97.0595 58.2633 96.9387 58.803 96.9387 59.4375ZM114.689 57.5341L113.183 57.9602C113.089 57.7093 112.949 57.4654 112.764 57.2287C112.584 56.9872 112.338 56.7884 112.026 56.6321C111.713 56.4759 111.313 56.3977 110.825 56.3977C110.158 56.3977 109.602 56.5516 109.156 56.8594C108.716 57.1624 108.496 57.5483 108.496 58.017C108.496 58.4337 108.647 58.7628 108.95 59.0043C109.253 59.2457 109.727 59.447 110.371 59.608L111.99 60.0057C112.966 60.2424 113.692 60.6046 114.171 61.0923C114.649 61.5753 114.888 62.1979 114.888 62.9602C114.888 63.5852 114.708 64.1439 114.348 64.6364C113.993 65.1288 113.496 65.517 112.857 65.8011C112.218 66.0852 111.474 66.2273 110.627 66.2273C109.514 66.2273 108.593 65.9858 107.864 65.5028C107.135 65.0199 106.673 64.3144 106.479 63.3864L108.07 62.9886C108.221 63.5758 108.508 64.0161 108.929 64.3097C109.355 64.6032 109.912 64.75 110.598 64.75C111.379 64.75 112 64.5843 112.459 64.2528C112.923 63.9167 113.155 63.5142 113.155 63.0455C113.155 62.6667 113.022 62.3494 112.757 62.0938C112.492 61.8333 112.085 61.6392 111.536 61.5114L109.718 61.0852C108.718 60.8485 107.985 60.4815 107.516 59.9844C107.052 59.4825 106.82 58.8551 106.82 58.1023C106.82 57.4867 106.993 56.9422 107.338 56.4688C107.689 55.9953 108.164 55.6236 108.766 55.3537C109.372 55.0838 110.058 54.9489 110.825 54.9489C111.905 54.9489 112.753 55.1856 113.368 55.6591C113.988 56.1326 114.429 56.7576 114.689 57.5341ZM123.661 58.983V60.5455H117.297V58.983H123.661ZM129.82 66.2557C129.129 66.2557 128.502 66.1255 127.938 65.8651C127.375 65.5999 126.927 65.2188 126.596 64.7216C126.265 64.2197 126.099 63.6136 126.099 62.9034C126.099 62.2784 126.222 61.7718 126.468 61.3835C126.714 60.9905 127.044 60.6828 127.455 60.4602C127.867 60.2377 128.322 60.072 128.819 59.9631C129.321 59.8494 129.825 59.7595 130.332 59.6932C130.995 59.608 131.532 59.544 131.944 59.5014C132.361 59.4541 132.664 59.3759 132.853 59.267C133.047 59.1581 133.144 58.9687 133.144 58.6989V58.642C133.144 57.9413 132.953 57.3968 132.569 57.0085C132.19 56.6203 131.615 56.4261 130.843 56.4261C130.043 56.4261 129.416 56.6013 128.961 56.9517C128.507 57.3021 128.187 57.6761 128.002 58.0739L126.411 57.5057C126.695 56.8428 127.074 56.3267 127.548 55.9574C128.026 55.5833 128.547 55.3229 129.11 55.1761C129.678 55.0246 130.237 54.9489 130.786 54.9489C131.137 54.9489 131.539 54.9915 131.994 55.0767C132.453 55.1572 132.896 55.3253 133.322 55.581C133.753 55.8366 134.11 56.2225 134.394 56.7386C134.678 57.2547 134.82 57.946 134.82 58.8125V66H133.144V64.5227H133.059C132.945 64.7595 132.756 65.0128 132.491 65.2827C132.226 65.5526 131.873 65.7822 131.433 65.9716C130.992 66.161 130.455 66.2557 129.82 66.2557ZM130.076 64.75C130.739 64.75 131.298 64.6198 131.752 64.3594C132.212 64.099 132.557 63.7628 132.789 63.3509C133.026 62.9389 133.144 62.5057 133.144 62.0511V60.517C133.073 60.6023 132.917 60.6804 132.676 60.7514C132.439 60.8177 132.164 60.8769 131.852 60.929C131.544 60.9763 131.243 61.0189 130.95 61.0568C130.661 61.09 130.427 61.1184 130.247 61.142C129.811 61.1989 129.404 61.2912 129.025 61.419C128.651 61.5421 128.348 61.7292 128.116 61.9801C127.889 62.2263 127.775 62.5625 127.775 62.9886C127.775 63.571 127.99 64.0114 128.421 64.3097C128.857 64.6032 129.409 64.75 130.076 64.75ZM137.88 70.0909V55.0909H139.499V56.8239H139.698C139.821 56.6345 139.992 56.393 140.209 56.0994C140.432 55.8011 140.749 55.536 141.161 55.304C141.578 55.0672 142.141 54.9489 142.851 54.9489C143.77 54.9489 144.58 55.1785 145.28 55.6378C145.981 56.0971 146.528 56.7481 146.921 57.5909C147.314 58.4337 147.51 59.428 147.51 60.5739C147.51 61.7292 147.314 62.7306 146.921 63.5781C146.528 64.4209 145.983 65.0743 145.287 65.5384C144.591 65.9976 143.789 66.2273 142.88 66.2273C142.179 66.2273 141.618 66.1113 141.197 65.8793C140.775 65.6425 140.451 65.375 140.224 65.0767C139.996 64.7737 139.821 64.5227 139.698 64.3239H139.556V70.0909H137.88ZM139.528 60.5455C139.528 61.3693 139.648 62.0961 139.89 62.7259C140.131 63.3509 140.484 63.8409 140.948 64.196C141.412 64.5464 141.98 64.7216 142.653 64.7216C143.353 64.7216 143.938 64.5369 144.407 64.1676C144.88 63.7936 145.235 63.2917 145.472 62.6619C145.714 62.0275 145.834 61.322 145.834 60.5455C145.834 59.7784 145.716 59.0871 145.479 58.4716C145.247 57.8513 144.894 57.3613 144.421 57.0014C143.952 56.6368 143.363 56.4545 142.653 56.4545C141.971 56.4545 141.398 56.6274 140.934 56.973C140.47 57.3139 140.119 57.7921 139.883 58.4077C139.646 59.0185 139.528 59.7311 139.528 60.5455ZM150.067 70.0909V55.0909H151.687V56.8239H151.885C152.009 56.6345 152.179 56.393 152.397 56.0994C152.619 55.8011 152.937 55.536 153.349 55.304C153.765 55.0672 154.329 54.9489 155.039 54.9489C155.957 54.9489 156.767 55.1785 157.468 55.6378C158.169 56.0971 158.715 56.7481 159.108 57.5909C159.501 58.4337 159.698 59.428 159.698 60.5739C159.698 61.7292 159.501 62.7306 159.108 63.5781C158.715 64.4209 158.171 65.0743 157.475 65.5384C156.779 65.9976 155.976 66.2273 155.067 66.2273C154.367 66.2273 153.805 66.1113 153.384 65.8793C152.963 65.6425 152.638 65.375 152.411 65.0767C152.184 64.7737 152.009 64.5227 151.885 64.3239H151.743V70.0909H150.067ZM151.715 60.5455C151.715 61.3693 151.836 62.0961 152.077 62.7259C152.319 63.3509 152.671 63.8409 153.135 64.196C153.599 64.5464 154.168 64.7216 154.84 64.7216C155.541 64.7216 156.126 64.5369 156.594 64.1676C157.068 63.7936 157.423 63.2917 157.66 62.6619C157.901 62.0275 158.022 61.322 158.022 60.5455C158.022 59.7784 157.903 59.0871 157.667 58.4716C157.435 57.8513 157.082 57.3613 156.608 57.0014C156.14 56.6368 155.55 56.4545 154.84 56.4545C154.158 56.4545 153.585 56.6274 153.121 56.973C152.657 57.3139 152.307 57.7921 152.07 58.4077C151.833 59.0185 151.715 59.7311 151.715 60.5455Z" fill="white"/>
<path d="M655.036 182.536V184.096H663.94V182.536H655.036ZM649.06 195.856V197.368H669.964V195.856H649.06ZM650.5 176.776V178.288H657.604V176.776H650.5ZM657.028 176.776V177.112C655.54 180.928 651.652 184.288 648.124 185.776C648.484 186.088 648.964 186.712 649.204 187.096C653.02 185.32 657.028 181.888 658.828 177.28L657.676 176.68L657.34 176.776H657.028ZM661.084 175.912L659.572 176.416C661.612 180.976 665.284 184.888 669.532 186.808C669.82 186.328 670.324 185.68 670.756 185.32C666.604 183.712 662.932 179.992 661.084 175.912ZM649.852 180.16C651.1 180.928 652.54 182.128 653.26 182.968L654.268 181.864C653.572 181 652.084 179.896 650.812 179.176L649.852 180.16ZM665.908 176.056C664.948 177.112 663.244 178.576 662.02 179.464L663.124 180.328C664.372 179.488 666.028 178.192 667.276 177.016L665.908 176.056ZM668.596 178.888C667.588 179.968 665.812 181.432 664.516 182.296L665.62 183.16C666.94 182.344 668.668 181.048 669.94 179.848L668.596 178.888ZM654.604 187.552H664.324V190.72H654.604V187.552ZM652.828 186.064V192.208H666.172V186.064H652.828ZM654.22 192.592C654.868 193.648 655.468 195.112 655.708 196.048L657.412 195.52C657.172 194.584 656.548 193.168 655.876 192.136L654.22 192.592ZM663.148 192.064C662.764 193.12 661.996 194.68 661.396 195.616L662.932 196.072C663.532 195.136 664.252 193.816 664.9 192.544L663.148 192.064ZM692.932 186.376C692.26 187.432 691.012 188.896 690.124 189.808L691.276 190.6C692.212 189.736 693.388 188.464 694.348 187.288L692.932 186.376ZM682.204 187.576C683.212 188.56 684.316 189.952 684.772 190.864L686.092 190C685.588 189.064 684.46 187.744 683.428 186.784L682.204 187.576ZM682.948 176.824V178.336H690.892V184.864H692.572V176.824H682.948ZM683.428 180.4V181.864H691.852V180.4H683.428ZM681.7 183.952V185.536H694.54V183.952H681.7ZM687.1 184.696V196C687.1 196.288 687.028 196.36 686.764 196.36C686.476 196.36 685.66 196.384 684.748 196.336C684.964 196.816 685.18 197.488 685.252 197.944C686.572 197.944 687.46 197.92 688.036 197.656C688.636 197.392 688.78 196.912 688.78 196.048V184.696H687.1ZM681.196 194.776L682.036 196.264C683.452 195.304 685.108 194.104 686.644 192.928L686.092 191.536C684.292 192.784 682.444 194.032 681.196 194.776ZM688.708 185.776L687.676 186.976C688.42 189.928 690.172 194.272 693.796 196.48C694.06 196.024 694.612 195.328 694.972 194.992C691.276 193.048 689.428 188.968 688.708 185.776ZM674.092 181.792V183.352H680.932V181.792H674.092ZM672.796 185.896V187.48H681.58V185.896H672.796ZM673.348 189.064C673.804 190.528 674.188 192.4 674.212 193.648L675.556 193.312C675.46 192.064 675.076 190.216 674.596 188.752L673.348 189.064ZM672.58 195.52L672.94 197.2C675.34 196.696 678.532 195.976 681.628 195.328L681.484 193.792C678.22 194.464 674.836 195.136 672.58 195.52ZM680.02 188.536C679.804 189.808 679.372 191.704 679.012 192.88L680.188 193.216C680.596 192.088 681.004 190.36 681.412 188.896L680.02 188.536ZM676.564 182.368V195.712L678.148 195.448V182.368H676.564ZM676.492 175.864C675.676 177.784 674.14 180.232 671.956 182.056C672.292 182.296 672.82 182.824 673.084 183.184C675.46 181.096 677.02 178.552 677.956 176.704V176.248H677.428V175.864H676.492ZM676.78 175.864V177.136H677.116C678.508 178.336 680.14 180.328 680.956 181.552L682.156 180.184C681.316 178.984 679.54 177.136 678.124 175.864H676.78ZM705.748 189.592V190.984H715.3V189.592H705.748ZM703.516 177.736V179.104H717.772V177.736H703.516ZM704.092 180.64V181.96H717.172V180.64H704.092ZM702.772 183.64V185.008H718.468V183.64H702.772ZM705.748 192.808V194.152H715.372V192.808H705.748ZM704.524 186.424V197.896H706.204V187.816H715.3V186.424H704.524ZM714.868 186.424V195.88C714.868 196.192 714.772 196.288 714.436 196.288C714.1 196.312 712.948 196.312 711.748 196.264C711.964 196.72 712.204 197.392 712.276 197.824C713.98 197.848 715.06 197.824 715.732 197.56C716.404 197.296 716.596 196.816 716.596 195.904V186.424H714.868ZM709.66 175.84V184.072H711.436V175.84H709.66ZM699.124 175.84V197.896H700.78V175.84H699.124ZM697.228 180.472C697.084 182.368 696.7 185.008 696.148 186.664L697.54 187.12C698.092 185.32 698.5 182.536 698.572 180.664L697.228 180.472ZM700.996 179.848C701.476 180.976 702.028 182.464 702.268 183.376L703.516 182.776C703.3 181.888 702.724 180.472 702.196 179.368L700.996 179.848ZM732.844 185.128V186.616H740.692V185.128H732.844ZM731.932 176.968V197.944H733.588V178.576H740.524V176.968H731.932ZM739.66 176.968V181.576C739.66 181.84 739.564 181.936 739.18 181.96C738.796 181.984 737.548 181.984 736.06 181.936C736.3 182.392 736.54 183.04 736.612 183.52C738.46 183.52 739.66 183.496 740.404 183.232C741.148 182.968 741.34 182.488 741.34 181.6V176.968H739.66ZM735.196 186.112L733.78 186.472C735.196 191.464 737.86 195.832 741.556 197.92C741.844 197.464 742.396 196.816 742.804 196.456C739.204 194.704 736.492 190.6 735.196 186.112ZM740.14 185.128V185.512C739.396 189.904 737.14 194.392 733.54 196.744C733.948 197.056 734.476 197.56 734.74 197.968C738.58 195.376 740.956 190.648 741.892 185.44L740.788 185.032L740.476 185.128H740.14ZM721.348 178.312V179.872H730.252V178.312H721.348ZM721.06 191.44V193H730.564V191.44H721.06ZM720.484 182.272V183.832H731.164V182.272H720.484ZM720.82 187.264V188.824H730.876V187.264H720.82ZM725.044 175.888V182.824H726.724V175.888H725.044ZM725.044 187.912V197.872H726.724V187.912H725.044ZM728.284 183.736C728.02 184.672 727.492 186.088 727.084 186.976L728.428 187.384C728.884 186.544 729.34 185.296 729.82 184.144L728.284 183.736ZM722.164 184.12C722.644 185.176 723.1 186.544 723.22 187.408L724.66 187C724.54 186.16 724.06 184.792 723.532 183.784L722.164 184.12ZM745.012 178.24V179.944H766.06V178.24H745.012ZM754.54 175.864V178.912H756.388V175.864H754.54ZM757.78 178.912V185.2C757.78 185.464 757.708 185.536 757.396 185.536C757.06 185.56 756.028 185.56 754.852 185.512C755.044 186.016 755.26 186.64 755.332 187.144C756.94 187.144 758.044 187.12 758.692 186.856C759.388 186.592 759.532 186.136 759.532 185.224V178.912H757.78ZM752.764 178.72V180.04C752.764 182.056 752.452 184.792 748.972 186.808C749.38 187.072 750.004 187.648 750.268 188.032C754.084 185.728 754.444 182.536 754.444 180.064V178.72H752.764ZM760.78 181.888C762.34 183.328 764.164 185.344 764.956 186.664L766.468 185.728C765.604 184.408 763.732 182.44 762.196 181.048L760.78 181.888ZM748.636 181.168C747.892 182.68 746.236 184.384 744.58 185.392C744.94 185.656 745.516 186.136 745.828 186.472C747.58 185.32 749.332 183.448 750.34 181.648L748.636 181.168ZM751.492 189.688L749.908 190.24C752.836 194.752 758.284 197.2 765.508 197.992C765.724 197.464 766.18 196.72 766.564 196.312C759.532 195.736 753.988 193.552 751.492 189.688ZM752.884 186.688C751.516 188.608 748.9 190.696 745.204 192.112C745.588 192.4 746.092 193.024 746.356 193.432C750.244 191.752 753.004 189.496 754.804 187.072L752.884 186.688ZM752.164 188.512L750.844 190H761.14V188.512H752.164ZM760.66 188.512V188.824C758.116 193.408 751.612 195.592 744.604 196.408C744.94 196.768 745.348 197.56 745.492 197.992C752.668 196.984 759.508 194.584 762.556 189.256L761.404 188.44L761.068 188.512H760.66ZM769.036 177.136V178.768H789.94V177.136H769.036ZM778.708 177.832V187.12C778.708 191.104 777.964 194.632 768.604 196.36C768.988 196.792 769.492 197.56 769.684 197.944C779.308 195.904 780.58 191.776 780.58 187.144V177.832H778.708ZM772.948 186.136H786.628V188.584H772.948V186.136ZM772.948 182.296H786.628V184.696H772.948V182.296ZM771.244 180.784V190.096H788.452V180.784H771.244ZM773.548 190.288L772.012 190.912C775.228 196.36 781.132 197.488 789.964 197.848C790.06 197.272 790.42 196.504 790.732 196.072C782.068 195.856 776.596 195.04 773.548 190.288Z" fill="black"/>
</g>
<defs>
<clipPath id="clip0_21_207">
<rect width="1440" height="1024" fill="white"/>
</clipPath>
</defs>
</svg>
