<svg width="1440" height="1024" viewBox="0 0 1440 1024" fill="none" xmlns="http://www.w3.org/2000/svg">
<rect width="1440" height="1024" fill="white"/>
<rect x="419" y="299" width="600" height="300" fill="#D9D9D9"/>
<rect x="644.5" y="321.5" width="298" height="57" rx="9.5" fill="white" stroke="#2F57BE"/>
<path d="M734.826 344.808L733.552 344.374C733.482 344.668 733.356 345.13 733.258 345.41C732.782 346.782 732.082 348.336 730.934 349.82C729.492 351.654 727.7 353.32 725.096 354.566L726.048 355.434C728.694 354.062 730.514 352.214 731.858 350.506C733.006 349.05 733.846 347.23 734.378 345.844C734.49 345.55 734.686 345.074 734.826 344.808ZM727.434 346.46L726.692 347.342C728.232 348.28 730.052 349.666 731.06 350.506C732.46 351.682 733.678 352.788 734.84 354.132L735.722 353.166C734.616 351.962 733.23 350.744 731.83 349.596C730.766 348.742 728.82 347.342 727.434 346.46ZM738.914 348.938V350.31C739.362 350.282 740.104 350.254 740.874 350.254C741.91 350.254 747.496 350.254 748.56 350.254C749.176 350.254 749.764 350.296 750.058 350.31V348.938C749.736 348.966 749.246 349.022 748.546 349.022C747.51 349.022 741.896 349.022 740.874 349.022C740.076 349.022 739.348 348.98 738.914 348.938ZM758.822 354.706L759.564 355.322C759.676 355.252 759.816 355.126 760.054 355.014C761.678 354.202 763.61 352.774 764.828 351.136L764.156 350.17C763.092 351.752 761.37 353.026 760.068 353.614C760.068 353.194 760.068 346.418 760.068 345.55C760.068 345.018 760.124 344.612 760.138 344.5H758.85C758.85 344.612 758.92 345.004 758.92 345.536C758.92 346.418 758.92 353.278 758.92 353.922C758.92 354.202 758.878 354.496 758.822 354.706ZM752.41 354.65L753.474 355.35C754.65 354.37 755.546 353.012 755.966 351.514C756.344 350.114 756.386 347.104 756.386 345.55C756.386 345.144 756.442 344.71 756.456 344.556H755.168C755.238 344.85 755.266 345.158 755.266 345.564C755.266 347.132 755.266 349.918 754.846 351.206C754.426 352.564 753.6 353.81 752.41 354.65ZM778.534 345.55L777.834 344.878C777.638 344.934 777.134 344.976 776.868 344.976C776.028 344.976 769.49 344.976 768.818 344.976C768.3 344.976 767.726 344.92 767.236 344.85V346.11C767.782 346.068 768.3 346.04 768.818 346.04C769.49 346.04 775.818 346.04 776.798 346.04C776.35 346.908 775.034 348.42 773.732 349.162L774.67 349.904C776.266 348.798 777.596 346.992 778.156 346.04C778.254 345.886 778.422 345.676 778.534 345.55ZM772.934 347.384H771.674C771.73 347.762 771.73 348.07 771.73 348.406C771.73 350.744 771.422 352.732 769.266 354.062C768.874 354.328 768.384 354.566 768.006 354.692L769.028 355.532C772.598 353.74 772.934 351.178 772.934 347.384ZM788.684 344.934L787.9 345.27C788.362 345.9 788.81 346.67 789.16 347.412L789.958 347.048C789.636 346.376 789.034 345.438 788.684 344.934ZM790.364 344.234L789.608 344.598C790.07 345.214 790.532 345.956 790.896 346.698L791.68 346.306C791.358 345.648 790.742 344.724 790.364 344.234ZM783.77 353.95C783.77 354.482 783.742 355.168 783.672 355.616H785.03C784.974 355.154 784.946 354.398 784.946 353.95C784.946 353.292 784.932 348 784.932 345.816C784.932 345.396 784.988 344.78 785.03 344.36H783.658C783.728 344.794 783.77 345.41 783.77 345.816C783.77 346.992 783.77 353.18 783.77 353.95ZM784.68 348.028V349.26C786.206 349.736 788.824 350.73 790.42 351.584L790.91 350.408C789.356 349.638 786.542 348.56 784.68 348.028ZM796.608 354.566L797.406 355.252C797.63 355.126 797.854 355.056 797.994 355.014C801.494 353.992 804.378 352.27 806.198 350.016L805.568 349.036C803.818 351.29 800.584 353.124 797.896 353.81C797.896 353.096 797.896 347.188 797.896 345.858C797.896 345.466 797.952 344.934 797.994 344.598H796.622C796.678 344.864 796.734 345.494 796.734 345.872C796.734 347.202 796.734 352.998 796.734 353.88C796.734 354.146 796.706 354.342 796.608 354.566ZM818.686 345.648L817.986 345.102C817.762 345.172 817.384 345.214 816.936 345.214C816.404 345.214 812.078 345.214 811.532 345.214C811.098 345.214 810.3 345.158 810.118 345.13V346.39C810.272 346.376 811.028 346.32 811.532 346.32C812.008 346.32 816.488 346.32 816.992 346.32C816.628 347.482 815.606 349.148 814.654 350.226C813.212 351.822 811.154 353.502 808.886 354.37L809.782 355.308C811.994 354.3 813.996 352.634 815.564 350.884C816.726 349.596 817.79 347.636 818.35 346.25C818.42 346.068 818.602 345.76 818.686 345.648ZM815.746 350.156L814.948 350.94C816.46 352.27 818.098 354.062 819.106 355.392L820.072 354.538C819.12 353.376 817.258 351.416 815.746 350.156ZM827.94 343.94L826.792 343.842C826.75 344.5 826.554 345.34 826.246 346.11C825.77 347.3 824.832 348.924 822.816 350.856L823.782 351.57C824.244 350.996 824.636 350.492 825.042 350.1C825.686 349.526 826.568 349.078 827.464 349.078C828.192 349.078 828.752 349.456 828.766 350.268C828.78 350.996 828.766 352.438 828.71 353.18H829.788C829.774 352.312 829.746 350.702 829.746 349.974C829.746 348.84 828.906 348.196 827.828 348.196C827.212 348.196 826.414 348.392 825.868 348.714C826.428 347.986 826.946 347.048 827.296 346.194C827.66 345.256 827.814 344.486 827.94 343.94ZM823.138 345.452V346.502C823.922 346.558 824.846 346.586 825.448 346.586C827.226 346.586 829.83 346.46 831.79 346.166V345.13C829.816 345.48 827.394 345.592 825.504 345.592C824.86 345.592 823.894 345.55 823.138 345.452ZM833.834 348.826L833.386 347.79C832.994 347.986 832.644 348.14 832.224 348.336C831.3 348.77 830.166 349.204 828.836 349.89C827.17 350.744 825.434 351.794 825.434 353.502C825.434 355.196 827.044 355.63 829.032 355.63C830.25 355.63 831.804 355.518 832.868 355.392L832.91 354.258C831.678 354.482 830.166 354.608 829.074 354.608C827.632 354.608 826.554 354.44 826.554 353.348C826.554 352.382 827.534 351.626 828.92 350.898C830.278 350.198 831.608 349.666 832.602 349.274C832.98 349.134 833.484 348.938 833.834 348.826ZM838.678 344.094V345.158H842.64V344.094H838.678ZM842.108 344.094C842.108 346.726 842.57 352.69 848.17 356.078C848.366 355.826 848.786 355.378 849.024 355.196C843.494 351.92 843.186 346.6 843.186 344.094H842.108ZM841.716 346.838C840.862 350.8 839.112 353.628 836.004 355.252C836.284 355.448 836.76 355.882 836.956 356.106C840.05 354.286 841.898 351.332 842.906 347.062L841.716 346.838ZM850.648 346.306V347.37H861.512V346.306H850.648ZM861.106 346.306V346.53C860.826 352.088 860.518 354.272 859.986 354.79C859.804 354.958 859.636 355 859.328 355C858.978 355 858.082 354.986 857.13 354.902C857.326 355.21 857.466 355.672 857.48 355.98C858.348 356.036 859.244 356.064 859.734 356.008C860.266 355.966 860.602 355.854 860.938 355.448C861.554 354.748 861.848 352.662 862.17 346.866C862.184 346.698 862.198 346.306 862.198 346.306H861.106ZM855.226 343.268V345.704C855.226 348.602 854.89 352.578 850.242 355.35C850.494 355.532 850.886 355.924 851.04 356.176C855.94 353.222 856.332 348.896 856.332 345.704V343.268H855.226Z" fill="#C2C3C4"/>
<path d="M517.326 344.808L516.052 344.374C515.982 344.668 515.856 345.13 515.758 345.41C515.282 346.782 514.582 348.336 513.434 349.82C511.992 351.654 510.2 353.32 507.596 354.566L508.548 355.434C511.194 354.062 513.014 352.214 514.358 350.506C515.506 349.05 516.346 347.23 516.878 345.844C516.99 345.55 517.186 345.074 517.326 344.808ZM509.934 346.46L509.192 347.342C510.732 348.28 512.552 349.666 513.56 350.506C514.96 351.682 516.178 352.788 517.34 354.132L518.222 353.166C517.116 351.962 515.73 350.744 514.33 349.596C513.266 348.742 511.32 347.342 509.934 346.46ZM521.414 348.938V350.31C521.862 350.282 522.604 350.254 523.374 350.254C524.41 350.254 529.996 350.254 531.06 350.254C531.676 350.254 532.264 350.296 532.558 350.31V348.938C532.236 348.966 531.746 349.022 531.046 349.022C530.01 349.022 524.396 349.022 523.374 349.022C522.576 349.022 521.848 348.98 521.414 348.938ZM541.322 354.706L542.064 355.322C542.176 355.252 542.316 355.126 542.554 355.014C544.178 354.202 546.11 352.774 547.328 351.136L546.656 350.17C545.592 351.752 543.87 353.026 542.568 353.614C542.568 353.194 542.568 346.418 542.568 345.55C542.568 345.018 542.624 344.612 542.638 344.5H541.35C541.35 344.612 541.42 345.004 541.42 345.536C541.42 346.418 541.42 353.278 541.42 353.922C541.42 354.202 541.378 354.496 541.322 354.706ZM534.91 354.65L535.974 355.35C537.15 354.37 538.046 353.012 538.466 351.514C538.844 350.114 538.886 347.104 538.886 345.55C538.886 345.144 538.942 344.71 538.956 344.556H537.668C537.738 344.85 537.766 345.158 537.766 345.564C537.766 347.132 537.766 349.918 537.346 351.206C536.926 352.564 536.1 353.81 534.91 354.65ZM561.034 345.55L560.334 344.878C560.138 344.934 559.634 344.976 559.368 344.976C558.528 344.976 551.99 344.976 551.318 344.976C550.8 344.976 550.226 344.92 549.736 344.85V346.11C550.282 346.068 550.8 346.04 551.318 346.04C551.99 346.04 558.318 346.04 559.298 346.04C558.85 346.908 557.534 348.42 556.232 349.162L557.17 349.904C558.766 348.798 560.096 346.992 560.656 346.04C560.754 345.886 560.922 345.676 561.034 345.55ZM555.434 347.384H554.174C554.23 347.762 554.23 348.07 554.23 348.406C554.23 350.744 553.922 352.732 551.766 354.062C551.374 354.328 550.884 354.566 550.506 354.692L551.528 355.532C555.098 353.74 555.434 351.178 555.434 347.384ZM571.184 344.934L570.4 345.27C570.862 345.9 571.31 346.67 571.66 347.412L572.458 347.048C572.136 346.376 571.534 345.438 571.184 344.934ZM572.864 344.234L572.108 344.598C572.57 345.214 573.032 345.956 573.396 346.698L574.18 346.306C573.858 345.648 573.242 344.724 572.864 344.234ZM566.27 353.95C566.27 354.482 566.242 355.168 566.172 355.616H567.53C567.474 355.154 567.446 354.398 567.446 353.95C567.446 353.292 567.432 348 567.432 345.816C567.432 345.396 567.488 344.78 567.53 344.36H566.158C566.228 344.794 566.27 345.41 566.27 345.816C566.27 346.992 566.27 353.18 566.27 353.95ZM567.18 348.028V349.26C568.706 349.736 571.324 350.73 572.92 351.584L573.41 350.408C571.856 349.638 569.042 348.56 567.18 348.028ZM579.108 354.566L579.906 355.252C580.13 355.126 580.354 355.056 580.494 355.014C583.994 353.992 586.878 352.27 588.698 350.016L588.068 349.036C586.318 351.29 583.084 353.124 580.396 353.81C580.396 353.096 580.396 347.188 580.396 345.858C580.396 345.466 580.452 344.934 580.494 344.598H579.122C579.178 344.864 579.234 345.494 579.234 345.872C579.234 347.202 579.234 352.998 579.234 353.88C579.234 354.146 579.206 354.342 579.108 354.566ZM601.186 345.648L600.486 345.102C600.262 345.172 599.884 345.214 599.436 345.214C598.904 345.214 594.578 345.214 594.032 345.214C593.598 345.214 592.8 345.158 592.618 345.13V346.39C592.772 346.376 593.528 346.32 594.032 346.32C594.508 346.32 598.988 346.32 599.492 346.32C599.128 347.482 598.106 349.148 597.154 350.226C595.712 351.822 593.654 353.502 591.386 354.37L592.282 355.308C594.494 354.3 596.496 352.634 598.064 350.884C599.226 349.596 600.29 347.636 600.85 346.25C600.92 346.068 601.102 345.76 601.186 345.648ZM598.246 350.156L597.448 350.94C598.96 352.27 600.598 354.062 601.606 355.392L602.572 354.538C601.62 353.376 599.758 351.416 598.246 350.156Z" fill="black"/>
<rect x="644.5" y="391.5" width="298" height="57" rx="9.5" fill="white" stroke="#2F57BE"/>
<path d="M748.448 415.242C748.448 414.738 748.868 414.318 749.372 414.318C749.876 414.318 750.296 414.738 750.296 415.242C750.296 415.76 749.876 416.166 749.372 416.166C748.868 416.166 748.448 415.76 748.448 415.242ZM747.804 415.242C747.804 416.11 748.504 416.81 749.372 416.81C750.24 416.81 750.94 416.11 750.94 415.242C750.94 414.374 750.24 413.674 749.372 413.674C748.504 413.674 747.804 414.374 747.804 415.242ZM740.538 420.8C740.062 421.962 739.264 423.432 738.382 424.608L739.572 425.112C740.356 423.978 741.126 422.536 741.644 421.262C742.232 419.82 742.722 417.748 742.904 416.88C742.974 416.586 743.072 416.166 743.17 415.858L741.924 415.606C741.728 417.216 741.154 419.344 740.538 420.8ZM747.44 420.268C748.014 421.752 748.672 423.656 749.022 425.07L750.268 424.678C749.89 423.404 749.148 421.262 748.588 419.876C747.986 418.406 747.09 416.474 746.544 415.452L745.41 415.83C746.012 416.88 746.88 418.826 747.44 420.268ZM762.686 415.648L761.986 415.102C761.762 415.172 761.384 415.214 760.936 415.214C760.404 415.214 756.078 415.214 755.532 415.214C755.098 415.214 754.3 415.158 754.118 415.13V416.39C754.272 416.376 755.028 416.32 755.532 416.32C756.008 416.32 760.488 416.32 760.992 416.32C760.628 417.482 759.606 419.148 758.654 420.226C757.212 421.822 755.154 423.502 752.886 424.37L753.782 425.308C755.994 424.3 757.996 422.634 759.564 420.884C760.726 419.596 761.79 417.636 762.35 416.25C762.42 416.068 762.602 415.76 762.686 415.648ZM759.746 420.156L758.948 420.94C760.46 422.27 762.098 424.062 763.106 425.392L764.072 424.538C763.12 423.376 761.258 421.416 759.746 420.156ZM777.764 415.662L776.91 415.13C776.658 415.186 776.322 415.2 776.028 415.2C775.23 415.2 769.308 415.2 768.832 415.2C768.23 415.2 767.712 415.2 767.348 415.172C767.376 415.466 767.39 415.774 767.39 416.096C767.39 416.698 767.39 418.644 767.39 419.092C767.39 419.358 767.376 419.652 767.348 419.988H768.608C768.58 419.638 768.58 419.288 768.58 419.092C768.58 418.644 768.58 416.684 768.58 416.292C769.574 416.292 775.51 416.292 776.294 416.292C776.154 417.944 775.762 419.736 774.964 420.968C773.83 422.76 771.828 423.978 769.77 424.538L770.722 425.49C772.976 424.762 774.88 423.334 776.014 421.556C777.036 419.974 777.33 417.972 777.582 416.32C777.596 416.18 777.694 415.802 777.764 415.662ZM780.914 418.938V420.31C781.362 420.282 782.104 420.254 782.874 420.254C783.91 420.254 789.496 420.254 790.56 420.254C791.176 420.254 791.764 420.296 792.058 420.31V418.938C791.736 418.966 791.246 419.022 790.546 419.022C789.51 419.022 783.896 419.022 782.874 419.022C782.076 419.022 781.348 418.98 780.914 418.938ZM802.684 414.934L801.9 415.27C802.362 415.9 802.81 416.67 803.16 417.412L803.958 417.048C803.636 416.376 803.034 415.438 802.684 414.934ZM804.364 414.234L803.608 414.598C804.07 415.214 804.532 415.956 804.896 416.698L805.68 416.306C805.358 415.648 804.742 414.724 804.364 414.234ZM797.77 423.95C797.77 424.482 797.742 425.168 797.672 425.616H799.03C798.974 425.154 798.946 424.398 798.946 423.95C798.946 423.292 798.932 418 798.932 415.816C798.932 415.396 798.988 414.78 799.03 414.36H797.658C797.728 414.794 797.77 415.41 797.77 415.816C797.77 416.992 797.77 423.18 797.77 423.95ZM798.68 418.028V419.26C800.206 419.736 802.824 420.73 804.42 421.584L804.91 420.408C803.356 419.638 800.542 418.56 798.68 418.028ZM813.94 413.94L812.792 413.842C812.75 414.5 812.554 415.34 812.246 416.11C811.77 417.3 810.832 418.924 808.816 420.856L809.782 421.57C810.244 420.996 810.636 420.492 811.042 420.1C811.686 419.526 812.568 419.078 813.464 419.078C814.192 419.078 814.752 419.456 814.766 420.268C814.78 420.996 814.766 422.438 814.71 423.18H815.788C815.774 422.312 815.746 420.702 815.746 419.974C815.746 418.84 814.906 418.196 813.828 418.196C813.212 418.196 812.414 418.392 811.868 418.714C812.428 417.986 812.946 417.048 813.296 416.194C813.66 415.256 813.814 414.486 813.94 413.94ZM809.138 415.452V416.502C809.922 416.558 810.846 416.586 811.448 416.586C813.226 416.586 815.83 416.46 817.79 416.166V415.13C815.816 415.48 813.394 415.592 811.504 415.592C810.86 415.592 809.894 415.55 809.138 415.452ZM819.834 418.826L819.386 417.79C818.994 417.986 818.644 418.14 818.224 418.336C817.3 418.77 816.166 419.204 814.836 419.89C813.17 420.744 811.434 421.794 811.434 423.502C811.434 425.196 813.044 425.63 815.032 425.63C816.25 425.63 817.804 425.518 818.868 425.392L818.91 424.258C817.678 424.482 816.166 424.608 815.074 424.608C813.632 424.608 812.554 424.44 812.554 423.348C812.554 422.382 813.534 421.626 814.92 420.898C816.278 420.198 817.608 419.666 818.602 419.274C818.98 419.134 819.484 418.938 819.834 418.826ZM824.678 414.094V415.158H828.64V414.094H824.678ZM828.108 414.094C828.108 416.726 828.57 422.69 834.17 426.078C834.366 425.826 834.786 425.378 835.024 425.196C829.494 421.92 829.186 416.6 829.186 414.094H828.108ZM827.716 416.838C826.862 420.8 825.112 423.628 822.004 425.252C822.284 425.448 822.76 425.882 822.956 426.106C826.05 424.286 827.898 421.332 828.906 417.062L827.716 416.838ZM836.648 416.306V417.37H847.512V416.306H836.648ZM847.106 416.306V416.53C846.826 422.088 846.518 424.272 845.986 424.79C845.804 424.958 845.636 425 845.328 425C844.978 425 844.082 424.986 843.13 424.902C843.326 425.21 843.466 425.672 843.48 425.98C844.348 426.036 845.244 426.064 845.734 426.008C846.266 425.966 846.602 425.854 846.938 425.448C847.554 424.748 847.848 422.662 848.17 416.866C848.184 416.698 848.198 416.306 848.198 416.306H847.106ZM841.226 413.268V415.704C841.226 418.602 840.89 422.578 836.242 425.35C836.494 425.532 836.886 425.924 837.04 426.176C841.94 423.222 842.332 418.896 842.332 415.704V413.268H841.226Z" fill="#C2C3C4"/>
<path d="M530.948 415.242C530.948 414.738 531.368 414.318 531.872 414.318C532.376 414.318 532.796 414.738 532.796 415.242C532.796 415.76 532.376 416.166 531.872 416.166C531.368 416.166 530.948 415.76 530.948 415.242ZM530.304 415.242C530.304 416.11 531.004 416.81 531.872 416.81C532.74 416.81 533.44 416.11 533.44 415.242C533.44 414.374 532.74 413.674 531.872 413.674C531.004 413.674 530.304 414.374 530.304 415.242ZM523.038 420.8C522.562 421.962 521.764 423.432 520.882 424.608L522.072 425.112C522.856 423.978 523.626 422.536 524.144 421.262C524.732 419.82 525.222 417.748 525.404 416.88C525.474 416.586 525.572 416.166 525.67 415.858L524.424 415.606C524.228 417.216 523.654 419.344 523.038 420.8ZM529.94 420.268C530.514 421.752 531.172 423.656 531.522 425.07L532.768 424.678C532.39 423.404 531.648 421.262 531.088 419.876C530.486 418.406 529.59 416.474 529.044 415.452L527.91 415.83C528.512 416.88 529.38 418.826 529.94 420.268ZM545.186 415.648L544.486 415.102C544.262 415.172 543.884 415.214 543.436 415.214C542.904 415.214 538.578 415.214 538.032 415.214C537.598 415.214 536.8 415.158 536.618 415.13V416.39C536.772 416.376 537.528 416.32 538.032 416.32C538.508 416.32 542.988 416.32 543.492 416.32C543.128 417.482 542.106 419.148 541.154 420.226C539.712 421.822 537.654 423.502 535.386 424.37L536.282 425.308C538.494 424.3 540.496 422.634 542.064 420.884C543.226 419.596 544.29 417.636 544.85 416.25C544.92 416.068 545.102 415.76 545.186 415.648ZM542.246 420.156L541.448 420.94C542.96 422.27 544.598 424.062 545.606 425.392L546.572 424.538C545.62 423.376 543.758 421.416 542.246 420.156ZM560.264 415.662L559.41 415.13C559.158 415.186 558.822 415.2 558.528 415.2C557.73 415.2 551.808 415.2 551.332 415.2C550.73 415.2 550.212 415.2 549.848 415.172C549.876 415.466 549.89 415.774 549.89 416.096C549.89 416.698 549.89 418.644 549.89 419.092C549.89 419.358 549.876 419.652 549.848 419.988H551.108C551.08 419.638 551.08 419.288 551.08 419.092C551.08 418.644 551.08 416.684 551.08 416.292C552.074 416.292 558.01 416.292 558.794 416.292C558.654 417.944 558.262 419.736 557.464 420.968C556.33 422.76 554.328 423.978 552.27 424.538L553.222 425.49C555.476 424.762 557.38 423.334 558.514 421.556C559.536 419.974 559.83 417.972 560.082 416.32C560.096 416.18 560.194 415.802 560.264 415.662ZM563.414 418.938V420.31C563.862 420.282 564.604 420.254 565.374 420.254C566.41 420.254 571.996 420.254 573.06 420.254C573.676 420.254 574.264 420.296 574.558 420.31V418.938C574.236 418.966 573.746 419.022 573.046 419.022C572.01 419.022 566.396 419.022 565.374 419.022C564.576 419.022 563.848 418.98 563.414 418.938ZM585.184 414.934L584.4 415.27C584.862 415.9 585.31 416.67 585.66 417.412L586.458 417.048C586.136 416.376 585.534 415.438 585.184 414.934ZM586.864 414.234L586.108 414.598C586.57 415.214 587.032 415.956 587.396 416.698L588.18 416.306C587.858 415.648 587.242 414.724 586.864 414.234ZM580.27 423.95C580.27 424.482 580.242 425.168 580.172 425.616H581.53C581.474 425.154 581.446 424.398 581.446 423.95C581.446 423.292 581.432 418 581.432 415.816C581.432 415.396 581.488 414.78 581.53 414.36H580.158C580.228 414.794 580.27 415.41 580.27 415.816C580.27 416.992 580.27 423.18 580.27 423.95ZM581.18 418.028V419.26C582.706 419.736 585.324 420.73 586.92 421.584L587.41 420.408C585.856 419.638 583.042 418.56 581.18 418.028Z" fill="black"/>
<rect x="601.5" y="508.5" width="234" height="55" rx="7.5" fill="#0F89E3" stroke="#2F57BE"/>
<path d="M692.044 531.41C692.058 531.76 692.058 532.18 692.058 532.502C692.058 533.048 692.058 538.83 692.058 539.404C692.058 539.894 692.03 540.916 692.03 541.098H693.22C693.22 540.916 693.206 540.02 693.206 539.558C693.206 538.984 693.206 532.544 693.206 532.544H700.85C700.85 532.544 700.85 539.04 700.85 539.558C700.85 540.146 700.836 540.944 700.822 541.098H702.04C702.026 540.944 702.012 539.852 702.012 539.404C702.012 538.872 702.012 533.16 702.012 532.502C702.012 532.152 702.012 531.76 702.04 531.424C701.606 531.438 701.102 531.438 700.808 531.438C700.122 531.438 694.032 531.438 693.29 531.438C692.954 531.438 692.59 531.438 692.044 531.41ZM701.312 539.208H692.646V540.3H701.312V539.208ZM714.71 529.8L713.954 530.122C714.332 530.654 714.808 531.494 715.088 532.068L715.844 531.718C715.564 531.158 715.06 530.304 714.71 529.8ZM716.236 529.24L715.508 529.562C715.9 530.08 716.348 530.878 716.656 531.48L717.412 531.144C717.146 530.626 716.614 529.758 716.236 529.24ZM715.634 532.586L714.71 532.026C714.472 532.124 714.164 532.166 713.786 532.166C713.352 532.166 709.894 532.166 709.32 532.166L708.872 533.174H714.066C713.772 534.448 712.918 536.254 711.826 537.542C710.552 539.026 708.816 540.3 706.24 541.056L707.248 541.966C709.88 541 711.56 539.712 712.834 538.158C714.066 536.646 714.934 534.742 715.312 533.342C715.382 533.118 715.522 532.796 715.634 532.586ZM710.944 530.472L709.656 530.052C709.572 530.402 709.362 530.92 709.222 531.158C708.606 532.418 707.234 534.448 704.812 535.89L705.792 536.618C708.032 535.12 709.502 533.118 710.328 531.578C710.468 531.312 710.72 530.836 710.944 530.472ZM719.204 535.946L719.75 537.038C722.004 536.338 724.23 535.316 725.77 534.364C727.408 533.342 728.878 532.166 730.082 530.92L729.144 530.038C728.178 531.214 726.778 532.418 725.308 533.342C723.754 534.308 721.626 535.302 719.204 535.946ZM725.084 533.916V539.95C725.084 540.468 725.042 541.168 725 541.434H726.386C726.316 541.168 726.288 540.468 726.288 539.95V533.552L725.084 533.916ZM735.178 530.752L734.366 531.606C735.416 532.292 737.152 533.804 737.866 534.532L738.734 533.636C737.964 532.866 736.158 531.41 735.178 530.752ZM733.974 540.132L734.702 541.28C737.04 540.846 738.804 539.978 740.218 539.096C742.332 537.766 743.956 535.862 744.908 534.126L744.236 532.922C743.424 534.658 741.73 536.73 739.56 538.088C738.23 538.914 736.41 539.768 733.974 540.132Z" fill="white"/>
<rect x="602.5" y="674.5" width="234" height="55" rx="7.5" stroke="#2F57BE"/>
<path d="M692.218 694.972V695.952H697.426V694.972H692.218ZM684.854 691.71V692.606H691.028V691.71H684.854ZM684.7 697.268V698.178H691.098V697.268H684.7ZM684.658 694.916V695.812H691.196V694.916H684.658ZM694.822 695.364V703.05H695.844V695.364H694.822ZM687.444 690.296V692.172H688.466V690.296H687.444ZM687.444 695.644V703.106H688.466V695.644H687.444ZM691.714 691.388V696.288C691.714 698.276 691.518 700.698 689.726 702.462C689.978 702.602 690.356 702.952 690.482 703.19C692.456 701.244 692.708 698.402 692.708 696.302V691.976C692.904 691.948 692.988 691.892 693.002 691.78L691.714 691.388ZM696.404 690.408C695.382 690.912 693.534 691.402 691.966 691.738C692.092 691.948 692.232 692.312 692.288 692.536C693.968 692.242 695.928 691.766 697.244 691.178L696.404 690.408ZM688.368 698.444L687.794 698.92C688.312 699.354 689.628 700.586 690.076 701.104L690.692 700.32C690.342 699.998 688.816 698.752 688.368 698.444ZM685.694 692.858C685.974 693.502 686.198 694.342 686.24 694.888L687.122 694.65C687.052 694.118 686.814 693.292 686.52 692.676L685.694 692.858ZM689.278 692.648C689.124 693.236 688.83 694.104 688.578 694.664L689.418 694.86C689.67 694.342 689.964 693.558 690.23 692.858L689.278 692.648ZM687.458 697.73C686.786 699.102 685.512 700.614 684.378 701.356C684.616 701.524 684.924 701.86 685.092 702.098C686.212 701.23 687.5 699.578 688.214 698.024L687.458 697.73ZM698.896 692.578V693.516H703.88V692.578H698.896ZM698.602 695.812V696.778H704.16V695.812H698.602ZM700.912 690.394V695.238C700.912 697.408 700.814 700.488 698.518 702.196C698.756 702.392 699.092 702.742 699.232 702.966C701.696 700.978 701.92 697.702 701.92 695.224V690.394H700.912ZM701.682 697.492L701.038 697.996C701.598 698.598 702.998 700.306 703.488 701.034L704.202 700.25C703.824 699.802 702.158 697.926 701.682 697.492ZM705.658 693.992H709.662V695.378H705.658V693.992ZM705.658 696.246H709.662V697.646H705.658V696.246ZM705.658 691.738H709.662V693.11H705.658V691.738ZM704.664 690.8V698.598H710.67V690.8H704.664ZM708.024 698.178V701.58C708.024 702.574 708.248 702.882 709.2 702.882C709.396 702.882 710.152 702.882 710.348 702.882C711.188 702.882 711.44 702.406 711.524 700.488C711.258 700.418 710.838 700.264 710.642 700.082C710.6 701.734 710.544 701.944 710.25 701.944C710.082 701.944 709.48 701.944 709.354 701.944C709.046 701.944 709.018 701.902 709.018 701.566V698.178H708.024ZM705.812 698.374C705.616 700.222 705.07 701.594 702.83 702.322C703.04 702.504 703.32 702.882 703.432 703.106C705.896 702.224 706.568 700.614 706.82 698.374H705.812ZM716.396 694.146V695.056H721.59V694.146H716.396ZM712.91 701.916V702.798H725.104V701.916H712.91ZM713.75 690.786V691.668H717.894V690.786H713.75ZM717.558 690.786V690.982C716.69 693.208 714.422 695.168 712.364 696.036C712.574 696.218 712.854 696.582 712.994 696.806C715.22 695.77 717.558 693.768 718.608 691.08L717.936 690.73L717.74 690.786H717.558ZM719.924 690.282L719.042 690.576C720.232 693.236 722.374 695.518 724.852 696.638C725.02 696.358 725.314 695.98 725.566 695.77C723.144 694.832 721.002 692.662 719.924 690.282ZM713.372 692.76C714.1 693.208 714.94 693.908 715.36 694.398L715.948 693.754C715.542 693.25 714.674 692.606 713.932 692.186L713.372 692.76ZM722.738 690.366C722.178 690.982 721.184 691.836 720.47 692.354L721.114 692.858C721.842 692.368 722.808 691.612 723.536 690.926L722.738 690.366ZM724.306 692.018C723.718 692.648 722.682 693.502 721.926 694.006L722.57 694.51C723.34 694.034 724.348 693.278 725.09 692.578L724.306 692.018ZM716.144 697.072H721.814V698.92H716.144V697.072ZM715.108 696.204V699.788H722.892V696.204H715.108ZM715.92 700.012C716.298 700.628 716.648 701.482 716.788 702.028L717.782 701.72C717.642 701.174 717.278 700.348 716.886 699.746L715.92 700.012ZM721.128 699.704C720.904 700.32 720.456 701.23 720.106 701.776L721.002 702.042C721.352 701.496 721.772 700.726 722.15 699.984L721.128 699.704ZM738.502 696.386C738.11 697.002 737.382 697.856 736.864 698.388L737.536 698.85C738.082 698.346 738.768 697.604 739.328 696.918L738.502 696.386ZM732.244 697.086C732.832 697.66 733.476 698.472 733.742 699.004L734.512 698.5C734.218 697.954 733.56 697.184 732.958 696.624L732.244 697.086ZM732.678 690.814V691.696H737.312V695.504H738.292V690.814H732.678ZM732.958 692.9V693.754H737.872V692.9H732.958ZM731.95 694.972V695.896H739.44V694.972H731.95ZM735.1 695.406V702C735.1 702.168 735.058 702.21 734.904 702.21C734.736 702.21 734.26 702.224 733.728 702.196C733.854 702.476 733.98 702.868 734.022 703.134C734.792 703.134 735.31 703.12 735.646 702.966C735.996 702.812 736.08 702.532 736.08 702.028V695.406H735.1ZM731.656 701.286L732.146 702.154C732.972 701.594 733.938 700.894 734.834 700.208L734.512 699.396C733.462 700.124 732.384 700.852 731.656 701.286ZM736.038 696.036L735.436 696.736C735.87 698.458 736.892 700.992 739.006 702.28C739.16 702.014 739.482 701.608 739.692 701.412C737.536 700.278 736.458 697.898 736.038 696.036ZM727.512 693.712V694.622H731.502V693.712H727.512ZM726.756 696.106V697.03H731.88V696.106H726.756ZM727.078 697.954C727.344 698.808 727.568 699.9 727.582 700.628L728.366 700.432C728.31 699.704 728.086 698.626 727.806 697.772L727.078 697.954ZM726.63 701.72L726.84 702.7C728.24 702.406 730.102 701.986 731.908 701.608L731.824 700.712C729.92 701.104 727.946 701.496 726.63 701.72ZM730.97 697.646C730.844 698.388 730.592 699.494 730.382 700.18L731.068 700.376C731.306 699.718 731.544 698.71 731.782 697.856L730.97 697.646ZM728.954 694.048V701.832L729.878 701.678V694.048H728.954ZM728.912 690.254C728.436 691.374 727.54 692.802 726.266 693.866C726.462 694.006 726.77 694.314 726.924 694.524C728.31 693.306 729.22 691.822 729.766 690.744V690.478H729.458V690.254H728.912ZM729.08 690.254V690.996H729.276C730.088 691.696 731.04 692.858 731.516 693.572L732.216 692.774C731.726 692.074 730.69 690.996 729.864 690.254H729.08ZM745.572 693.726L745.586 694.79C746.398 694.846 747.126 694.874 747.938 694.874C749.576 694.874 751.284 694.762 752.768 694.51V693.432C751.354 693.726 749.632 693.852 747.952 693.852C747.126 693.852 746.37 693.81 745.572 693.726ZM750.472 691.22H749.212C749.254 691.472 749.268 691.836 749.268 692.088C749.268 692.578 749.282 693.46 749.282 694.426C749.282 696.274 749.464 698.892 749.464 699.9C749.464 700.838 749.128 701.426 747.952 701.426C746.93 701.426 746.244 701.048 746.244 700.32C746.244 699.648 746.972 699.186 748.022 699.186C749.8 699.186 751.214 700.138 752.684 701.51L753.286 700.586C752.11 699.522 750.472 698.332 748.12 698.332C746.272 698.332 745.236 699.256 745.236 700.432C745.236 701.692 746.258 702.448 748.134 702.448C750.024 702.448 750.556 701.328 750.556 700.18C750.556 698.738 750.346 696.554 750.346 694.398C750.346 693.572 750.36 692.578 750.388 692.06C750.402 691.794 750.43 691.5 750.472 691.22ZM743.57 691.318L742.338 691.206C742.324 691.514 742.296 691.878 742.24 692.214C742.072 693.362 741.596 696.036 741.596 698.094C741.596 699.984 741.862 701.524 742.128 702.532L743.122 702.448C743.108 702.308 743.094 702.098 743.08 701.958C743.066 701.804 743.094 701.524 743.136 701.328C743.276 700.642 743.794 699.214 744.144 698.234L743.57 697.786C743.332 698.36 742.982 699.214 742.758 699.858C742.66 699.172 742.618 698.584 742.618 697.898C742.618 696.33 743.038 693.558 743.318 692.256C743.374 692.004 743.486 691.542 743.57 691.318ZM701.276 709.186V710.32C702.382 710.418 703.586 710.474 704.986 710.474C706.274 710.474 707.8 710.376 708.752 710.306V709.158C707.744 709.27 706.33 709.354 704.986 709.354C703.572 709.354 702.284 709.298 701.276 709.186ZM701.836 714.828L700.702 714.716C700.576 715.276 700.422 715.934 700.422 716.662C700.422 718.426 702.074 719.35 704.916 719.35C706.904 719.35 708.682 719.14 709.69 718.874L709.676 717.67C708.612 718.006 706.806 718.216 704.888 718.216C702.648 718.216 701.556 717.488 701.556 716.41C701.556 715.892 701.668 715.374 701.836 714.828ZM717.922 708.038L716.662 707.982C716.69 708.36 716.662 708.696 716.606 709.144C716.438 710.488 715.696 713.96 714.632 716.046L715.668 716.41C715.808 716.172 715.934 715.976 716.102 715.766C717.026 714.66 718.58 714.086 720.246 714.086C721.884 714.086 722.738 714.898 722.738 715.934C722.738 718.244 719.602 718.79 716.354 718.342L716.648 719.462C720.904 719.91 723.886 718.832 723.886 715.906C723.886 714.268 722.584 713.134 720.358 713.134C718.902 713.134 717.642 713.484 716.424 714.338C716.9 713.036 717.46 710.334 717.656 709.214C717.74 708.85 717.81 708.416 717.922 708.038ZM713.568 709.83L713.582 710.922C714.38 710.992 715.276 711.062 716.228 711.062C718.146 711.062 721.002 710.782 722.99 710.432L722.962 709.354C720.764 709.844 718.006 710.054 716.214 710.054C715.374 710.054 714.31 709.956 713.568 709.83ZM730.676 708.024L730.396 709.102C731.474 709.382 734.498 709.998 735.842 710.18L736.108 709.116C734.862 708.99 731.88 708.416 730.676 708.024ZM730.368 710.586L729.192 710.432C729.108 711.888 728.758 714.828 728.478 716.102L729.528 716.354C729.612 716.13 729.738 715.906 729.948 715.668C730.928 714.478 732.44 713.792 734.274 713.792C735.702 713.792 736.752 714.59 736.752 715.696C736.752 717.614 734.596 718.888 730.172 718.356L730.508 719.49C735.702 719.924 737.928 718.23 737.928 715.738C737.928 714.086 736.5 712.798 734.358 712.798C732.678 712.798 731.138 713.344 729.794 714.52C729.934 713.61 730.186 711.538 730.368 710.586Z" fill="#2F57BE"/>
<path d="M584.926 473.242C584.926 472.738 585.346 472.318 585.85 472.318C586.354 472.318 586.774 472.738 586.774 473.242C586.774 473.76 586.354 474.166 585.85 474.166C585.346 474.166 584.926 473.76 584.926 473.242ZM584.282 473.242C584.282 474.11 584.982 474.81 585.85 474.81C586.718 474.81 587.418 474.11 587.418 473.242C587.418 472.374 586.718 471.674 585.85 471.674C584.982 471.674 584.282 472.374 584.282 473.242ZM577.016 478.8C576.54 479.962 575.742 481.432 574.86 482.608L576.05 483.112C576.834 481.978 577.604 480.536 578.122 479.262C578.71 477.82 579.2 475.748 579.382 474.88C579.452 474.586 579.55 474.166 579.648 473.858L578.402 473.606C578.206 475.216 577.632 477.344 577.016 478.8ZM583.918 478.268C584.492 479.752 585.15 481.656 585.5 483.07L586.746 482.678C586.368 481.404 585.626 479.262 585.066 477.876C584.464 476.406 583.568 474.474 583.022 473.452L581.888 473.83C582.49 474.88 583.358 476.826 583.918 478.268ZM599.164 473.648L598.464 473.102C598.24 473.172 597.862 473.214 597.414 473.214C596.882 473.214 592.556 473.214 592.01 473.214C591.576 473.214 590.778 473.158 590.596 473.13V474.39C590.75 474.376 591.506 474.32 592.01 474.32C592.486 474.32 596.966 474.32 597.47 474.32C597.106 475.482 596.084 477.148 595.132 478.226C593.69 479.822 591.632 481.502 589.364 482.37L590.26 483.308C592.472 482.3 594.474 480.634 596.042 478.884C597.204 477.596 598.268 475.636 598.828 474.25C598.898 474.068 599.08 473.76 599.164 473.648ZM596.224 478.156L595.426 478.94C596.938 480.27 598.576 482.062 599.584 483.392L600.55 482.538C599.598 481.376 597.736 479.416 596.224 478.156ZM614.242 473.662L613.388 473.13C613.136 473.186 612.8 473.2 612.506 473.2C611.708 473.2 605.786 473.2 605.31 473.2C604.708 473.2 604.19 473.2 603.826 473.172C603.854 473.466 603.868 473.774 603.868 474.096C603.868 474.698 603.868 476.644 603.868 477.092C603.868 477.358 603.854 477.652 603.826 477.988H605.086C605.058 477.638 605.058 477.288 605.058 477.092C605.058 476.644 605.058 474.684 605.058 474.292C606.052 474.292 611.988 474.292 612.772 474.292C612.632 475.944 612.24 477.736 611.442 478.968C610.308 480.76 608.306 481.978 606.248 482.538L607.2 483.49C609.454 482.762 611.358 481.334 612.492 479.556C613.514 477.974 613.808 475.972 614.06 474.32C614.074 474.18 614.172 473.802 614.242 473.662ZM617.392 476.938V478.31C617.84 478.282 618.582 478.254 619.352 478.254C620.388 478.254 625.974 478.254 627.038 478.254C627.654 478.254 628.242 478.296 628.536 478.31V476.938C628.214 476.966 627.724 477.022 627.024 477.022C625.988 477.022 620.374 477.022 619.352 477.022C618.554 477.022 617.826 476.98 617.392 476.938ZM639.162 472.934L638.378 473.27C638.84 473.9 639.288 474.67 639.638 475.412L640.436 475.048C640.114 474.376 639.512 473.438 639.162 472.934ZM640.842 472.234L640.086 472.598C640.548 473.214 641.01 473.956 641.374 474.698L642.158 474.306C641.836 473.648 641.22 472.724 640.842 472.234ZM634.248 481.95C634.248 482.482 634.22 483.168 634.15 483.616H635.508C635.452 483.154 635.424 482.398 635.424 481.95C635.424 481.292 635.41 476 635.41 473.816C635.41 473.396 635.466 472.78 635.508 472.36H634.136C634.206 472.794 634.248 473.41 634.248 473.816C634.248 474.992 634.248 481.18 634.248 481.95ZM635.158 476.028V477.26C636.684 477.736 639.302 478.73 640.898 479.584L641.388 478.408C639.834 477.638 637.02 476.56 635.158 476.028ZM647.239 483.784L648.191 482.972C647.309 481.95 646.049 480.69 645.041 479.878L644.131 480.676C645.125 481.488 646.329 482.678 647.239 483.784ZM665.425 471.898H664.235C664.277 472.08 664.291 472.5 664.291 472.738C664.291 473.718 664.291 475.188 664.291 476.448C664.291 477.68 664.431 480.368 664.431 481.446C664.431 482.426 663.745 482.664 662.933 482.664C661.547 482.664 661.001 482.188 661.001 481.53C661.001 480.886 661.715 480.368 663.059 480.368C665.551 480.368 667.623 481.768 668.883 482.93L669.527 481.936C668.449 481.054 666.139 479.458 663.185 479.458C661.169 479.458 659.951 480.312 659.951 481.586C659.951 482.944 661.057 483.658 663.073 483.658C664.893 483.658 665.537 482.664 665.537 481.684C665.537 480.746 665.327 478.296 665.327 476.448C665.327 475.272 665.327 473.396 665.355 472.836C665.369 472.416 665.397 472.136 665.425 471.898ZM660.077 473.41L660.091 474.446C660.973 474.558 662.695 474.684 663.661 474.684C665.537 474.684 667.539 474.502 669.121 474.32V473.298C667.301 473.592 665.425 473.718 663.647 473.718C662.723 473.718 660.973 473.578 660.077 473.41ZM660.007 476.392L660.021 477.442C661.015 477.554 662.555 477.624 663.521 477.624C665.621 477.624 667.329 477.526 669.233 477.288V476.238C667.413 476.504 665.551 476.644 663.521 476.644C662.597 476.644 661.001 476.546 660.007 476.392ZM677.605 471.996L676.275 471.884C676.303 472.178 676.275 472.654 676.219 473.046C676.121 473.774 675.757 475.538 675.421 476.826C674.889 478.8 673.909 481.642 673.069 483.098L674.287 483.504C675.029 481.978 675.967 479.08 676.471 477.092C676.863 475.692 677.157 474.11 677.367 473.102C677.423 472.836 677.521 472.304 677.605 471.996ZM674.511 474.334C673.993 474.334 673.489 474.306 672.831 474.222L672.859 475.314C673.377 475.356 673.867 475.37 674.483 475.37C675.995 475.37 678.109 475.132 679.845 474.74V473.648C678.109 474.082 676.051 474.334 674.511 474.334ZM678.935 476.252V477.302C679.789 477.204 680.657 477.148 681.525 477.148C682.351 477.148 683.163 477.232 683.891 477.316L683.919 476.252C683.163 476.168 682.309 476.14 681.497 476.14C680.601 476.14 679.663 476.182 678.935 476.252ZM679.215 479.654L678.179 479.556C678.053 480.144 677.969 480.676 677.969 481.208C677.969 482.594 679.173 483.266 681.371 483.266C682.393 483.266 683.331 483.182 684.087 483.07L684.129 481.95C683.261 482.118 682.309 482.216 681.385 482.216C679.397 482.216 679.019 481.572 679.019 480.914C679.019 480.55 679.103 480.116 679.215 479.654ZM690.989 474.726L691.003 475.79C691.815 475.846 692.543 475.874 693.355 475.874C694.993 475.874 696.701 475.762 698.185 475.51V474.432C696.771 474.726 695.049 474.852 693.369 474.852C692.543 474.852 691.787 474.81 690.989 474.726ZM695.889 472.22H694.629C694.671 472.472 694.685 472.836 694.685 473.088C694.685 473.578 694.699 474.46 694.699 475.426C694.699 477.274 694.881 479.892 694.881 480.9C694.881 481.838 694.545 482.426 693.369 482.426C692.347 482.426 691.661 482.048 691.661 481.32C691.661 480.648 692.389 480.186 693.439 480.186C695.217 480.186 696.631 481.138 698.101 482.51L698.703 481.586C697.527 480.522 695.889 479.332 693.537 479.332C691.689 479.332 690.653 480.256 690.653 481.432C690.653 482.692 691.675 483.448 693.551 483.448C695.441 483.448 695.973 482.328 695.973 481.18C695.973 479.738 695.763 477.554 695.763 475.398C695.763 474.572 695.777 473.578 695.805 473.06C695.819 472.794 695.847 472.5 695.889 472.22ZM688.987 472.318L687.755 472.206C687.741 472.514 687.713 472.878 687.657 473.214C687.489 474.362 687.013 477.036 687.013 479.094C687.013 480.984 687.279 482.524 687.545 483.532L688.539 483.448C688.525 483.308 688.511 483.098 688.497 482.958C688.483 482.804 688.511 482.524 688.553 482.328C688.693 481.642 689.211 480.214 689.561 479.234L688.987 478.786C688.749 479.36 688.399 480.214 688.175 480.858C688.077 480.172 688.035 479.584 688.035 478.898C688.035 477.33 688.455 474.558 688.735 473.256C688.791 473.004 688.903 472.542 688.987 472.318ZM710.743 472.808L709.469 472.374C709.399 472.668 709.273 473.13 709.175 473.41C708.699 474.782 707.999 476.336 706.851 477.82C705.409 479.654 703.617 481.32 701.013 482.566L701.965 483.434C704.611 482.062 706.431 480.214 707.775 478.506C708.923 477.05 709.763 475.23 710.295 473.844C710.407 473.55 710.603 473.074 710.743 472.808ZM703.351 474.46L702.609 475.342C704.149 476.28 705.969 477.666 706.977 478.506C708.377 479.682 709.595 480.788 710.757 482.132L711.639 481.166C710.533 479.962 709.147 478.744 707.747 477.596C706.683 476.742 704.737 475.342 703.351 474.46ZM714.831 476.938V478.31C715.279 478.282 716.021 478.254 716.791 478.254C717.827 478.254 723.413 478.254 724.477 478.254C725.093 478.254 725.681 478.296 725.975 478.31V476.938C725.653 476.966 725.163 477.022 724.463 477.022C723.427 477.022 717.813 477.022 716.791 477.022C715.993 477.022 715.265 476.98 714.831 476.938ZM734.739 482.706L735.481 483.322C735.593 483.252 735.733 483.126 735.971 483.014C737.595 482.202 739.527 480.774 740.745 479.136L740.073 478.17C739.009 479.752 737.287 481.026 735.985 481.614C735.985 481.194 735.985 474.418 735.985 473.55C735.985 473.018 736.041 472.612 736.055 472.5H734.767C734.767 472.612 734.837 473.004 734.837 473.536C734.837 474.418 734.837 481.278 734.837 481.922C734.837 482.202 734.795 482.496 734.739 482.706ZM728.327 482.65L729.391 483.35C730.567 482.37 731.463 481.012 731.883 479.514C732.261 478.114 732.303 475.104 732.303 473.55C732.303 473.144 732.359 472.71 732.373 472.556H731.085C731.155 472.85 731.183 473.158 731.183 473.564C731.183 475.132 731.183 477.918 730.763 479.206C730.343 480.564 729.517 481.81 728.327 482.65ZM754.451 473.55L753.751 472.878C753.555 472.934 753.051 472.976 752.785 472.976C751.945 472.976 745.407 472.976 744.735 472.976C744.217 472.976 743.643 472.92 743.153 472.85V474.11C743.699 474.068 744.217 474.04 744.735 474.04C745.407 474.04 751.735 474.04 752.715 474.04C752.267 474.908 750.951 476.42 749.649 477.162L750.587 477.904C752.183 476.798 753.513 474.992 754.073 474.04C754.171 473.886 754.339 473.676 754.451 473.55ZM748.851 475.384H747.591C747.647 475.762 747.647 476.07 747.647 476.406C747.647 478.744 747.339 480.732 745.183 482.062C744.791 482.328 744.301 482.566 743.923 482.692L744.945 483.532C748.515 481.74 748.851 479.178 748.851 475.384ZM764.601 472.934L763.817 473.27C764.279 473.9 764.727 474.67 765.077 475.412L765.875 475.048C765.553 474.376 764.951 473.438 764.601 472.934ZM766.281 472.234L765.525 472.598C765.987 473.214 766.449 473.956 766.813 474.698L767.597 474.306C767.275 473.648 766.659 472.724 766.281 472.234ZM759.687 481.95C759.687 482.482 759.659 483.168 759.589 483.616H760.947C760.891 483.154 760.863 482.398 760.863 481.95C760.863 481.292 760.849 476 760.849 473.816C760.849 473.396 760.905 472.78 760.947 472.36H759.575C759.645 472.794 759.687 473.41 759.687 473.816C759.687 474.992 759.687 481.18 759.687 481.95ZM760.597 476.028V477.26C762.123 477.736 764.741 478.73 766.337 479.584L766.827 478.408C765.273 477.638 762.459 476.56 760.597 476.028ZM772.525 482.566L773.323 483.252C773.547 483.126 773.771 483.056 773.911 483.014C777.411 481.992 780.295 480.27 782.115 478.016L781.485 477.036C779.735 479.29 776.501 481.124 773.813 481.81C773.813 481.096 773.813 475.188 773.813 473.858C773.813 473.466 773.869 472.934 773.911 472.598H772.539C772.595 472.864 772.651 473.494 772.651 473.872C772.651 475.202 772.651 480.998 772.651 481.88C772.651 482.146 772.623 482.342 772.525 482.566ZM794.603 473.648L793.903 473.102C793.679 473.172 793.301 473.214 792.853 473.214C792.321 473.214 787.995 473.214 787.449 473.214C787.015 473.214 786.217 473.158 786.035 473.13V474.39C786.189 474.376 786.945 474.32 787.449 474.32C787.925 474.32 792.405 474.32 792.909 474.32C792.545 475.482 791.523 477.148 790.571 478.226C789.129 479.822 787.071 481.502 784.803 482.37L785.699 483.308C787.911 482.3 789.913 480.634 791.481 478.884C792.643 477.596 793.707 475.636 794.267 474.25C794.337 474.068 794.519 473.76 794.603 473.648ZM791.663 478.156L790.865 478.94C792.377 480.27 794.015 482.062 795.023 483.392L795.989 482.538C795.037 481.376 793.175 479.416 791.663 478.156ZM803.353 472.136L802.051 471.996C802.051 473.074 801.869 474.334 801.603 475.454C801.225 477.162 800.105 480.9 798.509 483.042L799.657 483.49C801.239 480.942 802.233 477.456 802.709 475.482C802.905 474.614 803.087 473.466 803.185 472.962C803.241 472.696 803.297 472.388 803.353 472.136ZM808.169 473.746L807.147 474.208C808.127 475.37 809.233 477.806 809.639 479.234L810.731 478.716C810.255 477.428 809.037 474.88 808.169 473.746ZM798.313 475.202L798.425 476.42C798.789 476.364 799.363 476.294 799.685 476.252C800.539 476.168 803.171 475.846 804.109 475.846C805.005 475.846 805.593 476.084 805.593 477.372C805.593 478.884 805.369 480.704 804.921 481.656C804.641 482.258 804.221 482.37 803.703 482.37C803.311 482.37 802.569 482.272 801.981 482.09L802.177 483.252C802.611 483.364 803.283 483.462 803.815 483.462C804.725 483.462 805.425 483.224 805.859 482.286C806.447 481.124 806.671 478.898 806.671 477.232C806.671 475.342 805.649 474.866 804.403 474.866C803.451 474.866 800.609 475.174 799.559 475.202C799.111 475.216 798.747 475.23 798.313 475.202ZM808.323 471.716L807.567 472.038C807.959 472.57 808.435 473.41 808.715 473.984L809.471 473.648C809.177 473.074 808.673 472.22 808.323 471.716ZM809.863 471.156L809.121 471.478C809.527 471.996 809.989 472.794 810.283 473.41L811.053 473.074C810.773 472.556 810.241 471.674 809.863 471.156ZM812.383 472.234V473.298H824.437V472.234H812.383ZM819.243 476.308C820.909 477.442 823.009 479.08 823.989 480.158L824.843 479.36C823.807 478.282 821.665 476.7 820.027 475.636L819.243 476.308ZM818.977 472.598C817.675 475.23 815.071 477.918 812.033 479.444C812.243 479.668 812.579 480.088 812.747 480.354C815.911 478.688 818.529 475.916 820.125 473.018L818.977 472.598ZM817.829 475.398V484.106H818.963V474.278L817.829 475.398ZM826.663 472.276V473.298H838.255V472.276H826.663ZM832.725 477.036V478.072H837.695V477.036H832.725ZM826.131 482.482V483.504H838.717V482.482H826.131ZM832.221 472.654V482.986H833.313V472.654H832.221ZM828.049 475.874V483.028H829.127V475.874H828.049ZM840.509 473.788L840.635 475.02C842.147 474.698 845.717 474.348 847.215 474.194C845.941 474.95 844.611 476.742 844.611 478.912C844.611 482.048 847.551 483.42 850.141 483.518L850.547 482.37C848.279 482.286 845.717 481.404 845.717 478.674C845.717 477.022 846.935 474.88 848.937 474.236C849.651 474.04 850.869 474.012 851.681 474.026L851.667 472.906C850.729 472.934 849.427 473.018 847.887 473.144C845.311 473.368 842.665 473.62 841.769 473.718C841.489 473.746 841.041 473.774 840.509 473.788ZM849.651 475.734L848.951 476.042C849.371 476.63 849.763 477.344 850.085 478.016L850.813 477.694C850.505 477.064 849.973 476.196 849.651 475.734ZM851.177 475.146L850.491 475.468C850.925 476.056 851.345 476.756 851.681 477.428L852.395 477.078C852.073 476.462 851.527 475.608 851.177 475.146ZM862.195 471.912H860.907C860.935 472.038 860.977 472.43 861.005 472.808C861.047 473.578 861.061 476.364 861.061 476.98L862.125 477.526C862.111 476.406 862.083 473.704 862.125 472.794C862.125 472.626 862.167 472.08 862.195 471.912ZM854.747 473.872L854.775 474.95C856.889 474.796 859.885 474.698 862.293 474.698C864.351 474.698 865.611 474.726 866.395 474.768L866.409 473.732C865.751 473.718 864.015 473.718 862.307 473.718C860.151 473.718 856.651 473.844 854.747 473.872ZM862.097 477.932L861.327 477.54C861.551 479.038 860.991 479.766 860.123 479.766C859.353 479.766 858.695 479.262 858.695 478.38C858.695 477.47 859.381 476.896 860.123 476.896C860.879 476.896 861.495 477.428 861.495 478.688C861.495 480.998 860.011 482.244 857.463 482.846L858.401 483.756C861.649 482.79 862.573 480.69 862.573 478.786C862.573 477.176 861.747 475.972 860.123 475.972C858.793 475.972 857.645 477.008 857.645 478.394C857.645 479.92 858.779 480.746 859.955 480.746C861.229 480.746 862.097 479.808 862.097 477.932ZM868.738 479.598C867.562 479.598 866.596 480.55 866.596 481.726C866.596 482.902 867.562 483.854 868.738 483.854C869.914 483.854 870.866 482.902 870.866 481.726C870.866 480.55 869.914 479.598 868.738 479.598ZM868.738 483.14C867.954 483.14 867.31 482.51 867.31 481.726C867.31 480.942 867.954 480.312 868.738 480.312C869.522 480.312 870.152 480.942 870.152 481.726C870.152 482.51 869.522 483.14 868.738 483.14Z" fill="#FF1E1E"/>
<rect x="44.5" y="898.5" width="330" height="69" rx="8.5" stroke="black"/>
<path d="M346.158 940.636L336.544 931.023L337.84 929.727L347.453 939.341L346.158 940.636ZM337.84 940.636L336.544 939.341L346.158 929.727L347.453 931.023L337.84 940.636Z" fill="black"/>
<path d="M93.616 923.966V925.114H106.426V923.966H93.616ZM109.954 922.524V923.532H118.116V922.524H109.954ZM113.986 925.87V926.864H118.704V925.87H113.986ZM113.426 923.042V929.986L114.518 930.126V923.042H113.426ZM110.108 924.736C109.8 927.27 109.044 929.272 107.476 930.49C107.728 930.644 108.176 931.008 108.344 931.19C109.926 929.818 110.808 927.676 111.2 924.848L110.108 924.736ZM110.766 926.542L109.912 926.864C111.116 930.28 113.398 930.938 116.73 930.938H120.02C120.062 930.63 120.244 930.126 120.412 929.874C119.726 929.888 117.304 929.888 116.786 929.888C113.944 929.888 111.76 929.398 110.766 926.542ZM113.412 918.254V920.522H114.518V918.254H113.412ZM108.148 919.85V922.902H109.184V920.858H118.774V922.902H119.852V919.85H108.148ZM126.894 919.92V920.844H133.894V919.92H126.894ZM126.292 922.636V923.574H134.496V922.636H126.292ZM126.362 925.17V926.108H134.342V925.17H126.362ZM129.834 918.24V923.21H130.87V918.24H129.834ZM131.682 923.434V929.86C131.682 930.07 131.612 930.126 131.374 930.14C131.15 930.154 130.366 930.154 129.498 930.126C129.652 930.406 129.82 930.826 129.862 931.106C130.982 931.106 131.696 931.092 132.13 930.938C132.564 930.784 132.704 930.476 132.704 929.874V923.434H131.682ZM127.216 927.088C127.93 927.816 128.686 928.866 128.994 929.552L129.904 928.992C129.568 928.306 128.784 927.312 128.056 926.584L127.216 927.088ZM122.554 919.164V920.116H125.074V927.41H122.554V928.362H126.054V919.164H122.554ZM122.596 923.238V924.176H125.536V923.238H122.596ZM122.05 919.164V929.51H123.044V919.164H122.05ZM139.858 926.822V927.634H144.1V926.822H139.858ZM139.816 924.708V925.534H143.596V929.006H139.816V929.818H144.59V924.708H139.816ZM139.354 924.708V930.532H140.32V924.708H139.354ZM136.778 920.83V921.6H140.67V920.83H136.778ZM143.232 920.83V921.6H147.194V920.83H143.232ZM146.76 918.842V929.734C146.76 929.972 146.676 930.056 146.424 930.056C146.172 930.07 145.318 930.084 144.464 930.042C144.618 930.336 144.786 930.826 144.828 931.12C146.004 931.12 146.76 931.106 147.208 930.938C147.656 930.756 147.81 930.406 147.81 929.734V918.842H146.76ZM136.862 918.842V919.654H140.348V922.846H136.862V923.658H141.342V918.842H136.862ZM147.278 918.842H142.602V923.672H147.278V922.874H143.61V919.654H147.278V918.842ZM136.26 918.842V931.134H137.296V918.842H136.26ZM149.504 925.688L149.784 926.71C150.876 926.304 152.276 925.758 153.606 925.24L153.438 924.302C151.982 924.834 150.498 925.38 149.504 925.688ZM149.644 921.068V922.048H153.522V921.068H149.644ZM151.212 918.254V929.902C151.212 930.056 151.17 930.112 151.016 930.112C150.89 930.112 150.484 930.112 150.008 930.098C150.134 930.378 150.26 930.798 150.302 931.05C151.03 931.05 151.478 931.022 151.786 930.854C152.094 930.7 152.206 930.42 152.206 929.888V918.254H151.212ZM156.364 919.612H159.598V921.082H156.364V919.612ZM155.44 918.828V921.88H160.564V918.828H155.44ZM154.866 923.28H156.714V924.876H154.866V923.28ZM154.04 922.51V925.66H157.568V922.51H154.04ZM159.22 923.28H161.124V924.876H159.22V923.28ZM158.366 922.51V925.66H162.006V922.51H158.366ZM153.788 926.724V927.62H162.314V926.724H153.788ZM157.47 925.674V931.148H158.478V925.674H157.47ZM157.246 927.102C156.336 928.348 154.558 929.468 152.864 930C153.088 930.182 153.382 930.56 153.536 930.812C155.258 930.182 157.092 928.894 158.072 927.438L157.246 927.102ZM158.786 927.214L158.016 927.522C158.884 928.81 160.438 930.084 161.852 930.686C162.006 930.434 162.314 930.07 162.538 929.888C161.124 929.398 159.57 928.32 158.786 927.214ZM169.818 920.592L169.328 921.6H176.454V920.592H169.818ZM171.568 923.63V924.596H176.132V923.63H171.568ZM171.554 926.71V927.704H176.328V926.71H171.554ZM171.036 920.914V931.12H172.114V920.914H171.036ZM170.35 918.408C169.664 920.466 168.53 922.51 167.256 923.812C167.494 923.98 167.914 924.358 168.068 924.54C169.356 923.098 170.574 920.9 171.372 918.674L170.35 918.408ZM166.99 918.296C166.192 920.424 164.89 922.524 163.49 923.882C163.686 924.134 164.008 924.694 164.106 924.946C165.632 923.378 167.074 920.984 167.998 918.618L166.99 918.296ZM165.492 921.908V931.106H166.556V920.872L166.528 920.858L165.492 921.908ZM184.322 920.088C184.476 920.522 184.672 921.166 184.98 921.964C185.442 923.238 186.212 924.624 186.8 925.52C186.296 925.464 185.26 925.38 184.476 925.31L184.392 926.234C185.4 926.304 187.108 926.458 187.78 926.626L188.34 925.828C188.13 925.604 187.92 925.366 187.738 925.086C187.136 924.274 186.422 922.972 185.988 921.768C185.666 920.858 185.302 919.654 185.176 918.842L183.972 918.982C184.112 919.36 184.238 919.78 184.322 920.088ZM179.198 921.18L179.226 922.286C181.704 922.496 183.93 922.482 185.708 922.272C186.73 922.146 188.06 921.922 189.054 921.642L188.928 920.536C187.836 920.914 186.45 921.166 185.344 921.292C183.748 921.46 181.536 921.446 179.198 921.18ZM181.368 925.632L180.276 925.38C179.87 926.206 179.59 926.934 179.59 927.718C179.59 929.622 181.27 930.574 183.93 930.588C185.498 930.602 186.674 930.448 187.556 930.294L187.598 929.174C186.632 929.384 185.414 929.524 184 929.524C181.914 929.496 180.696 928.922 180.696 927.578C180.696 926.92 180.948 926.318 181.368 925.632ZM204.636 928.936L204.454 927.746C203.74 928.488 202.998 928.894 202.34 928.894C201.836 928.894 201.598 928.516 201.598 928.04C201.598 926.626 202.13 924.218 202.13 922.818C202.13 921.684 201.486 920.942 200.17 920.942C198.448 920.942 196.124 922.958 195.256 923.91L195.242 925.296C196.558 923.7 198.588 921.964 199.904 921.964C200.618 921.964 201.024 922.314 201.024 923.126C201.024 924.484 200.506 926.78 200.506 928.348C200.506 929.496 201.122 930.112 202.06 930.112C203.012 930.112 203.88 929.692 204.636 928.936ZM195.228 922.244L195.116 922.622L195.06 923.35C194.514 924.274 192.624 926.836 191.756 927.928L192.456 928.88C193.338 927.662 194.64 925.772 195.284 924.778L195.704 922.86C195.942 922.468 196.32 921.866 196.558 921.502L196.152 921.026C195.508 921.236 193.758 921.446 193.016 921.488C192.666 921.516 192.4 921.516 192.092 921.502L192.218 922.664C193.254 922.496 194.766 922.314 195.228 922.244ZM195.088 919.934C195.088 920.452 194.752 924.89 194.724 926.122C194.71 927.662 194.696 928.362 194.696 929.72C194.696 929.944 194.682 930.28 194.654 930.546H195.858C195.844 930.28 195.802 929.93 195.788 929.692C195.732 928.446 195.732 927.592 195.732 926.318C195.732 923.854 196.152 919.85 196.348 918.94L195.032 918.898C195.102 919.248 195.088 919.612 195.088 919.934ZM206.344 921.18L206.428 922.23C206.946 922.244 207.548 922.258 208.066 922.258C209.774 922.272 211.608 921.964 212.98 921.586L212.952 920.55C211.342 921.082 209.578 921.264 208.066 921.264C207.464 921.264 206.862 921.236 206.344 921.18ZM211.314 918.898L210.082 918.772C210.04 919.752 209.732 920.984 209.424 921.866C208.85 923.518 207.548 926.01 206.302 927.466L207.38 928.026C208.542 926.458 209.83 923.91 210.502 921.894C210.838 920.9 211.132 919.584 211.314 918.898ZM214.618 923.224H213.512C213.568 924.764 213.722 927.27 213.722 928.334C213.722 929.09 213.33 929.706 212.168 929.706C211.076 929.706 210.53 929.258 210.53 928.614C210.53 927.97 211.23 927.494 212.266 927.494C214.324 927.494 215.934 928.74 217.012 929.72L217.6 928.768C216.452 927.774 214.646 926.598 212.294 926.598C210.726 926.598 209.508 927.41 209.508 928.698C209.508 930.098 210.754 930.714 212.294 930.714C214.03 930.714 214.744 929.804 214.744 928.684C214.744 927.76 214.618 925.632 214.59 924.722C214.576 924.218 214.576 923.798 214.618 923.224ZM217.418 923.588L218.048 922.664C217.376 922.16 215.794 921.25 214.772 920.816L214.212 921.656C215.136 922.09 216.662 922.944 217.418 923.588ZM225.118 919.08L223.83 918.954C223.83 920.032 223.634 921.292 223.382 922.398C223.004 924.12 221.884 927.858 220.288 929.986L221.422 930.448C223.004 927.886 224.012 924.4 224.488 922.44C224.67 921.572 224.866 920.424 224.95 919.92C225.006 919.64 225.062 919.346 225.118 919.08ZM229.948 920.578L228.926 921.04C229.906 922.188 230.998 924.666 231.418 926.108L232.496 925.59C232.034 924.288 230.816 921.712 229.948 920.578ZM220.078 922.16L220.204 923.364C220.554 923.308 221.142 923.238 221.464 923.196C222.318 923.112 224.936 922.804 225.874 922.804C226.77 922.804 227.358 923.042 227.358 924.316C227.358 925.828 227.148 927.662 226.7 928.6C226.406 929.216 225.986 929.328 225.468 929.328C225.076 929.328 224.348 929.216 223.76 929.034L223.942 930.21C224.39 930.308 225.048 930.406 225.594 930.406C226.49 930.406 227.19 930.182 227.638 929.244C228.212 928.082 228.436 925.856 228.436 924.19C228.436 922.286 227.414 921.81 226.168 921.81C225.216 921.81 222.374 922.132 221.338 922.16C220.89 922.174 220.526 922.174 220.078 922.16ZM235.24 924.414L235.716 925.576C236.612 925.212 239.678 923.938 241.4 923.938C242.842 923.938 243.78 924.82 243.78 926.01C243.78 928.292 241.12 929.16 238.082 929.244L238.544 930.322C242.31 930.098 244.914 928.726 244.914 926.024C244.914 924.12 243.472 922.93 241.484 922.93C239.846 922.93 237.536 923.77 236.542 924.078C236.108 924.218 235.646 924.344 235.24 924.414ZM253.188 918.996L251.858 918.884C251.886 919.178 251.858 919.654 251.802 920.046C251.704 920.774 251.34 922.538 251.004 923.826C250.472 925.8 249.492 928.642 248.652 930.098L249.87 930.504C250.612 928.978 251.55 926.08 252.054 924.092C252.446 922.692 252.74 921.11 252.95 920.102C253.006 919.836 253.104 919.304 253.188 918.996ZM250.094 921.334C249.576 921.334 249.072 921.306 248.414 921.222L248.442 922.314C248.96 922.356 249.45 922.37 250.066 922.37C251.578 922.37 253.692 922.132 255.428 921.74V920.648C253.692 921.082 251.634 921.334 250.094 921.334ZM254.518 923.252V924.302C255.372 924.204 256.24 924.148 257.108 924.148C257.934 924.148 258.746 924.232 259.474 924.316L259.502 923.252C258.746 923.168 257.892 923.14 257.08 923.14C256.184 923.14 255.246 923.182 254.518 923.252ZM254.798 926.654L253.762 926.556C253.636 927.144 253.552 927.676 253.552 928.208C253.552 929.594 254.756 930.266 256.954 930.266C257.976 930.266 258.914 930.182 259.67 930.07L259.712 928.95C258.844 929.118 257.892 929.216 256.968 929.216C254.98 929.216 254.602 928.572 254.602 927.914C254.602 927.55 254.686 927.116 254.798 926.654ZM267.188 918.996L265.858 918.884C265.886 919.178 265.858 919.654 265.802 920.046C265.704 920.774 265.34 922.538 265.004 923.826C264.472 925.8 263.492 928.642 262.652 930.098L263.87 930.504C264.612 928.978 265.55 926.08 266.054 924.092C266.446 922.692 266.74 921.11 266.95 920.102C267.006 919.836 267.104 919.304 267.188 918.996ZM264.094 921.334C263.576 921.334 263.072 921.306 262.414 921.222L262.442 922.314C262.96 922.356 263.45 922.37 264.066 922.37C265.578 922.37 267.692 922.132 269.428 921.74V920.648C267.692 921.082 265.634 921.334 264.094 921.334ZM268.518 923.252V924.302C269.372 924.204 270.24 924.148 271.108 924.148C271.934 924.148 272.746 924.232 273.474 924.316L273.502 923.252C272.746 923.168 271.892 923.14 271.08 923.14C270.184 923.14 269.246 923.182 268.518 923.252ZM268.798 926.654L267.762 926.556C267.636 927.144 267.552 927.676 267.552 928.208C267.552 929.594 268.756 930.266 270.954 930.266C271.976 930.266 272.914 930.182 273.67 930.07L273.712 928.95C272.844 929.118 271.892 929.216 270.968 929.216C268.98 929.216 268.602 928.572 268.602 927.914C268.602 927.55 268.686 927.116 268.798 926.654ZM284.366 919.164L283.148 919.052C283.162 919.374 283.12 919.836 283.064 920.116C282.714 922.16 281.776 924.722 280.852 926.15C280.138 927.284 279.158 928.474 278.248 928.474C277.618 928.474 277.212 927.914 277.212 926.99C277.212 925.73 277.968 924.232 279.158 923.378C280.25 922.566 281.468 922.104 282.826 922.104C285.08 922.104 286.564 923.616 286.564 925.674C286.564 927.844 284.954 929.37 282.028 929.636L282.672 930.63C285.682 930.21 287.684 928.516 287.684 925.716C287.684 922.986 285.696 921.138 282.952 921.138C281.51 921.138 280.138 921.502 278.752 922.44C277.268 923.434 276.19 925.296 276.19 927.06C276.19 928.698 277.086 929.58 278.15 929.58C279.424 929.58 280.446 928.53 281.51 927.046C282.63 925.506 283.61 922.58 284.114 920.27C284.184 920.004 284.268 919.514 284.366 919.164ZM278.626 919.808L277.464 920.172C277.646 920.536 277.8 920.998 277.94 921.446C278.472 923.196 279.284 925.338 279.97 926.43C280.502 927.34 281.02 928.026 281.58 928.642L282.462 927.928C281.79 927.284 281.132 926.36 280.656 925.548C280.068 924.568 279.284 922.412 278.92 921.04C278.808 920.648 278.696 920.186 278.626 919.808ZM292.822 930.784L293.774 929.972C292.892 928.95 291.632 927.69 290.624 926.878L289.714 927.676C290.708 928.488 291.912 929.678 292.822 930.784ZM130.044 937.41C130.058 937.76 130.058 938.18 130.058 938.502C130.058 939.048 130.058 944.83 130.058 945.404C130.058 945.894 130.03 946.916 130.03 947.098H131.22C131.22 946.916 131.206 946.02 131.206 945.558C131.206 944.984 131.206 938.544 131.206 938.544H138.85C138.85 938.544 138.85 945.04 138.85 945.558C138.85 946.146 138.836 946.944 138.822 947.098H140.04C140.026 946.944 140.012 945.852 140.012 945.404C140.012 944.872 140.012 939.16 140.012 938.502C140.012 938.152 140.012 937.76 140.04 937.424C139.606 937.438 139.102 937.438 138.808 937.438C138.122 937.438 132.032 937.438 131.29 937.438C130.954 937.438 130.59 937.438 130.044 937.41ZM139.312 945.208H130.646V946.3H139.312V945.208ZM152.71 935.8L151.954 936.122C152.332 936.654 152.808 937.494 153.088 938.068L153.844 937.718C153.564 937.158 153.06 936.304 152.71 935.8ZM154.236 935.24L153.508 935.562C153.9 936.08 154.348 936.878 154.656 937.48L155.412 937.144C155.146 936.626 154.614 935.758 154.236 935.24ZM153.634 938.586L152.71 938.026C152.472 938.124 152.164 938.166 151.786 938.166C151.352 938.166 147.894 938.166 147.32 938.166L146.872 939.174H152.066C151.772 940.448 150.918 942.254 149.826 943.542C148.552 945.026 146.816 946.3 144.24 947.056L145.248 947.966C147.88 947 149.56 945.712 150.834 944.158C152.066 942.646 152.934 940.742 153.312 939.342C153.382 939.118 153.522 938.796 153.634 938.586ZM148.944 936.472L147.656 936.052C147.572 936.402 147.362 936.92 147.222 937.158C146.606 938.418 145.234 940.448 142.812 941.89L143.792 942.618C146.032 941.12 147.502 939.118 148.328 937.578C148.468 937.312 148.72 936.836 148.944 936.472ZM169.034 937.55L168.334 936.878C168.138 936.934 167.634 936.976 167.368 936.976C166.528 936.976 159.99 936.976 159.318 936.976C158.8 936.976 158.226 936.92 157.736 936.85V938.11C158.282 938.068 158.8 938.04 159.318 938.04C159.99 938.04 166.318 938.04 167.298 938.04C166.85 938.908 165.534 940.42 164.232 941.162L165.17 941.904C166.766 940.798 168.096 938.992 168.656 938.04C168.754 937.886 168.922 937.676 169.034 937.55ZM163.434 939.384H162.174C162.23 939.762 162.23 940.07 162.23 940.406C162.23 942.744 161.922 944.732 159.766 946.062C159.374 946.328 158.884 946.566 158.506 946.692L159.528 947.532C163.098 945.74 163.434 943.178 163.434 939.384ZM177.56 935.8H176.23C176.286 936.234 176.3 936.556 176.3 936.85C176.3 937.172 176.3 938.166 176.3 938.712H177.49C177.49 938.222 177.49 937.172 177.49 936.85C177.49 936.556 177.504 936.234 177.56 935.8ZM182.334 938.516L181.578 938.04C181.396 938.096 181.144 938.152 180.626 938.152H173.206C172.716 938.152 172.296 938.124 171.89 938.096C171.946 938.39 171.946 938.866 171.946 939.16C171.946 939.65 171.946 941.176 171.946 941.624C171.946 941.904 171.932 942.282 171.89 942.52H173.108C173.08 942.31 173.066 941.932 173.066 941.694C173.066 941.26 173.066 939.762 173.066 939.188H180.878C180.752 940.378 180.318 942.072 179.562 943.262C178.694 944.592 177.168 945.628 175.754 946.09C175.306 946.258 174.774 946.398 174.312 946.482L175.222 947.518C177.784 946.818 179.716 945.39 180.752 943.556C181.536 942.226 181.942 940.476 182.138 939.356C182.18 939.09 182.264 938.712 182.334 938.516ZM188.704 945.768C188.704 946.286 188.69 946.986 188.62 947.434H189.978C189.922 946.972 189.894 946.216 189.894 945.768C189.894 945.11 189.88 939.804 189.88 937.634C189.88 937.2 189.922 936.598 189.978 936.164H188.606C188.676 936.612 188.704 937.228 188.704 937.634C188.704 938.796 188.704 944.984 188.704 945.768ZM189.628 939.846V941.078C191.154 941.554 193.772 942.548 195.368 943.402L195.858 942.212C194.304 941.456 191.476 940.378 189.628 939.846ZM205.322 937.088C205.476 937.522 205.672 938.166 205.98 938.964C206.442 940.238 207.212 941.624 207.8 942.52C207.296 942.464 206.26 942.38 205.476 942.31L205.392 943.234C206.4 943.304 208.108 943.458 208.78 943.626L209.34 942.828C209.13 942.604 208.92 942.366 208.738 942.086C208.136 941.274 207.422 939.972 206.988 938.768C206.666 937.858 206.302 936.654 206.176 935.842L204.972 935.982C205.112 936.36 205.238 936.78 205.322 937.088ZM200.198 938.18L200.226 939.286C202.704 939.496 204.93 939.482 206.708 939.272C207.73 939.146 209.06 938.922 210.054 938.642L209.928 937.536C208.836 937.914 207.45 938.166 206.344 938.292C204.748 938.46 202.536 938.446 200.198 938.18ZM202.368 942.632L201.276 942.38C200.87 943.206 200.59 943.934 200.59 944.718C200.59 946.622 202.27 947.574 204.93 947.588C206.498 947.602 207.674 947.448 208.556 947.294L208.598 946.174C207.632 946.384 206.414 946.524 205 946.524C202.914 946.496 201.696 945.922 201.696 944.578C201.696 943.92 201.948 943.318 202.368 942.632ZM225.636 945.936L225.454 944.746C224.74 945.488 223.998 945.894 223.34 945.894C222.836 945.894 222.598 945.516 222.598 945.04C222.598 943.626 223.13 941.218 223.13 939.818C223.13 938.684 222.486 937.942 221.17 937.942C219.448 937.942 217.124 939.958 216.256 940.91L216.242 942.296C217.558 940.7 219.588 938.964 220.904 938.964C221.618 938.964 222.024 939.314 222.024 940.126C222.024 941.484 221.506 943.78 221.506 945.348C221.506 946.496 222.122 947.112 223.06 947.112C224.012 947.112 224.88 946.692 225.636 945.936ZM216.228 939.244L216.116 939.622L216.06 940.35C215.514 941.274 213.624 943.836 212.756 944.928L213.456 945.88C214.338 944.662 215.64 942.772 216.284 941.778L216.704 939.86C216.942 939.468 217.32 938.866 217.558 938.502L217.152 938.026C216.508 938.236 214.758 938.446 214.016 938.488C213.666 938.516 213.4 938.516 213.092 938.502L213.218 939.664C214.254 939.496 215.766 939.314 216.228 939.244ZM216.088 936.934C216.088 937.452 215.752 941.89 215.724 943.122C215.71 944.662 215.696 945.362 215.696 946.72C215.696 946.944 215.682 947.28 215.654 947.546H216.858C216.844 947.28 216.802 946.93 216.788 946.692C216.732 945.446 216.732 944.592 216.732 943.318C216.732 940.854 217.152 936.85 217.348 935.94L216.032 935.898C216.102 936.248 216.088 936.612 216.088 936.934ZM234.008 935.898H232.818C232.86 936.08 232.874 936.5 232.874 936.738C232.874 937.718 232.874 939.188 232.874 940.448C232.874 941.68 233.014 944.368 233.014 945.446C233.014 946.426 232.328 946.664 231.516 946.664C230.13 946.664 229.584 946.188 229.584 945.53C229.584 944.886 230.298 944.368 231.642 944.368C234.134 944.368 236.206 945.768 237.466 946.93L238.11 945.936C237.032 945.054 234.722 943.458 231.768 943.458C229.752 943.458 228.534 944.312 228.534 945.586C228.534 946.944 229.64 947.658 231.656 947.658C233.476 947.658 234.12 946.664 234.12 945.684C234.12 944.746 233.91 942.296 233.91 940.448C233.91 939.272 233.91 937.396 233.938 936.836C233.952 936.416 233.98 936.136 234.008 935.898ZM228.66 937.41L228.674 938.446C229.556 938.558 231.278 938.684 232.244 938.684C234.12 938.684 236.122 938.502 237.704 938.32V937.298C235.884 937.592 234.008 937.718 232.23 937.718C231.306 937.718 229.556 937.578 228.66 937.41ZM228.59 940.392L228.604 941.442C229.598 941.554 231.138 941.624 232.104 941.624C234.204 941.624 235.912 941.526 237.816 941.288V940.238C235.996 940.504 234.134 940.644 232.104 940.644C231.18 940.644 229.584 940.546 228.59 940.392ZM244.76 936.094H243.332C243.416 936.5 243.458 936.99 243.458 937.508C243.458 938.978 243.318 942.52 243.318 944.592C243.318 946.888 244.704 947.714 246.72 947.714C249.786 947.714 251.606 945.964 252.558 944.634L251.774 943.682C250.766 945.138 249.31 946.566 246.748 946.566C245.418 946.566 244.452 946.034 244.452 944.494C244.452 942.408 244.564 939.09 244.62 937.508C244.648 937.046 244.69 936.556 244.76 936.094ZM260.188 935.996L258.858 935.884C258.886 936.178 258.858 936.654 258.802 937.046C258.704 937.774 258.34 939.538 258.004 940.826C257.472 942.8 256.492 945.642 255.652 947.098L256.87 947.504C257.612 945.978 258.55 943.08 259.054 941.092C259.446 939.692 259.74 938.11 259.95 937.102C260.006 936.836 260.104 936.304 260.188 935.996ZM257.094 938.334C256.576 938.334 256.072 938.306 255.414 938.222L255.442 939.314C255.96 939.356 256.45 939.37 257.066 939.37C258.578 939.37 260.692 939.132 262.428 938.74V937.648C260.692 938.082 258.634 938.334 257.094 938.334ZM261.518 940.252V941.302C262.372 941.204 263.24 941.148 264.108 941.148C264.934 941.148 265.746 941.232 266.474 941.316L266.502 940.252C265.746 940.168 264.892 940.14 264.08 940.14C263.184 940.14 262.246 940.182 261.518 940.252ZM261.798 943.654L260.762 943.556C260.636 944.144 260.552 944.676 260.552 945.208C260.552 946.594 261.756 947.266 263.954 947.266C264.976 947.266 265.914 947.182 266.67 947.07L266.712 945.95C265.844 946.118 264.892 946.216 263.968 946.216C261.98 946.216 261.602 945.572 261.602 944.914C261.602 944.55 261.686 944.116 261.798 943.654Z" fill="black"/>
</svg>
