<svg width="1440" height="1024" viewBox="0 0 1440 1024" fill="none" xmlns="http://www.w3.org/2000/svg">
<g clip-path="url(#clip0_3_36)">
<rect width="1440" height="1024" fill="white"/>
<rect x="420" y="176" width="600" height="479" fill="#D9D9D9"/>
<rect x="644.5" y="533.5" width="298" height="57" rx="9.5" fill="white" stroke="#2F57BE"/>
<path d="M734.448 557.242C734.448 556.738 734.868 556.318 735.372 556.318C735.876 556.318 736.296 556.738 736.296 557.242C736.296 557.76 735.876 558.166 735.372 558.166C734.868 558.166 734.448 557.76 734.448 557.242ZM733.804 557.242C733.804 558.11 734.504 558.81 735.372 558.81C736.24 558.81 736.94 558.11 736.94 557.242C736.94 556.374 736.24 555.674 735.372 555.674C734.504 555.674 733.804 556.374 733.804 557.242ZM726.538 562.8C726.062 563.962 725.264 565.432 724.382 566.608L725.572 567.112C726.356 565.978 727.126 564.536 727.644 563.262C728.232 561.82 728.722 559.748 728.904 558.88C728.974 558.586 729.072 558.166 729.17 557.858L727.924 557.606C727.728 559.216 727.154 561.344 726.538 562.8ZM733.44 562.268C734.014 563.752 734.672 565.656 735.022 567.07L736.268 566.678C735.89 565.404 735.148 563.262 734.588 561.876C733.986 560.406 733.09 558.474 732.544 557.452L731.41 557.83C732.012 558.88 732.88 560.826 733.44 562.268ZM748.686 557.648L747.986 557.102C747.762 557.172 747.384 557.214 746.936 557.214C746.404 557.214 742.078 557.214 741.532 557.214C741.098 557.214 740.3 557.158 740.118 557.13V558.39C740.272 558.376 741.028 558.32 741.532 558.32C742.008 558.32 746.488 558.32 746.992 558.32C746.628 559.482 745.606 561.148 744.654 562.226C743.212 563.822 741.154 565.502 738.886 566.37L739.782 567.308C741.994 566.3 743.996 564.634 745.564 562.884C746.726 561.596 747.79 559.636 748.35 558.25C748.42 558.068 748.602 557.76 748.686 557.648ZM745.746 562.156L744.948 562.94C746.46 564.27 748.098 566.062 749.106 567.392L750.072 566.538C749.12 565.376 747.258 563.416 745.746 562.156ZM763.764 557.662L762.91 557.13C762.658 557.186 762.322 557.2 762.028 557.2C761.23 557.2 755.308 557.2 754.832 557.2C754.23 557.2 753.712 557.2 753.348 557.172C753.376 557.466 753.39 557.774 753.39 558.096C753.39 558.698 753.39 560.644 753.39 561.092C753.39 561.358 753.376 561.652 753.348 561.988H754.608C754.58 561.638 754.58 561.288 754.58 561.092C754.58 560.644 754.58 558.684 754.58 558.292C755.574 558.292 761.51 558.292 762.294 558.292C762.154 559.944 761.762 561.736 760.964 562.968C759.83 564.76 757.828 565.978 755.77 566.538L756.722 567.49C758.976 566.762 760.88 565.334 762.014 563.556C763.036 561.974 763.33 559.972 763.582 558.32C763.596 558.18 763.694 557.802 763.764 557.662ZM766.914 560.938V562.31C767.362 562.282 768.104 562.254 768.874 562.254C769.91 562.254 775.496 562.254 776.56 562.254C777.176 562.254 777.764 562.296 778.058 562.31V560.938C777.736 560.966 777.246 561.022 776.546 561.022C775.51 561.022 769.896 561.022 768.874 561.022C768.076 561.022 767.348 560.98 766.914 560.938ZM788.684 556.934L787.9 557.27C788.362 557.9 788.81 558.67 789.16 559.412L789.958 559.048C789.636 558.376 789.034 557.438 788.684 556.934ZM790.364 556.234L789.608 556.598C790.07 557.214 790.532 557.956 790.896 558.698L791.68 558.306C791.358 557.648 790.742 556.724 790.364 556.234ZM783.77 565.95C783.77 566.482 783.742 567.168 783.672 567.616H785.03C784.974 567.154 784.946 566.398 784.946 565.95C784.946 565.292 784.932 560 784.932 557.816C784.932 557.396 784.988 556.78 785.03 556.36H783.658C783.728 556.794 783.77 557.41 783.77 557.816C783.77 558.992 783.77 565.18 783.77 565.95ZM784.68 560.028V561.26C786.206 561.736 788.824 562.73 790.42 563.584L790.91 562.408C789.356 561.638 786.542 560.56 784.68 560.028ZM799.94 555.94L798.792 555.842C798.75 556.5 798.554 557.34 798.246 558.11C797.77 559.3 796.832 560.924 794.816 562.856L795.782 563.57C796.244 562.996 796.636 562.492 797.042 562.1C797.686 561.526 798.568 561.078 799.464 561.078C800.192 561.078 800.752 561.456 800.766 562.268C800.78 562.996 800.766 564.438 800.71 565.18H801.788C801.774 564.312 801.746 562.702 801.746 561.974C801.746 560.84 800.906 560.196 799.828 560.196C799.212 560.196 798.414 560.392 797.868 560.714C798.428 559.986 798.946 559.048 799.296 558.194C799.66 557.256 799.814 556.486 799.94 555.94ZM795.138 557.452V558.502C795.922 558.558 796.846 558.586 797.448 558.586C799.226 558.586 801.83 558.46 803.79 558.166V557.13C801.816 557.48 799.394 557.592 797.504 557.592C796.86 557.592 795.894 557.55 795.138 557.452ZM805.834 560.826L805.386 559.79C804.994 559.986 804.644 560.14 804.224 560.336C803.3 560.77 802.166 561.204 800.836 561.89C799.17 562.744 797.434 563.794 797.434 565.502C797.434 567.196 799.044 567.63 801.032 567.63C802.25 567.63 803.804 567.518 804.868 567.392L804.91 566.258C803.678 566.482 802.166 566.608 801.074 566.608C799.632 566.608 798.554 566.44 798.554 565.348C798.554 564.382 799.534 563.626 800.92 562.898C802.278 562.198 803.608 561.666 804.602 561.274C804.98 561.134 805.484 560.938 805.834 560.826ZM808.046 563.752V564.732H820.968V563.752H808.046ZM808.564 556.094V557.074H820.45V556.094H808.564ZM810.398 561.092V562.016H818.63V561.092H810.398ZM818.224 558.446V566.832C818.224 567.07 818.14 567.14 817.888 567.14C817.636 567.154 816.74 567.168 815.816 567.14C815.97 567.406 816.138 567.868 816.194 568.148C817.412 568.148 818.196 568.134 818.644 567.966C819.12 567.798 819.26 567.476 819.26 566.832V558.446H818.224ZM809.712 558.446V568.148H810.748V559.412H818.658V558.446H809.712ZM813.912 556.402V564.116H814.962V556.402H813.912ZM824.65 559.174V560.042H834.604V559.174H824.65ZM824.846 563.262V564.13H832.854V563.262H824.846ZM826.904 557.956V562.366H832.336V557.956H831.314V561.526H827.898V557.956H826.904ZM832.574 563.262V563.416C831.3 565.81 827.842 566.902 824.3 567.238C824.468 567.476 824.664 567.868 824.748 568.134C828.514 567.658 832.098 566.482 833.638 563.57L832.98 563.206L832.784 563.262H832.574ZM827.338 563.99L826.428 564.326C827.954 566.51 830.866 567.7 834.338 568.148C834.464 567.882 834.73 567.476 834.954 567.252C831.566 566.902 828.668 565.852 827.338 563.99ZM828.36 555.254V557.158H829.438V555.254H828.36ZM823.698 556.64V557.592H834.702V556.64H823.698ZM823.18 556.64V560.672C823.18 562.716 823.082 565.558 821.934 567.56C822.172 567.672 822.62 567.966 822.802 568.148C824.006 566.02 824.188 562.856 824.188 560.672V556.64H823.18ZM838.678 556.094V557.158H842.64V556.094H838.678ZM842.108 556.094C842.108 558.726 842.57 564.69 848.17 568.078C848.366 567.826 848.786 567.378 849.024 567.196C843.494 563.92 843.186 558.6 843.186 556.094H842.108ZM841.716 558.838C840.862 562.8 839.112 565.628 836.004 567.252C836.284 567.448 836.76 567.882 836.956 568.106C840.05 566.286 841.898 563.332 842.906 559.062L841.716 558.838ZM850.648 558.306V559.37H861.512V558.306H850.648ZM861.106 558.306V558.53C860.826 564.088 860.518 566.272 859.986 566.79C859.804 566.958 859.636 567 859.328 567C858.978 567 858.082 566.986 857.13 566.902C857.326 567.21 857.466 567.672 857.48 567.98C858.348 568.036 859.244 568.064 859.734 568.008C860.266 567.966 860.602 567.854 860.938 567.448C861.554 566.748 861.848 564.662 862.17 558.866C862.184 558.698 862.198 558.306 862.198 558.306H861.106ZM855.226 555.268V557.704C855.226 560.602 854.89 564.578 850.242 567.35C850.494 567.532 850.886 567.924 851.04 568.176C855.94 565.222 856.332 560.896 856.332 557.704V555.268H855.226Z" fill="#C2C3C4"/>
<path d="M527.448 549.242C527.448 548.738 527.868 548.318 528.372 548.318C528.876 548.318 529.296 548.738 529.296 549.242C529.296 549.76 528.876 550.166 528.372 550.166C527.868 550.166 527.448 549.76 527.448 549.242ZM526.804 549.242C526.804 550.11 527.504 550.81 528.372 550.81C529.24 550.81 529.94 550.11 529.94 549.242C529.94 548.374 529.24 547.674 528.372 547.674C527.504 547.674 526.804 548.374 526.804 549.242ZM519.538 554.8C519.062 555.962 518.264 557.432 517.382 558.608L518.572 559.112C519.356 557.978 520.126 556.536 520.644 555.262C521.232 553.82 521.722 551.748 521.904 550.88C521.974 550.586 522.072 550.166 522.17 549.858L520.924 549.606C520.728 551.216 520.154 553.344 519.538 554.8ZM526.44 554.268C527.014 555.752 527.672 557.656 528.022 559.07L529.268 558.678C528.89 557.404 528.148 555.262 527.588 553.876C526.986 552.406 526.09 550.474 525.544 549.452L524.41 549.83C525.012 550.88 525.88 552.826 526.44 554.268ZM541.686 549.648L540.986 549.102C540.762 549.172 540.384 549.214 539.936 549.214C539.404 549.214 535.078 549.214 534.532 549.214C534.098 549.214 533.3 549.158 533.118 549.13V550.39C533.272 550.376 534.028 550.32 534.532 550.32C535.008 550.32 539.488 550.32 539.992 550.32C539.628 551.482 538.606 553.148 537.654 554.226C536.212 555.822 534.154 557.502 531.886 558.37L532.782 559.308C534.994 558.3 536.996 556.634 538.564 554.884C539.726 553.596 540.79 551.636 541.35 550.25C541.42 550.068 541.602 549.76 541.686 549.648ZM538.746 554.156L537.948 554.94C539.46 556.27 541.098 558.062 542.106 559.392L543.072 558.538C542.12 557.376 540.258 555.416 538.746 554.156ZM556.764 549.662L555.91 549.13C555.658 549.186 555.322 549.2 555.028 549.2C554.23 549.2 548.308 549.2 547.832 549.2C547.23 549.2 546.712 549.2 546.348 549.172C546.376 549.466 546.39 549.774 546.39 550.096C546.39 550.698 546.39 552.644 546.39 553.092C546.39 553.358 546.376 553.652 546.348 553.988H547.608C547.58 553.638 547.58 553.288 547.58 553.092C547.58 552.644 547.58 550.684 547.58 550.292C548.574 550.292 554.51 550.292 555.294 550.292C555.154 551.944 554.762 553.736 553.964 554.968C552.83 556.76 550.828 557.978 548.77 558.538L549.722 559.49C551.976 558.762 553.88 557.334 555.014 555.556C556.036 553.974 556.33 551.972 556.582 550.32C556.596 550.18 556.694 549.802 556.764 549.662ZM559.914 552.938V554.31C560.362 554.282 561.104 554.254 561.874 554.254C562.91 554.254 568.496 554.254 569.56 554.254C570.176 554.254 570.764 554.296 571.058 554.31V552.938C570.736 552.966 570.246 553.022 569.546 553.022C568.51 553.022 562.896 553.022 561.874 553.022C561.076 553.022 560.348 552.98 559.914 552.938ZM581.684 548.934L580.9 549.27C581.362 549.9 581.81 550.67 582.16 551.412L582.958 551.048C582.636 550.376 582.034 549.438 581.684 548.934ZM583.364 548.234L582.608 548.598C583.07 549.214 583.532 549.956 583.896 550.698L584.68 550.306C584.358 549.648 583.742 548.724 583.364 548.234ZM576.77 557.95C576.77 558.482 576.742 559.168 576.672 559.616H578.03C577.974 559.154 577.946 558.398 577.946 557.95C577.946 557.292 577.932 552 577.932 549.816C577.932 549.396 577.988 548.78 578.03 548.36H576.658C576.728 548.794 576.77 549.41 576.77 549.816C576.77 550.992 576.77 557.18 576.77 557.95ZM577.68 552.028V553.26C579.206 553.736 581.824 554.73 583.42 555.584L583.91 554.408C582.356 553.638 579.542 552.56 577.68 552.028ZM589.523 554.545L589.602 552.358L587.753 553.531L587.276 552.696L589.224 551.682L587.276 550.668L587.753 549.832L589.602 551.006L589.523 548.818H590.477L590.398 551.006L592.247 549.832L592.724 550.668L590.776 551.682L592.724 552.696L592.247 553.531L590.398 552.358L590.477 554.545H589.523ZM530.419 571.705C530.419 570.452 530.582 569.3 530.906 568.249C531.235 567.195 531.702 566.226 532.308 565.341H533.343C533.104 565.669 532.88 566.073 532.671 566.554C532.466 567.031 532.285 567.557 532.129 568.13C531.974 568.7 531.851 569.29 531.762 569.9C531.675 570.51 531.632 571.111 531.632 571.705C531.632 572.493 531.709 573.294 531.861 574.106C532.013 574.918 532.219 575.672 532.477 576.368C532.736 577.064 533.024 577.631 533.343 578.068H532.308C531.702 577.183 531.235 576.215 530.906 575.165C530.582 574.111 530.419 572.957 530.419 571.705ZM534.546 572.752V573.732H547.468V572.752H534.546ZM535.064 565.094V566.074H546.95V565.094H535.064ZM536.898 570.092V571.016H545.13V570.092H536.898ZM544.724 567.446V575.832C544.724 576.07 544.64 576.14 544.388 576.14C544.136 576.154 543.24 576.168 542.316 576.14C542.47 576.406 542.638 576.868 542.694 577.148C543.912 577.148 544.696 577.134 545.144 576.966C545.62 576.798 545.76 576.476 545.76 575.832V567.446H544.724ZM536.212 567.446V577.148H537.248V568.412H545.158V567.446H536.212ZM540.412 565.402V573.116H541.462V565.402H540.412ZM551.178 565.094V566.158H555.14V565.094H551.178ZM554.608 565.094C554.608 567.726 555.07 573.69 560.67 577.078C560.866 576.826 561.286 576.378 561.524 576.196C555.994 572.92 555.686 567.6 555.686 565.094H554.608ZM554.216 567.838C553.362 571.8 551.612 574.628 548.504 576.252C548.784 576.448 549.26 576.882 549.456 577.106C552.55 575.286 554.398 572.332 555.406 568.062L554.216 567.838ZM563.148 567.306V568.37H574.012V567.306H563.148ZM573.606 567.306V567.53C573.326 573.088 573.018 575.272 572.486 575.79C572.304 575.958 572.136 576 571.828 576C571.478 576 570.582 575.986 569.63 575.902C569.826 576.21 569.966 576.672 569.98 576.98C570.848 577.036 571.744 577.064 572.234 577.008C572.766 576.966 573.102 576.854 573.438 576.448C574.054 575.748 574.348 573.662 574.67 567.866C574.684 567.698 574.698 567.306 574.698 567.306H573.606ZM567.726 564.268V566.704C567.726 569.602 567.39 573.578 562.742 576.35C562.994 576.532 563.386 576.924 563.54 577.176C568.44 574.222 568.832 569.896 568.832 566.704V564.268H567.726ZM579.58 571.705C579.58 572.957 579.415 574.111 579.087 575.165C578.763 576.215 578.297 577.183 577.69 578.068H576.656C576.895 577.74 577.117 577.336 577.322 576.855C577.531 576.378 577.714 575.854 577.869 575.284C578.025 574.711 578.146 574.119 578.232 573.509C578.322 572.896 578.366 572.295 578.366 571.705C578.366 570.916 578.29 570.115 578.138 569.303C577.985 568.491 577.78 567.737 577.521 567.041C577.263 566.345 576.974 565.778 576.656 565.341H577.69C578.297 566.226 578.763 567.195 579.087 568.249C579.415 569.3 579.58 570.452 579.58 571.705Z" fill="black"/>
<rect x="644.5" y="430.5" width="298" height="57" rx="9.5" fill="white" stroke="#2F57BE"/>
<path d="M748.448 454.242C748.448 453.738 748.868 453.318 749.372 453.318C749.876 453.318 750.296 453.738 750.296 454.242C750.296 454.76 749.876 455.166 749.372 455.166C748.868 455.166 748.448 454.76 748.448 454.242ZM747.804 454.242C747.804 455.11 748.504 455.81 749.372 455.81C750.24 455.81 750.94 455.11 750.94 454.242C750.94 453.374 750.24 452.674 749.372 452.674C748.504 452.674 747.804 453.374 747.804 454.242ZM740.538 459.8C740.062 460.962 739.264 462.432 738.382 463.608L739.572 464.112C740.356 462.978 741.126 461.536 741.644 460.262C742.232 458.82 742.722 456.748 742.904 455.88C742.974 455.586 743.072 455.166 743.17 454.858L741.924 454.606C741.728 456.216 741.154 458.344 740.538 459.8ZM747.44 459.268C748.014 460.752 748.672 462.656 749.022 464.07L750.268 463.678C749.89 462.404 749.148 460.262 748.588 458.876C747.986 457.406 747.09 455.474 746.544 454.452L745.41 454.83C746.012 455.88 746.88 457.826 747.44 459.268ZM762.686 454.648L761.986 454.102C761.762 454.172 761.384 454.214 760.936 454.214C760.404 454.214 756.078 454.214 755.532 454.214C755.098 454.214 754.3 454.158 754.118 454.13V455.39C754.272 455.376 755.028 455.32 755.532 455.32C756.008 455.32 760.488 455.32 760.992 455.32C760.628 456.482 759.606 458.148 758.654 459.226C757.212 460.822 755.154 462.502 752.886 463.37L753.782 464.308C755.994 463.3 757.996 461.634 759.564 459.884C760.726 458.596 761.79 456.636 762.35 455.25C762.42 455.068 762.602 454.76 762.686 454.648ZM759.746 459.156L758.948 459.94C760.46 461.27 762.098 463.062 763.106 464.392L764.072 463.538C763.12 462.376 761.258 460.416 759.746 459.156ZM777.764 454.662L776.91 454.13C776.658 454.186 776.322 454.2 776.028 454.2C775.23 454.2 769.308 454.2 768.832 454.2C768.23 454.2 767.712 454.2 767.348 454.172C767.376 454.466 767.39 454.774 767.39 455.096C767.39 455.698 767.39 457.644 767.39 458.092C767.39 458.358 767.376 458.652 767.348 458.988H768.608C768.58 458.638 768.58 458.288 768.58 458.092C768.58 457.644 768.58 455.684 768.58 455.292C769.574 455.292 775.51 455.292 776.294 455.292C776.154 456.944 775.762 458.736 774.964 459.968C773.83 461.76 771.828 462.978 769.77 463.538L770.722 464.49C772.976 463.762 774.88 462.334 776.014 460.556C777.036 458.974 777.33 456.972 777.582 455.32C777.596 455.18 777.694 454.802 777.764 454.662ZM780.914 457.938V459.31C781.362 459.282 782.104 459.254 782.874 459.254C783.91 459.254 789.496 459.254 790.56 459.254C791.176 459.254 791.764 459.296 792.058 459.31V457.938C791.736 457.966 791.246 458.022 790.546 458.022C789.51 458.022 783.896 458.022 782.874 458.022C782.076 458.022 781.348 457.98 780.914 457.938ZM802.684 453.934L801.9 454.27C802.362 454.9 802.81 455.67 803.16 456.412L803.958 456.048C803.636 455.376 803.034 454.438 802.684 453.934ZM804.364 453.234L803.608 453.598C804.07 454.214 804.532 454.956 804.896 455.698L805.68 455.306C805.358 454.648 804.742 453.724 804.364 453.234ZM797.77 462.95C797.77 463.482 797.742 464.168 797.672 464.616H799.03C798.974 464.154 798.946 463.398 798.946 462.95C798.946 462.292 798.932 457 798.932 454.816C798.932 454.396 798.988 453.78 799.03 453.36H797.658C797.728 453.794 797.77 454.41 797.77 454.816C797.77 455.992 797.77 462.18 797.77 462.95ZM798.68 457.028V458.26C800.206 458.736 802.824 459.73 804.42 460.584L804.91 459.408C803.356 458.638 800.542 457.56 798.68 457.028ZM813.94 452.94L812.792 452.842C812.75 453.5 812.554 454.34 812.246 455.11C811.77 456.3 810.832 457.924 808.816 459.856L809.782 460.57C810.244 459.996 810.636 459.492 811.042 459.1C811.686 458.526 812.568 458.078 813.464 458.078C814.192 458.078 814.752 458.456 814.766 459.268C814.78 459.996 814.766 461.438 814.71 462.18H815.788C815.774 461.312 815.746 459.702 815.746 458.974C815.746 457.84 814.906 457.196 813.828 457.196C813.212 457.196 812.414 457.392 811.868 457.714C812.428 456.986 812.946 456.048 813.296 455.194C813.66 454.256 813.814 453.486 813.94 452.94ZM809.138 454.452V455.502C809.922 455.558 810.846 455.586 811.448 455.586C813.226 455.586 815.83 455.46 817.79 455.166V454.13C815.816 454.48 813.394 454.592 811.504 454.592C810.86 454.592 809.894 454.55 809.138 454.452ZM819.834 457.826L819.386 456.79C818.994 456.986 818.644 457.14 818.224 457.336C817.3 457.77 816.166 458.204 814.836 458.89C813.17 459.744 811.434 460.794 811.434 462.502C811.434 464.196 813.044 464.63 815.032 464.63C816.25 464.63 817.804 464.518 818.868 464.392L818.91 463.258C817.678 463.482 816.166 463.608 815.074 463.608C813.632 463.608 812.554 463.44 812.554 462.348C812.554 461.382 813.534 460.626 814.92 459.898C816.278 459.198 817.608 458.666 818.602 458.274C818.98 458.134 819.484 457.938 819.834 457.826ZM824.678 453.094V454.158H828.64V453.094H824.678ZM828.108 453.094C828.108 455.726 828.57 461.69 834.17 465.078C834.366 464.826 834.786 464.378 835.024 464.196C829.494 460.92 829.186 455.6 829.186 453.094H828.108ZM827.716 455.838C826.862 459.8 825.112 462.628 822.004 464.252C822.284 464.448 822.76 464.882 822.956 465.106C826.05 463.286 827.898 460.332 828.906 456.062L827.716 455.838ZM836.648 455.306V456.37H847.512V455.306H836.648ZM847.106 455.306V455.53C846.826 461.088 846.518 463.272 845.986 463.79C845.804 463.958 845.636 464 845.328 464C844.978 464 844.082 463.986 843.13 463.902C843.326 464.21 843.466 464.672 843.48 464.98C844.348 465.036 845.244 465.064 845.734 465.008C846.266 464.966 846.602 464.854 846.938 464.448C847.554 463.748 847.848 461.662 848.17 455.866C848.184 455.698 848.198 455.306 848.198 455.306H847.106ZM841.226 452.268V454.704C841.226 457.602 840.89 461.578 836.242 464.35C836.494 464.532 836.886 464.924 837.04 465.176C841.94 462.222 842.332 457.896 842.332 454.704V452.268H841.226Z" fill="#C2C3C4"/>
<path d="M527.448 454.242C527.448 453.738 527.868 453.318 528.372 453.318C528.876 453.318 529.296 453.738 529.296 454.242C529.296 454.76 528.876 455.166 528.372 455.166C527.868 455.166 527.448 454.76 527.448 454.242ZM526.804 454.242C526.804 455.11 527.504 455.81 528.372 455.81C529.24 455.81 529.94 455.11 529.94 454.242C529.94 453.374 529.24 452.674 528.372 452.674C527.504 452.674 526.804 453.374 526.804 454.242ZM519.538 459.8C519.062 460.962 518.264 462.432 517.382 463.608L518.572 464.112C519.356 462.978 520.126 461.536 520.644 460.262C521.232 458.82 521.722 456.748 521.904 455.88C521.974 455.586 522.072 455.166 522.17 454.858L520.924 454.606C520.728 456.216 520.154 458.344 519.538 459.8ZM526.44 459.268C527.014 460.752 527.672 462.656 528.022 464.07L529.268 463.678C528.89 462.404 528.148 460.262 527.588 458.876C526.986 457.406 526.09 455.474 525.544 454.452L524.41 454.83C525.012 455.88 525.88 457.826 526.44 459.268ZM541.686 454.648L540.986 454.102C540.762 454.172 540.384 454.214 539.936 454.214C539.404 454.214 535.078 454.214 534.532 454.214C534.098 454.214 533.3 454.158 533.118 454.13V455.39C533.272 455.376 534.028 455.32 534.532 455.32C535.008 455.32 539.488 455.32 539.992 455.32C539.628 456.482 538.606 458.148 537.654 459.226C536.212 460.822 534.154 462.502 531.886 463.37L532.782 464.308C534.994 463.3 536.996 461.634 538.564 459.884C539.726 458.596 540.79 456.636 541.35 455.25C541.42 455.068 541.602 454.76 541.686 454.648ZM538.746 459.156L537.948 459.94C539.46 461.27 541.098 463.062 542.106 464.392L543.072 463.538C542.12 462.376 540.258 460.416 538.746 459.156ZM556.764 454.662L555.91 454.13C555.658 454.186 555.322 454.2 555.028 454.2C554.23 454.2 548.308 454.2 547.832 454.2C547.23 454.2 546.712 454.2 546.348 454.172C546.376 454.466 546.39 454.774 546.39 455.096C546.39 455.698 546.39 457.644 546.39 458.092C546.39 458.358 546.376 458.652 546.348 458.988H547.608C547.58 458.638 547.58 458.288 547.58 458.092C547.58 457.644 547.58 455.684 547.58 455.292C548.574 455.292 554.51 455.292 555.294 455.292C555.154 456.944 554.762 458.736 553.964 459.968C552.83 461.76 550.828 462.978 548.77 463.538L549.722 464.49C551.976 463.762 553.88 462.334 555.014 460.556C556.036 458.974 556.33 456.972 556.582 455.32C556.596 455.18 556.694 454.802 556.764 454.662ZM559.914 457.938V459.31C560.362 459.282 561.104 459.254 561.874 459.254C562.91 459.254 568.496 459.254 569.56 459.254C570.176 459.254 570.764 459.296 571.058 459.31V457.938C570.736 457.966 570.246 458.022 569.546 458.022C568.51 458.022 562.896 458.022 561.874 458.022C561.076 458.022 560.348 457.98 559.914 457.938ZM581.684 453.934L580.9 454.27C581.362 454.9 581.81 455.67 582.16 456.412L582.958 456.048C582.636 455.376 582.034 454.438 581.684 453.934ZM583.364 453.234L582.608 453.598C583.07 454.214 583.532 454.956 583.896 455.698L584.68 455.306C584.358 454.648 583.742 453.724 583.364 453.234ZM576.77 462.95C576.77 463.482 576.742 464.168 576.672 464.616H578.03C577.974 464.154 577.946 463.398 577.946 462.95C577.946 462.292 577.932 457 577.932 454.816C577.932 454.396 577.988 453.78 578.03 453.36H576.658C576.728 453.794 576.77 454.41 576.77 454.816C576.77 455.992 576.77 462.18 576.77 462.95ZM577.68 457.028V458.26C579.206 458.736 581.824 459.73 583.42 460.584L583.91 459.408C582.356 458.638 579.542 457.56 577.68 457.028ZM589.523 459.545L589.602 457.358L587.753 458.531L587.276 457.696L589.224 456.682L587.276 455.668L587.753 454.832L589.602 456.006L589.523 453.818H590.477L590.398 456.006L592.247 454.832L592.724 455.668L590.776 456.682L592.724 457.696L592.247 458.531L590.398 457.358L590.477 459.545H589.523Z" fill="black"/>
<rect x="644.5" y="327.5" width="298" height="57" rx="9.5" fill="white" stroke="#2F57BE"/>
<path d="M734.826 350.808L733.552 350.374C733.482 350.668 733.356 351.13 733.258 351.41C732.782 352.782 732.082 354.336 730.934 355.82C729.492 357.654 727.7 359.32 725.096 360.566L726.048 361.434C728.694 360.062 730.514 358.214 731.858 356.506C733.006 355.05 733.846 353.23 734.378 351.844C734.49 351.55 734.686 351.074 734.826 350.808ZM727.434 352.46L726.692 353.342C728.232 354.28 730.052 355.666 731.06 356.506C732.46 357.682 733.678 358.788 734.84 360.132L735.722 359.166C734.616 357.962 733.23 356.744 731.83 355.596C730.766 354.742 728.82 353.342 727.434 352.46ZM738.914 354.938V356.31C739.362 356.282 740.104 356.254 740.874 356.254C741.91 356.254 747.496 356.254 748.56 356.254C749.176 356.254 749.764 356.296 750.058 356.31V354.938C749.736 354.966 749.246 355.022 748.546 355.022C747.51 355.022 741.896 355.022 740.874 355.022C740.076 355.022 739.348 354.98 738.914 354.938ZM758.822 360.706L759.564 361.322C759.676 361.252 759.816 361.126 760.054 361.014C761.678 360.202 763.61 358.774 764.828 357.136L764.156 356.17C763.092 357.752 761.37 359.026 760.068 359.614C760.068 359.194 760.068 352.418 760.068 351.55C760.068 351.018 760.124 350.612 760.138 350.5H758.85C758.85 350.612 758.92 351.004 758.92 351.536C758.92 352.418 758.92 359.278 758.92 359.922C758.92 360.202 758.878 360.496 758.822 360.706ZM752.41 360.65L753.474 361.35C754.65 360.37 755.546 359.012 755.966 357.514C756.344 356.114 756.386 353.104 756.386 351.55C756.386 351.144 756.442 350.71 756.456 350.556H755.168C755.238 350.85 755.266 351.158 755.266 351.564C755.266 353.132 755.266 355.918 754.846 357.206C754.426 358.564 753.6 359.81 752.41 360.65ZM778.534 351.55L777.834 350.878C777.638 350.934 777.134 350.976 776.868 350.976C776.028 350.976 769.49 350.976 768.818 350.976C768.3 350.976 767.726 350.92 767.236 350.85V352.11C767.782 352.068 768.3 352.04 768.818 352.04C769.49 352.04 775.818 352.04 776.798 352.04C776.35 352.908 775.034 354.42 773.732 355.162L774.67 355.904C776.266 354.798 777.596 352.992 778.156 352.04C778.254 351.886 778.422 351.676 778.534 351.55ZM772.934 353.384H771.674C771.73 353.762 771.73 354.07 771.73 354.406C771.73 356.744 771.422 358.732 769.266 360.062C768.874 360.328 768.384 360.566 768.006 360.692L769.028 361.532C772.598 359.74 772.934 357.178 772.934 353.384ZM788.684 350.934L787.9 351.27C788.362 351.9 788.81 352.67 789.16 353.412L789.958 353.048C789.636 352.376 789.034 351.438 788.684 350.934ZM790.364 350.234L789.608 350.598C790.07 351.214 790.532 351.956 790.896 352.698L791.68 352.306C791.358 351.648 790.742 350.724 790.364 350.234ZM783.77 359.95C783.77 360.482 783.742 361.168 783.672 361.616H785.03C784.974 361.154 784.946 360.398 784.946 359.95C784.946 359.292 784.932 354 784.932 351.816C784.932 351.396 784.988 350.78 785.03 350.36H783.658C783.728 350.794 783.77 351.41 783.77 351.816C783.77 352.992 783.77 359.18 783.77 359.95ZM784.68 354.028V355.26C786.206 355.736 788.824 356.73 790.42 357.584L790.91 356.408C789.356 355.638 786.542 354.56 784.68 354.028ZM796.608 360.566L797.406 361.252C797.63 361.126 797.854 361.056 797.994 361.014C801.494 359.992 804.378 358.27 806.198 356.016L805.568 355.036C803.818 357.29 800.584 359.124 797.896 359.81C797.896 359.096 797.896 353.188 797.896 351.858C797.896 351.466 797.952 350.934 797.994 350.598H796.622C796.678 350.864 796.734 351.494 796.734 351.872C796.734 353.202 796.734 358.998 796.734 359.88C796.734 360.146 796.706 360.342 796.608 360.566ZM818.686 351.648L817.986 351.102C817.762 351.172 817.384 351.214 816.936 351.214C816.404 351.214 812.078 351.214 811.532 351.214C811.098 351.214 810.3 351.158 810.118 351.13V352.39C810.272 352.376 811.028 352.32 811.532 352.32C812.008 352.32 816.488 352.32 816.992 352.32C816.628 353.482 815.606 355.148 814.654 356.226C813.212 357.822 811.154 359.502 808.886 360.37L809.782 361.308C811.994 360.3 813.996 358.634 815.564 356.884C816.726 355.596 817.79 353.636 818.35 352.25C818.42 352.068 818.602 351.76 818.686 351.648ZM815.746 356.156L814.948 356.94C816.46 358.27 818.098 360.062 819.106 361.392L820.072 360.538C819.12 359.376 817.258 357.416 815.746 356.156ZM827.94 349.94L826.792 349.842C826.75 350.5 826.554 351.34 826.246 352.11C825.77 353.3 824.832 354.924 822.816 356.856L823.782 357.57C824.244 356.996 824.636 356.492 825.042 356.1C825.686 355.526 826.568 355.078 827.464 355.078C828.192 355.078 828.752 355.456 828.766 356.268C828.78 356.996 828.766 358.438 828.71 359.18H829.788C829.774 358.312 829.746 356.702 829.746 355.974C829.746 354.84 828.906 354.196 827.828 354.196C827.212 354.196 826.414 354.392 825.868 354.714C826.428 353.986 826.946 353.048 827.296 352.194C827.66 351.256 827.814 350.486 827.94 349.94ZM823.138 351.452V352.502C823.922 352.558 824.846 352.586 825.448 352.586C827.226 352.586 829.83 352.46 831.79 352.166V351.13C829.816 351.48 827.394 351.592 825.504 351.592C824.86 351.592 823.894 351.55 823.138 351.452ZM833.834 354.826L833.386 353.79C832.994 353.986 832.644 354.14 832.224 354.336C831.3 354.77 830.166 355.204 828.836 355.89C827.17 356.744 825.434 357.794 825.434 359.502C825.434 361.196 827.044 361.63 829.032 361.63C830.25 361.63 831.804 361.518 832.868 361.392L832.91 360.258C831.678 360.482 830.166 360.608 829.074 360.608C827.632 360.608 826.554 360.44 826.554 359.348C826.554 358.382 827.534 357.626 828.92 356.898C830.278 356.198 831.608 355.666 832.602 355.274C832.98 355.134 833.484 354.938 833.834 354.826ZM838.678 350.094V351.158H842.64V350.094H838.678ZM842.108 350.094C842.108 352.726 842.57 358.69 848.17 362.078C848.366 361.826 848.786 361.378 849.024 361.196C843.494 357.92 843.186 352.6 843.186 350.094H842.108ZM841.716 352.838C840.862 356.8 839.112 359.628 836.004 361.252C836.284 361.448 836.76 361.882 836.956 362.106C840.05 360.286 841.898 357.332 842.906 353.062L841.716 352.838ZM850.648 352.306V353.37H861.512V352.306H850.648ZM861.106 352.306V352.53C860.826 358.088 860.518 360.272 859.986 360.79C859.804 360.958 859.636 361 859.328 361C858.978 361 858.082 360.986 857.13 360.902C857.326 361.21 857.466 361.672 857.48 361.98C858.348 362.036 859.244 362.064 859.734 362.008C860.266 361.966 860.602 361.854 860.938 361.448C861.554 360.748 861.848 358.662 862.17 352.866C862.184 352.698 862.198 352.306 862.198 352.306H861.106ZM855.226 349.268V351.704C855.226 354.602 854.89 358.578 850.242 361.35C850.494 361.532 850.886 361.924 851.04 362.176C855.94 359.222 856.332 354.896 856.332 351.704V349.268H855.226Z" fill="#C2C3C4"/>
<path d="M512.204 351.886V353.146C512.624 353.132 513.1 353.118 513.576 353.118C514.262 353.118 518.882 353.118 519.582 353.118C520.044 353.118 520.576 353.132 520.954 353.146V351.886C520.576 351.928 520.086 351.956 519.582 351.956C518.868 351.956 514.458 351.956 513.576 351.956C513.114 351.956 512.652 351.928 512.204 351.886ZM511 358.83V360.174C511.462 360.132 511.952 360.104 512.47 360.104C513.268 360.104 520.044 360.104 520.856 360.104C521.22 360.104 521.71 360.132 522.13 360.174V358.83C521.724 358.872 521.262 358.9 520.856 358.9C520.044 358.9 513.268 358.9 512.47 358.9C511.952 358.9 511.476 358.858 511 358.83ZM530.474 352.95L529.438 353.3C529.732 353.916 530.376 355.694 530.53 356.338L531.566 355.96C531.398 355.358 530.712 353.51 530.474 352.95ZM535.542 353.734L534.338 353.342C534.114 355.134 533.4 356.926 532.406 358.144C531.258 359.572 529.466 360.636 527.856 361.112L528.78 362.05C530.334 361.462 532.042 360.37 533.344 358.732C534.338 357.472 534.954 355.96 535.318 354.42C535.374 354.238 535.444 354.014 535.542 353.734ZM527.212 353.65L526.176 354.042C526.456 354.532 527.212 356.478 527.436 357.206L528.486 356.814C528.234 356.072 527.492 354.238 527.212 353.65ZM549.906 352.25L548.982 351.69C548.758 351.774 548.436 351.816 548.058 351.816C547.624 351.816 544.166 351.816 543.606 351.816L543.158 352.824H548.338C548.058 354.098 547.19 355.918 546.112 357.192C544.824 358.69 543.088 359.95 540.512 360.706L541.534 361.63C544.152 360.65 545.832 359.376 547.106 357.822C548.352 356.296 549.206 354.406 549.584 352.992C549.654 352.768 549.794 352.446 549.906 352.25ZM545.216 350.136L543.928 349.702C543.844 350.066 543.634 350.57 543.494 350.822C542.878 352.068 541.506 354.112 539.084 355.554L540.064 356.268C542.318 354.784 543.774 352.782 544.6 351.228C544.74 350.976 544.992 350.5 545.216 350.136ZM559.44 349.8H558.166C558.222 350.108 558.236 350.626 558.236 351.018C558.236 351.424 558.236 352.124 558.236 352.404H559.356C559.356 352.124 559.356 351.396 559.356 351.018C559.356 350.64 559.384 350.094 559.44 349.8ZM563.29 352.544L562.548 351.83C562.324 351.9 562.002 351.928 561.666 351.928C560.826 351.928 556.136 351.928 555.492 351.928C555.016 351.928 554.246 351.9 553.798 351.844V353.034C554.218 352.992 555.03 352.978 555.506 352.978C556.136 352.978 560.672 352.978 561.33 352.978C560.84 353.636 559.734 354.728 558.474 355.54C557.214 356.366 555.464 357.276 552.804 357.92L553.49 358.956C555.884 358.228 557.718 357.416 559.244 356.352C560.574 355.442 561.778 354.238 562.506 353.384C562.73 353.118 563.038 352.796 563.29 352.544ZM559.328 355.778L558.208 356.254C558.208 357.15 558.208 358.998 558.208 360.048C558.208 360.538 558.166 361.182 558.124 361.602H559.398C559.356 361.168 559.328 360.538 559.328 360.048C559.328 358.97 559.328 356.856 559.328 355.778ZM563.934 359.124L564.676 358.172C563.374 357.304 562.618 356.856 561.302 356.156L560.574 356.968C561.876 357.668 562.716 358.228 563.934 359.124ZM567.126 354.938V356.31C567.574 356.282 568.316 356.254 569.086 356.254C570.122 356.254 575.708 356.254 576.772 356.254C577.388 356.254 577.976 356.296 578.27 356.31V354.938C577.948 354.966 577.458 355.022 576.758 355.022C575.722 355.022 570.108 355.022 569.086 355.022C568.288 355.022 567.56 354.98 567.126 354.938ZM586.596 350.57L585.196 350.276C585.154 350.654 585.098 350.976 584.916 351.62C584.496 353.104 582.872 358.172 582.172 359.782L583.432 359.74C584.034 358.326 585.658 353.3 586.106 351.872C586.302 351.27 586.456 350.906 586.596 350.57ZM589.256 355.26L588.192 355.722C589.2 357.052 590.628 359.964 591.188 361.476L592.35 360.958C591.776 359.516 590.236 356.688 589.256 355.26ZM581.626 359.446C581.22 359.474 580.73 359.488 580.31 359.474L580.534 360.762C580.926 360.706 581.346 360.65 581.696 360.622C583.67 360.426 588.822 359.866 590.768 359.614L590.46 358.522C588.654 358.788 583.642 359.348 581.626 359.446ZM596.311 356.545L596.39 354.358L594.541 355.531L594.064 354.696L596.013 353.682L594.064 352.668L594.541 351.832L596.39 353.006L596.311 350.818H597.265L597.186 353.006L599.035 351.832L599.513 352.668L597.564 353.682L599.513 354.696L599.035 355.531L597.186 354.358L597.265 356.545H596.311Z" fill="black"/>
<rect x="644.5" y="224.5" width="298" height="57" rx="9.5" fill="white" stroke="#2F57BE"/>
<path d="M734.826 247.808L733.552 247.374C733.482 247.668 733.356 248.13 733.258 248.41C732.782 249.782 732.082 251.336 730.934 252.82C729.492 254.654 727.7 256.32 725.096 257.566L726.048 258.434C728.694 257.062 730.514 255.214 731.858 253.506C733.006 252.05 733.846 250.23 734.378 248.844C734.49 248.55 734.686 248.074 734.826 247.808ZM727.434 249.46L726.692 250.342C728.232 251.28 730.052 252.666 731.06 253.506C732.46 254.682 733.678 255.788 734.84 257.132L735.722 256.166C734.616 254.962 733.23 253.744 731.83 252.596C730.766 251.742 728.82 250.342 727.434 249.46ZM738.914 251.938V253.31C739.362 253.282 740.104 253.254 740.874 253.254C741.91 253.254 747.496 253.254 748.56 253.254C749.176 253.254 749.764 253.296 750.058 253.31V251.938C749.736 251.966 749.246 252.022 748.546 252.022C747.51 252.022 741.896 252.022 740.874 252.022C740.076 252.022 739.348 251.98 738.914 251.938ZM758.822 257.706L759.564 258.322C759.676 258.252 759.816 258.126 760.054 258.014C761.678 257.202 763.61 255.774 764.828 254.136L764.156 253.17C763.092 254.752 761.37 256.026 760.068 256.614C760.068 256.194 760.068 249.418 760.068 248.55C760.068 248.018 760.124 247.612 760.138 247.5H758.85C758.85 247.612 758.92 248.004 758.92 248.536C758.92 249.418 758.92 256.278 758.92 256.922C758.92 257.202 758.878 257.496 758.822 257.706ZM752.41 257.65L753.474 258.35C754.65 257.37 755.546 256.012 755.966 254.514C756.344 253.114 756.386 250.104 756.386 248.55C756.386 248.144 756.442 247.71 756.456 247.556H755.168C755.238 247.85 755.266 248.158 755.266 248.564C755.266 250.132 755.266 252.918 754.846 254.206C754.426 255.564 753.6 256.81 752.41 257.65ZM778.534 248.55L777.834 247.878C777.638 247.934 777.134 247.976 776.868 247.976C776.028 247.976 769.49 247.976 768.818 247.976C768.3 247.976 767.726 247.92 767.236 247.85V249.11C767.782 249.068 768.3 249.04 768.818 249.04C769.49 249.04 775.818 249.04 776.798 249.04C776.35 249.908 775.034 251.42 773.732 252.162L774.67 252.904C776.266 251.798 777.596 249.992 778.156 249.04C778.254 248.886 778.422 248.676 778.534 248.55ZM772.934 250.384H771.674C771.73 250.762 771.73 251.07 771.73 251.406C771.73 253.744 771.422 255.732 769.266 257.062C768.874 257.328 768.384 257.566 768.006 257.692L769.028 258.532C772.598 256.74 772.934 254.178 772.934 250.384ZM788.684 247.934L787.9 248.27C788.362 248.9 788.81 249.67 789.16 250.412L789.958 250.048C789.636 249.376 789.034 248.438 788.684 247.934ZM790.364 247.234L789.608 247.598C790.07 248.214 790.532 248.956 790.896 249.698L791.68 249.306C791.358 248.648 790.742 247.724 790.364 247.234ZM783.77 256.95C783.77 257.482 783.742 258.168 783.672 258.616H785.03C784.974 258.154 784.946 257.398 784.946 256.95C784.946 256.292 784.932 251 784.932 248.816C784.932 248.396 784.988 247.78 785.03 247.36H783.658C783.728 247.794 783.77 248.41 783.77 248.816C783.77 249.992 783.77 256.18 783.77 256.95ZM784.68 251.028V252.26C786.206 252.736 788.824 253.73 790.42 254.584L790.91 253.408C789.356 252.638 786.542 251.56 784.68 251.028ZM796.608 257.566L797.406 258.252C797.63 258.126 797.854 258.056 797.994 258.014C801.494 256.992 804.378 255.27 806.198 253.016L805.568 252.036C803.818 254.29 800.584 256.124 797.896 256.81C797.896 256.096 797.896 250.188 797.896 248.858C797.896 248.466 797.952 247.934 797.994 247.598H796.622C796.678 247.864 796.734 248.494 796.734 248.872C796.734 250.202 796.734 255.998 796.734 256.88C796.734 257.146 796.706 257.342 796.608 257.566ZM818.686 248.648L817.986 248.102C817.762 248.172 817.384 248.214 816.936 248.214C816.404 248.214 812.078 248.214 811.532 248.214C811.098 248.214 810.3 248.158 810.118 248.13V249.39C810.272 249.376 811.028 249.32 811.532 249.32C812.008 249.32 816.488 249.32 816.992 249.32C816.628 250.482 815.606 252.148 814.654 253.226C813.212 254.822 811.154 256.502 808.886 257.37L809.782 258.308C811.994 257.3 813.996 255.634 815.564 253.884C816.726 252.596 817.79 250.636 818.35 249.25C818.42 249.068 818.602 248.76 818.686 248.648ZM815.746 253.156L814.948 253.94C816.46 255.27 818.098 257.062 819.106 258.392L820.072 257.538C819.12 256.376 817.258 254.416 815.746 253.156ZM827.94 246.94L826.792 246.842C826.75 247.5 826.554 248.34 826.246 249.11C825.77 250.3 824.832 251.924 822.816 253.856L823.782 254.57C824.244 253.996 824.636 253.492 825.042 253.1C825.686 252.526 826.568 252.078 827.464 252.078C828.192 252.078 828.752 252.456 828.766 253.268C828.78 253.996 828.766 255.438 828.71 256.18H829.788C829.774 255.312 829.746 253.702 829.746 252.974C829.746 251.84 828.906 251.196 827.828 251.196C827.212 251.196 826.414 251.392 825.868 251.714C826.428 250.986 826.946 250.048 827.296 249.194C827.66 248.256 827.814 247.486 827.94 246.94ZM823.138 248.452V249.502C823.922 249.558 824.846 249.586 825.448 249.586C827.226 249.586 829.83 249.46 831.79 249.166V248.13C829.816 248.48 827.394 248.592 825.504 248.592C824.86 248.592 823.894 248.55 823.138 248.452ZM833.834 251.826L833.386 250.79C832.994 250.986 832.644 251.14 832.224 251.336C831.3 251.77 830.166 252.204 828.836 252.89C827.17 253.744 825.434 254.794 825.434 256.502C825.434 258.196 827.044 258.63 829.032 258.63C830.25 258.63 831.804 258.518 832.868 258.392L832.91 257.258C831.678 257.482 830.166 257.608 829.074 257.608C827.632 257.608 826.554 257.44 826.554 256.348C826.554 255.382 827.534 254.626 828.92 253.898C830.278 253.198 831.608 252.666 832.602 252.274C832.98 252.134 833.484 251.938 833.834 251.826ZM838.678 247.094V248.158H842.64V247.094H838.678ZM842.108 247.094C842.108 249.726 842.57 255.69 848.17 259.078C848.366 258.826 848.786 258.378 849.024 258.196C843.494 254.92 843.186 249.6 843.186 247.094H842.108ZM841.716 249.838C840.862 253.8 839.112 256.628 836.004 258.252C836.284 258.448 836.76 258.882 836.956 259.106C840.05 257.286 841.898 254.332 842.906 250.062L841.716 249.838ZM850.648 249.306V250.37H861.512V249.306H850.648ZM861.106 249.306V249.53C860.826 255.088 860.518 257.272 859.986 257.79C859.804 257.958 859.636 258 859.328 258C858.978 258 858.082 257.986 857.13 257.902C857.326 258.21 857.466 258.672 857.48 258.98C858.348 259.036 859.244 259.064 859.734 259.008C860.266 258.966 860.602 258.854 860.938 258.448C861.554 257.748 861.848 255.662 862.17 249.866C862.184 249.698 862.198 249.306 862.198 249.306H861.106ZM855.226 246.268V248.704C855.226 251.602 854.89 255.578 850.242 258.35C850.494 258.532 850.886 258.924 851.04 259.176C855.94 256.222 856.332 251.896 856.332 248.704V246.268H855.226Z" fill="#C2C3C4"/>
<path d="M513.826 247.808L512.552 247.374C512.482 247.668 512.356 248.13 512.258 248.41C511.782 249.782 511.082 251.336 509.934 252.82C508.492 254.654 506.7 256.32 504.096 257.566L505.048 258.434C507.694 257.062 509.514 255.214 510.858 253.506C512.006 252.05 512.846 250.23 513.378 248.844C513.49 248.55 513.686 248.074 513.826 247.808ZM506.434 249.46L505.692 250.342C507.232 251.28 509.052 252.666 510.06 253.506C511.46 254.682 512.678 255.788 513.84 257.132L514.722 256.166C513.616 254.962 512.23 253.744 510.83 252.596C509.766 251.742 507.82 250.342 506.434 249.46ZM517.914 251.938V253.31C518.362 253.282 519.104 253.254 519.874 253.254C520.91 253.254 526.496 253.254 527.56 253.254C528.176 253.254 528.764 253.296 529.058 253.31V251.938C528.736 251.966 528.246 252.022 527.546 252.022C526.51 252.022 520.896 252.022 519.874 252.022C519.076 252.022 518.348 251.98 517.914 251.938ZM537.822 257.706L538.564 258.322C538.676 258.252 538.816 258.126 539.054 258.014C540.678 257.202 542.61 255.774 543.828 254.136L543.156 253.17C542.092 254.752 540.37 256.026 539.068 256.614C539.068 256.194 539.068 249.418 539.068 248.55C539.068 248.018 539.124 247.612 539.138 247.5H537.85C537.85 247.612 537.92 248.004 537.92 248.536C537.92 249.418 537.92 256.278 537.92 256.922C537.92 257.202 537.878 257.496 537.822 257.706ZM531.41 257.65L532.474 258.35C533.65 257.37 534.546 256.012 534.966 254.514C535.344 253.114 535.386 250.104 535.386 248.55C535.386 248.144 535.442 247.71 535.456 247.556H534.168C534.238 247.85 534.266 248.158 534.266 248.564C534.266 250.132 534.266 252.918 533.846 254.206C533.426 255.564 532.6 256.81 531.41 257.65ZM557.534 248.55L556.834 247.878C556.638 247.934 556.134 247.976 555.868 247.976C555.028 247.976 548.49 247.976 547.818 247.976C547.3 247.976 546.726 247.92 546.236 247.85V249.11C546.782 249.068 547.3 249.04 547.818 249.04C548.49 249.04 554.818 249.04 555.798 249.04C555.35 249.908 554.034 251.42 552.732 252.162L553.67 252.904C555.266 251.798 556.596 249.992 557.156 249.04C557.254 248.886 557.422 248.676 557.534 248.55ZM551.934 250.384H550.674C550.73 250.762 550.73 251.07 550.73 251.406C550.73 253.744 550.422 255.732 548.266 257.062C547.874 257.328 547.384 257.566 547.006 257.692L548.028 258.532C551.598 256.74 551.934 254.178 551.934 250.384ZM567.684 247.934L566.9 248.27C567.362 248.9 567.81 249.67 568.16 250.412L568.958 250.048C568.636 249.376 568.034 248.438 567.684 247.934ZM569.364 247.234L568.608 247.598C569.07 248.214 569.532 248.956 569.896 249.698L570.68 249.306C570.358 248.648 569.742 247.724 569.364 247.234ZM562.77 256.95C562.77 257.482 562.742 258.168 562.672 258.616H564.03C563.974 258.154 563.946 257.398 563.946 256.95C563.946 256.292 563.932 251 563.932 248.816C563.932 248.396 563.988 247.78 564.03 247.36H562.658C562.728 247.794 562.77 248.41 562.77 248.816C562.77 249.992 562.77 256.18 562.77 256.95ZM563.68 251.028V252.26C565.206 252.736 567.824 253.73 569.42 254.584L569.91 253.408C568.356 252.638 565.542 251.56 563.68 251.028ZM575.608 257.566L576.406 258.252C576.63 258.126 576.854 258.056 576.994 258.014C580.494 256.992 583.378 255.27 585.198 253.016L584.568 252.036C582.818 254.29 579.584 256.124 576.896 256.81C576.896 256.096 576.896 250.188 576.896 248.858C576.896 248.466 576.952 247.934 576.994 247.598H575.622C575.678 247.864 575.734 248.494 575.734 248.872C575.734 250.202 575.734 255.998 575.734 256.88C575.734 257.146 575.706 257.342 575.608 257.566ZM597.686 248.648L596.986 248.102C596.762 248.172 596.384 248.214 595.936 248.214C595.404 248.214 591.078 248.214 590.532 248.214C590.098 248.214 589.3 248.158 589.118 248.13V249.39C589.272 249.376 590.028 249.32 590.532 249.32C591.008 249.32 595.488 249.32 595.992 249.32C595.628 250.482 594.606 252.148 593.654 253.226C592.212 254.822 590.154 256.502 587.886 257.37L588.782 258.308C590.994 257.3 592.996 255.634 594.564 253.884C595.726 252.596 596.79 250.636 597.35 249.25C597.42 249.068 597.602 248.76 597.686 248.648ZM594.746 253.156L593.948 253.94C595.46 255.27 597.098 257.062 598.106 258.392L599.072 257.538C598.12 256.376 596.258 254.416 594.746 253.156ZM603.523 253.545L603.602 251.358L601.753 252.531L601.276 251.696L603.224 250.682L601.276 249.668L601.753 248.832L603.602 250.006L603.523 247.818H604.477L604.398 250.006L606.247 248.832L606.724 249.668L604.776 250.682L606.724 251.696L606.247 252.531L604.398 251.358L604.477 253.545H603.523Z" fill="black"/>
<rect x="785.5" y="794.5" width="234" height="55" rx="7.5" fill="#0F89E3" stroke="#2F57BE"/>
<path d="M878.396 819.146V820.056H883.59V819.146H878.396ZM874.91 826.916V827.798H887.104V826.916H874.91ZM875.75 815.786V816.668H879.894V815.786H875.75ZM879.558 815.786V815.982C878.69 818.208 876.422 820.168 874.364 821.036C874.574 821.218 874.854 821.582 874.994 821.806C877.22 820.77 879.558 818.768 880.608 816.08L879.936 815.73L879.74 815.786H879.558ZM881.924 815.282L881.042 815.576C882.232 818.236 884.374 820.518 886.852 821.638C887.02 821.358 887.314 820.98 887.566 820.77C885.144 819.832 883.002 817.662 881.924 815.282ZM875.372 817.76C876.1 818.208 876.94 818.908 877.36 819.398L877.948 818.754C877.542 818.25 876.674 817.606 875.932 817.186L875.372 817.76ZM884.738 815.366C884.178 815.982 883.184 816.836 882.47 817.354L883.114 817.858C883.842 817.368 884.808 816.612 885.536 815.926L884.738 815.366ZM886.306 817.018C885.718 817.648 884.682 818.502 883.926 819.006L884.57 819.51C885.34 819.034 886.348 818.278 887.09 817.578L886.306 817.018ZM878.144 822.072H883.814V823.92H878.144V822.072ZM877.108 821.204V824.788H884.892V821.204H877.108ZM877.92 825.012C878.298 825.628 878.648 826.482 878.788 827.028L879.782 826.72C879.642 826.174 879.278 825.348 878.886 824.746L877.92 825.012ZM883.128 824.704C882.904 825.32 882.456 826.23 882.106 826.776L883.002 827.042C883.352 826.496 883.772 825.726 884.15 824.984L883.128 824.704ZM900.502 821.386C900.11 822.002 899.382 822.856 898.864 823.388L899.536 823.85C900.082 823.346 900.768 822.604 901.328 821.918L900.502 821.386ZM894.244 822.086C894.832 822.66 895.476 823.472 895.742 824.004L896.512 823.5C896.218 822.954 895.56 822.184 894.958 821.624L894.244 822.086ZM894.678 815.814V816.696H899.312V820.504H900.292V815.814H894.678ZM894.958 817.9V818.754H899.872V817.9H894.958ZM893.95 819.972V820.896H901.44V819.972H893.95ZM897.1 820.406V827C897.1 827.168 897.058 827.21 896.904 827.21C896.736 827.21 896.26 827.224 895.728 827.196C895.854 827.476 895.98 827.868 896.022 828.134C896.792 828.134 897.31 828.12 897.646 827.966C897.996 827.812 898.08 827.532 898.08 827.028V820.406H897.1ZM893.656 826.286L894.146 827.154C894.972 826.594 895.938 825.894 896.834 825.208L896.512 824.396C895.462 825.124 894.384 825.852 893.656 826.286ZM898.038 821.036L897.436 821.736C897.87 823.458 898.892 825.992 901.006 827.28C901.16 827.014 901.482 826.608 901.692 826.412C899.536 825.278 898.458 822.898 898.038 821.036ZM889.512 818.712V819.622H893.502V818.712H889.512ZM888.756 821.106V822.03H893.88V821.106H888.756ZM889.078 822.954C889.344 823.808 889.568 824.9 889.582 825.628L890.366 825.432C890.31 824.704 890.086 823.626 889.806 822.772L889.078 822.954ZM888.63 826.72L888.84 827.7C890.24 827.406 892.102 826.986 893.908 826.608L893.824 825.712C891.92 826.104 889.946 826.496 888.63 826.72ZM892.97 822.646C892.844 823.388 892.592 824.494 892.382 825.18L893.068 825.376C893.306 824.718 893.544 823.71 893.782 822.856L892.97 822.646ZM890.954 819.048V826.832L891.878 826.678V819.048H890.954ZM890.912 815.254C890.436 816.374 889.54 817.802 888.266 818.866C888.462 819.006 888.77 819.314 888.924 819.524C890.31 818.306 891.22 816.822 891.766 815.744V815.478H891.458V815.254H890.912ZM891.08 815.254V815.996H891.276C892.088 816.696 893.04 817.858 893.516 818.572L894.216 817.774C893.726 817.074 892.69 815.996 891.864 815.254H891.08ZM910.778 815.912H909.49C909.518 816.038 909.56 816.43 909.588 816.808C909.63 817.578 909.644 820.364 909.644 820.98L910.708 821.526C910.694 820.406 910.666 817.704 910.708 816.794C910.708 816.626 910.75 816.08 910.778 815.912ZM903.33 817.872L903.358 818.95C905.472 818.796 908.468 818.698 910.876 818.698C912.934 818.698 914.194 818.726 914.978 818.768L914.992 817.732C914.334 817.718 912.598 817.718 910.89 817.718C908.734 817.718 905.234 817.844 903.33 817.872ZM910.68 821.932L909.91 821.54C910.134 823.038 909.574 823.766 908.706 823.766C907.936 823.766 907.278 823.262 907.278 822.38C907.278 821.47 907.964 820.896 908.706 820.896C909.462 820.896 910.078 821.428 910.078 822.688C910.078 824.998 908.594 826.244 906.046 826.846L906.984 827.756C910.232 826.79 911.156 824.69 911.156 822.786C911.156 821.176 910.33 819.972 908.706 819.972C907.376 819.972 906.228 821.008 906.228 822.394C906.228 823.92 907.362 824.746 908.538 824.746C909.812 824.746 910.68 823.808 910.68 821.932ZM919.332 816.696L919.36 817.844C919.668 817.802 919.976 817.788 920.298 817.76C921.026 817.718 923.826 817.606 924.568 817.564C923.868 818.194 922.104 819.664 921.32 820.308C920.522 820.994 918.716 822.506 917.554 823.458L918.366 824.27C920.13 822.464 921.39 821.484 923.714 821.484C925.548 821.484 926.864 822.506 926.864 823.892C926.864 825.642 925.366 826.622 922.986 826.622C921.88 826.622 921.11 826.216 921.11 825.53C921.11 825.04 921.6 824.648 922.244 824.648C923.364 824.648 924.05 825.502 924.134 826.692L925.142 826.524C925.044 825.11 924.106 823.794 922.244 823.794C920.956 823.794 920.088 824.662 920.088 825.614C920.088 826.79 921.25 827.616 923.154 827.616C926.122 827.616 927.984 826.146 927.984 823.892C927.984 822.002 926.318 820.616 923.994 820.616C923.364 820.616 922.692 820.686 922.048 820.896C923.14 820 925.044 818.362 925.73 817.83C925.996 817.62 926.276 817.438 926.528 817.27L925.884 816.444C925.73 816.5 925.534 816.528 925.114 816.57C924.372 816.64 921.054 816.738 920.312 816.738C920.032 816.738 919.64 816.724 919.332 816.696Z" fill="white"/>
<rect x="420.5" y="794.5" width="234" height="55" rx="7.5" stroke="#2F57BE"/>
<path d="M483.044 820.41C483.058 820.76 483.058 821.18 483.058 821.502C483.058 822.048 483.058 827.83 483.058 828.404C483.058 828.894 483.03 829.916 483.03 830.098H484.22C484.22 829.916 484.206 829.02 484.206 828.558C484.206 827.984 484.206 821.544 484.206 821.544H491.85C491.85 821.544 491.85 828.04 491.85 828.558C491.85 829.146 491.836 829.944 491.822 830.098H493.04C493.026 829.944 493.012 828.852 493.012 828.404C493.012 827.872 493.012 822.16 493.012 821.502C493.012 821.152 493.012 820.76 493.04 820.424C492.606 820.438 492.102 820.438 491.808 820.438C491.122 820.438 485.032 820.438 484.29 820.438C483.954 820.438 483.59 820.438 483.044 820.41ZM492.312 828.208H483.646V829.3H492.312V828.208ZM505.71 818.8L504.954 819.122C505.332 819.654 505.808 820.494 506.088 821.068L506.844 820.718C506.564 820.158 506.06 819.304 505.71 818.8ZM507.236 818.24L506.508 818.562C506.9 819.08 507.348 819.878 507.656 820.48L508.412 820.144C508.146 819.626 507.614 818.758 507.236 818.24ZM506.634 821.586L505.71 821.026C505.472 821.124 505.164 821.166 504.786 821.166C504.352 821.166 500.894 821.166 500.32 821.166L499.872 822.174H505.066C504.772 823.448 503.918 825.254 502.826 826.542C501.552 828.026 499.816 829.3 497.24 830.056L498.248 830.966C500.88 830 502.56 828.712 503.834 827.158C505.066 825.646 505.934 823.742 506.312 822.342C506.382 822.118 506.522 821.796 506.634 821.586ZM501.944 819.472L500.656 819.052C500.572 819.402 500.362 819.92 500.222 820.158C499.606 821.418 498.234 823.448 495.812 824.89L496.792 825.618C499.032 824.12 500.502 822.118 501.328 820.578C501.468 820.312 501.72 819.836 501.944 819.472ZM510.204 824.946L510.75 826.038C513.004 825.338 515.23 824.316 516.77 823.364C518.408 822.342 519.878 821.166 521.082 819.92L520.144 819.038C519.178 820.214 517.778 821.418 516.308 822.342C514.754 823.308 512.626 824.302 510.204 824.946ZM516.084 822.916V828.95C516.084 829.468 516.042 830.168 516 830.434H517.386C517.316 830.168 517.288 829.468 517.288 828.95V822.552L516.084 822.916ZM526.178 819.752L525.366 820.606C526.416 821.292 528.152 822.804 528.866 823.532L529.734 822.636C528.964 821.866 527.158 820.41 526.178 819.752ZM524.974 829.132L525.702 830.28C528.04 829.846 529.804 828.978 531.218 828.096C533.332 826.766 534.956 824.862 535.908 823.126L535.236 821.922C534.424 823.658 532.73 825.73 530.56 827.088C529.23 827.914 527.41 828.768 524.974 829.132ZM542.572 821.726L542.586 822.79C543.398 822.846 544.126 822.874 544.938 822.874C546.576 822.874 548.284 822.762 549.768 822.51V821.432C548.354 821.726 546.632 821.852 544.952 821.852C544.126 821.852 543.37 821.81 542.572 821.726ZM547.472 819.22H546.212C546.254 819.472 546.268 819.836 546.268 820.088C546.268 820.578 546.282 821.46 546.282 822.426C546.282 824.274 546.464 826.892 546.464 827.9C546.464 828.838 546.128 829.426 544.952 829.426C543.93 829.426 543.244 829.048 543.244 828.32C543.244 827.648 543.972 827.186 545.022 827.186C546.8 827.186 548.214 828.138 549.684 829.51L550.286 828.586C549.11 827.522 547.472 826.332 545.12 826.332C543.272 826.332 542.236 827.256 542.236 828.432C542.236 829.692 543.258 830.448 545.134 830.448C547.024 830.448 547.556 829.328 547.556 828.18C547.556 826.738 547.346 824.554 547.346 822.398C547.346 821.572 547.36 820.578 547.388 820.06C547.402 819.794 547.43 819.5 547.472 819.22ZM540.57 819.318L539.338 819.206C539.324 819.514 539.296 819.878 539.24 820.214C539.072 821.362 538.596 824.036 538.596 826.094C538.596 827.984 538.862 829.524 539.128 830.532L540.122 830.448C540.108 830.308 540.094 830.098 540.08 829.958C540.066 829.804 540.094 829.524 540.136 829.328C540.276 828.642 540.794 827.214 541.144 826.234L540.57 825.786C540.332 826.36 539.982 827.214 539.758 827.858C539.66 827.172 539.618 826.584 539.618 825.898C539.618 824.33 540.038 821.558 540.318 820.256C540.374 820.004 540.486 819.542 540.57 819.318ZM554.276 820.186V821.32C555.382 821.418 556.586 821.474 557.986 821.474C559.274 821.474 560.8 821.376 561.752 821.306V820.158C560.744 820.27 559.33 820.354 557.986 820.354C556.572 820.354 555.284 820.298 554.276 820.186ZM554.836 825.828L553.702 825.716C553.576 826.276 553.422 826.934 553.422 827.662C553.422 829.426 555.074 830.35 557.916 830.35C559.904 830.35 561.682 830.14 562.69 829.874L562.676 828.67C561.612 829.006 559.806 829.216 557.888 829.216C555.648 829.216 554.556 828.488 554.556 827.41C554.556 826.892 554.668 826.374 554.836 825.828ZM570.922 819.038L569.662 818.982C569.69 819.36 569.662 819.696 569.606 820.144C569.438 821.488 568.696 824.96 567.632 827.046L568.668 827.41C568.808 827.172 568.934 826.976 569.102 826.766C570.026 825.66 571.58 825.086 573.246 825.086C574.884 825.086 575.738 825.898 575.738 826.934C575.738 829.244 572.602 829.79 569.354 829.342L569.648 830.462C573.904 830.91 576.886 829.832 576.886 826.906C576.886 825.268 575.584 824.134 573.358 824.134C571.902 824.134 570.642 824.484 569.424 825.338C569.9 824.036 570.46 821.334 570.656 820.214C570.74 819.85 570.81 819.416 570.922 819.038ZM566.568 820.83L566.582 821.922C567.38 821.992 568.276 822.062 569.228 822.062C571.146 822.062 574.002 821.782 575.99 821.432L575.962 820.354C573.764 820.844 571.006 821.054 569.214 821.054C568.374 821.054 567.31 820.956 566.568 820.83ZM583.676 819.024L583.396 820.102C584.474 820.382 587.498 820.998 588.842 821.18L589.108 820.116C587.862 819.99 584.88 819.416 583.676 819.024ZM583.368 821.586L582.192 821.432C582.108 822.888 581.758 825.828 581.478 827.102L582.528 827.354C582.612 827.13 582.738 826.906 582.948 826.668C583.928 825.478 585.44 824.792 587.274 824.792C588.702 824.792 589.752 825.59 589.752 826.696C589.752 828.614 587.596 829.888 583.172 829.356L583.508 830.49C588.702 830.924 590.928 829.23 590.928 826.738C590.928 825.086 589.5 823.798 587.358 823.798C585.678 823.798 584.138 824.344 582.794 825.52C582.934 824.61 583.186 822.538 583.368 821.586Z" fill="#2F57BE"/>
<rect width="1440" height="118" fill="#0F89E3"/>
<path d="M92.5407 57.5341L91.035 57.9602C90.9403 57.7093 90.8006 57.4654 90.6159 57.2287C90.436 56.9872 90.1898 56.7884 89.8773 56.6321C89.5648 56.4759 89.1647 56.3977 88.677 56.3977C88.0094 56.3977 87.4531 56.5516 87.008 56.8594C86.5676 57.1624 86.3475 57.5483 86.3475 58.017C86.3475 58.4337 86.499 58.7628 86.802 59.0043C87.1051 59.2457 87.5785 59.447 88.2225 59.608L89.8418 60.0057C90.8172 60.2424 91.544 60.6046 92.0222 61.0923C92.5004 61.5753 92.7395 62.1979 92.7395 62.9602C92.7395 63.5852 92.5596 64.1439 92.1998 64.6364C91.8446 65.1288 91.3475 65.517 90.7083 65.8011C90.0691 66.0852 89.3257 66.2273 88.4782 66.2273C87.3655 66.2273 86.4445 65.9858 85.7154 65.5028C84.9862 65.0199 84.5246 64.3144 84.3304 63.3864L85.9213 62.9886C86.0729 63.5758 86.3593 64.0161 86.7807 64.3097C87.2069 64.6032 87.7632 64.75 88.4498 64.75C89.231 64.75 89.8513 64.5843 90.3105 64.2528C90.7746 63.9167 91.0066 63.5142 91.0066 63.0455C91.0066 62.6667 90.874 62.3494 90.6088 62.0938C90.3437 61.8333 89.9365 61.6392 89.3873 61.5114L87.5691 61.0852C86.57 60.8485 85.8361 60.4815 85.3674 59.9844C84.9033 59.4825 84.6713 58.8551 84.6713 58.1023C84.6713 57.4867 84.8442 56.9422 85.1898 56.4688C85.5402 55.9953 86.016 55.6236 86.6174 55.3537C87.2234 55.0838 87.91 54.9489 88.677 54.9489C89.7566 54.9489 90.6041 55.1856 91.2196 55.6591C91.8399 56.1326 92.2802 56.7576 92.5407 57.5341ZM96.9387 59.4375V66H95.2626V55.0909H96.8819V56.7955H97.024C97.2797 56.2415 97.6679 55.7964 98.1887 55.4602C98.7096 55.1193 99.3819 54.9489 100.206 54.9489C100.944 54.9489 101.591 55.1004 102.145 55.4034C102.699 55.7017 103.13 56.1562 103.437 56.767C103.745 57.3731 103.899 58.1402 103.899 59.0682V66H102.223V59.1818C102.223 58.3248 102 57.6572 101.555 57.179C101.11 56.696 100.499 56.4545 99.7228 56.4545C99.1878 56.4545 98.7096 56.5705 98.2882 56.8026C97.8715 57.0346 97.5424 57.3731 97.301 57.8182C97.0595 58.2633 96.9387 58.803 96.9387 59.4375ZM114.689 57.5341L113.183 57.9602C113.089 57.7093 112.949 57.4654 112.764 57.2287C112.584 56.9872 112.338 56.7884 112.026 56.6321C111.713 56.4759 111.313 56.3977 110.825 56.3977C110.158 56.3977 109.602 56.5516 109.156 56.8594C108.716 57.1624 108.496 57.5483 108.496 58.017C108.496 58.4337 108.647 58.7628 108.95 59.0043C109.253 59.2457 109.727 59.447 110.371 59.608L111.99 60.0057C112.966 60.2424 113.692 60.6046 114.171 61.0923C114.649 61.5753 114.888 62.1979 114.888 62.9602C114.888 63.5852 114.708 64.1439 114.348 64.6364C113.993 65.1288 113.496 65.517 112.857 65.8011C112.218 66.0852 111.474 66.2273 110.627 66.2273C109.514 66.2273 108.593 65.9858 107.864 65.5028C107.135 65.0199 106.673 64.3144 106.479 63.3864L108.07 62.9886C108.221 63.5758 108.508 64.0161 108.929 64.3097C109.355 64.6032 109.912 64.75 110.598 64.75C111.379 64.75 112 64.5843 112.459 64.2528C112.923 63.9167 113.155 63.5142 113.155 63.0455C113.155 62.6667 113.022 62.3494 112.757 62.0938C112.492 61.8333 112.085 61.6392 111.536 61.5114L109.718 61.0852C108.718 60.8485 107.985 60.4815 107.516 59.9844C107.052 59.4825 106.82 58.8551 106.82 58.1023C106.82 57.4867 106.993 56.9422 107.338 56.4688C107.689 55.9953 108.164 55.6236 108.766 55.3537C109.372 55.0838 110.058 54.9489 110.825 54.9489C111.905 54.9489 112.753 55.1856 113.368 55.6591C113.988 56.1326 114.429 56.7576 114.689 57.5341ZM123.661 58.983V60.5455H117.297V58.983H123.661ZM129.82 66.2557C129.129 66.2557 128.502 66.1255 127.938 65.8651C127.375 65.5999 126.927 65.2188 126.596 64.7216C126.265 64.2197 126.099 63.6136 126.099 62.9034C126.099 62.2784 126.222 61.7718 126.468 61.3835C126.714 60.9905 127.044 60.6828 127.455 60.4602C127.867 60.2377 128.322 60.072 128.819 59.9631C129.321 59.8494 129.825 59.7595 130.332 59.6932C130.995 59.608 131.532 59.544 131.944 59.5014C132.361 59.4541 132.664 59.3759 132.853 59.267C133.047 59.1581 133.144 58.9687 133.144 58.6989V58.642C133.144 57.9413 132.953 57.3968 132.569 57.0085C132.19 56.6203 131.615 56.4261 130.843 56.4261C130.043 56.4261 129.416 56.6013 128.961 56.9517C128.507 57.3021 128.187 57.6761 128.002 58.0739L126.411 57.5057C126.695 56.8428 127.074 56.3267 127.548 55.9574C128.026 55.5833 128.547 55.3229 129.11 55.1761C129.678 55.0246 130.237 54.9489 130.786 54.9489C131.137 54.9489 131.539 54.9915 131.994 55.0767C132.453 55.1572 132.896 55.3253 133.322 55.581C133.753 55.8366 134.11 56.2225 134.394 56.7386C134.678 57.2547 134.82 57.946 134.82 58.8125V66H133.144V64.5227H133.059C132.945 64.7595 132.756 65.0128 132.491 65.2827C132.226 65.5526 131.873 65.7822 131.433 65.9716C130.992 66.161 130.455 66.2557 129.82 66.2557ZM130.076 64.75C130.739 64.75 131.298 64.6198 131.752 64.3594C132.212 64.099 132.557 63.7628 132.789 63.3509C133.026 62.9389 133.144 62.5057 133.144 62.0511V60.517C133.073 60.6023 132.917 60.6804 132.676 60.7514C132.439 60.8177 132.164 60.8769 131.852 60.929C131.544 60.9763 131.243 61.0189 130.95 61.0568C130.661 61.09 130.427 61.1184 130.247 61.142C129.811 61.1989 129.404 61.2912 129.025 61.419C128.651 61.5421 128.348 61.7292 128.116 61.9801C127.889 62.2263 127.775 62.5625 127.775 62.9886C127.775 63.571 127.99 64.0114 128.421 64.3097C128.857 64.6032 129.409 64.75 130.076 64.75ZM137.88 70.0909V55.0909H139.499V56.8239H139.698C139.821 56.6345 139.992 56.393 140.209 56.0994C140.432 55.8011 140.749 55.536 141.161 55.304C141.578 55.0672 142.141 54.9489 142.851 54.9489C143.77 54.9489 144.58 55.1785 145.28 55.6378C145.981 56.0971 146.528 56.7481 146.921 57.5909C147.314 58.4337 147.51 59.428 147.51 60.5739C147.51 61.7292 147.314 62.7306 146.921 63.5781C146.528 64.4209 145.983 65.0743 145.287 65.5384C144.591 65.9976 143.789 66.2273 142.88 66.2273C142.179 66.2273 141.618 66.1113 141.197 65.8793C140.775 65.6425 140.451 65.375 140.224 65.0767C139.996 64.7737 139.821 64.5227 139.698 64.3239H139.556V70.0909H137.88ZM139.528 60.5455C139.528 61.3693 139.648 62.0961 139.89 62.7259C140.131 63.3509 140.484 63.8409 140.948 64.196C141.412 64.5464 141.98 64.7216 142.653 64.7216C143.353 64.7216 143.938 64.5369 144.407 64.1676C144.88 63.7936 145.235 63.2917 145.472 62.6619C145.714 62.0275 145.834 61.322 145.834 60.5455C145.834 59.7784 145.716 59.0871 145.479 58.4716C145.247 57.8513 144.894 57.3613 144.421 57.0014C143.952 56.6368 143.363 56.4545 142.653 56.4545C141.971 56.4545 141.398 56.6274 140.934 56.973C140.47 57.3139 140.119 57.7921 139.883 58.4077C139.646 59.0185 139.528 59.7311 139.528 60.5455ZM150.067 70.0909V55.0909H151.687V56.8239H151.885C152.009 56.6345 152.179 56.393 152.397 56.0994C152.619 55.8011 152.937 55.536 153.349 55.304C153.765 55.0672 154.329 54.9489 155.039 54.9489C155.957 54.9489 156.767 55.1785 157.468 55.6378C158.169 56.0971 158.715 56.7481 159.108 57.5909C159.501 58.4337 159.698 59.428 159.698 60.5739C159.698 61.7292 159.501 62.7306 159.108 63.5781C158.715 64.4209 158.171 65.0743 157.475 65.5384C156.779 65.9976 155.976 66.2273 155.067 66.2273C154.367 66.2273 153.805 66.1113 153.384 65.8793C152.963 65.6425 152.638 65.375 152.411 65.0767C152.184 64.7737 152.009 64.5227 151.885 64.3239H151.743V70.0909H150.067ZM151.715 60.5455C151.715 61.3693 151.836 62.0961 152.077 62.7259C152.319 63.3509 152.671 63.8409 153.135 64.196C153.599 64.5464 154.168 64.7216 154.84 64.7216C155.541 64.7216 156.126 64.5369 156.594 64.1676C157.068 63.7936 157.423 63.2917 157.66 62.6619C157.901 62.0275 158.022 61.322 158.022 60.5455C158.022 59.7784 157.903 59.0871 157.667 58.4716C157.435 57.8513 157.082 57.3613 156.608 57.0014C156.14 56.6368 155.55 56.4545 154.84 56.4545C154.158 56.4545 153.585 56.6274 153.121 56.973C152.657 57.3139 152.307 57.7921 152.07 58.4077C151.833 59.0185 151.715 59.7311 151.715 60.5455Z" fill="white"/>
</g>
<defs>
<clipPath id="clip0_3_36">
<rect width="1440" height="1024" fill="white"/>
</clipPath>
</defs>
</svg>
